<?xml version="1.0" encoding="utf-8"?>
<!-- Generator: Adobe Illustrator 22.1.0, SVG Export Plug-In . SVG Version: 6.00 Build 0)  -->
<svg version="1.1" id="Layer_1" xmlns="http://www.w3.org/2000/svg" xmlns:xlink="http://www.w3.org/1999/xlink" x="0px" y="0px"
	 viewBox="0 0 37.3 30" style="enable-background:new 0 0 37.3 30;" xml:space="preserve">
<style type="text/css">
	.st0{fill:#FFFFFF;}
	.st1{fill:#FB4B09;}
	.st2{fill:none;stroke:#356969;stroke-linejoin:round;}
</style>
<title>10</title>
<g id="Group_204">
	<path id="comments-solid" class="st0" d="M27,10.7C27,4.8,21,0,13.5,0S0,4.8,0,10.7c0,2.3,0.9,4.5,2.5,6.2
		c-0.6,1.3-1.4,2.6-2.3,3.6C0,20.7-0.1,20.9,0,21.1c0.1,0.2,0.3,0.3,0.5,0.3c2,0,4-0.6,5.7-1.7c2.2,1.1,4.7,1.7,7.2,1.7
		C20.9,21.4,27,16.6,27,10.7z M34.9,25.4c1.6-1.7,2.4-3.9,2.5-6.2c0-4.5-3.5-8.3-8.4-9.9C29,9.8,29,10.3,29,10.7
		c0,7.1-7,12.9-15.5,12.9c-0.7,0-1.3,0-2-0.1c2,3.9,6.8,6.6,12.4,6.6c2.5,0,5-0.6,7.2-1.7c1.7,1.1,3.7,1.6,5.8,1.7
		c0.2,0,0.4-0.1,0.5-0.3c0.1-0.2,0-0.4-0.1-0.6C36.3,28,35.5,26.8,34.9,25.4L34.9,25.4z"/>
	<g id="Ellipse_18">
		<circle class="st1" cx="28.1" cy="11.3" r="8.2"/>
		<circle class="st2" cx="28.1" cy="11.3" r="8"/>
	</g>
</g>
</svg>
