<svg id="Layer_1" data-name="Layer 1" xmlns="http://www.w3.org/2000/svg" viewBox="0 0 395.1 294.6"><defs><style>.cls-1{fill:#ececec;}.cls-2{fill:#3b455a;}.cls-3{fill:#2e3644;}.cls-4{fill:#ccd2d9;}.cls-5{fill:#aa6755;}.cls-6{fill:#efefef;}.cls-7{fill:#d34e4e;}.cls-8{fill:#fff;}.cls-9{fill:#7fc5a3;}.cls-10{fill:#eac1a4;}.cls-11{fill:#40495f;}.cls-12{fill:#474ebb;}.cls-13{fill:#8ec3cb;}.cls-14{fill:#ebceb1;}.cls-15{fill:#ebb044;}</style></defs><title>1</title><g id="_1-CodeSVG" data-name=" 1-CodeSVG"><g id="Shadow"><g id="Group_16" data-name="Group 16"><path id="Path_364" data-name="Path 364" class="cls-1" d="M339.38,505.08a338,338,0,0,0-34.71,1.55c-4.37.47-8.63,1.51-13,1.9-8.71.84-17.29,2.39-26,3.1-7,.56-14.11.92-21.15,1.63a78.09,78.09,0,0,1-20.43-.6c-4.85-.83-9.7-1.31-14.47-2.66a60.71,60.71,0,0,0-16.66-2.54c-7.91,0-15.62.08-23.18,2.7a22.52,22.52,0,0,0-7.91,4.41c-4.61,4.48-5.25,15.64-.63,20.29,7.75,7.82,24.33,10.88,35.22,11,11.92.16,23.53-.72,35.46-1.19,11.09-.48,22.18-1.15,33.27-1.11,22.7,0,45.44,0,68.1-1.47,21.31-1.39,42.66-.92,64-.92,21.9,0,43.61.16,65.36,3,9.46,1.23,19.12,1.67,28.62,2.5,8.51.76,16.7,0,25.2-.71a62.26,62.26,0,0,0,20.67-5.36c5.13-2.39,14.28-9.73,15.83-15.41,4.41-15.85-62.1-15.49-72.32-15.45-11.41,0-22.93.4-34.34,0A82.44,82.44,0,0,1,432,507.7c-4.65-1-9.38-.76-14.11-1.16-19.76-1.74-39.52-1.46-59.31-1.46C352.3,505.12,345.82,505.08,339.38,505.08Z" transform="translate(-158.04 -252.4)"/></g></g><g id="Object"><g id="Group_49" data-name="Group 49"><g id="Group_21" data-name="Group 21"><g id="Group_17" data-name="Group 17"><path id="Path_365" data-name="Path 365" class="cls-2" d="M247.76,466.8l1,23.63-3,40.14-4.45.32-5.44-36.49-7.51-30.86Z" transform="translate(-158.04 -252.4)"/><path id="Path_366" data-name="Path 366" class="cls-3" d="M241.49,532.8l5,2.06,2.22-2.58L246.13,530l-4.85.35Z" transform="translate(-158.04 -252.4)"/></g><g id="Group_18" data-name="Group 18"><path id="Path_367" data-name="Path 367" class="cls-2" d="M216.11,458.42l-1,17.87,2.94,53.09,4.44.24,6.72-34.83,5.91-38.2Z" transform="translate(-158.04 -252.4)"/><path id="Path_368" data-name="Path 368" class="cls-3" d="M222.39,531.49l-5,2.18-2.3-2.54,2.55-2.3,4.84.24Z" transform="translate(-158.04 -252.4)"/></g><g id="Group_19" data-name="Group 19"><path id="Path_369" data-name="Path 369" class="cls-4" d="M242.12,405.8l-14-1.51s-7.78.84-13,19.26c-2.94,10.25-3.81,26.45-4.05,38.76.32,1.75,2.26,9.45,10.36,8.14,13.9-2.26,21.33-4.49,27.36-3.37,5.16,1.11,4.73-6,4.17-11.4l-2.06-16.76Z" transform="translate(-158.04 -252.4)"/></g><g id="Group_20" data-name="Group 20"><path id="Path_370" data-name="Path 370" class="cls-5" d="M239.42,388.41c-3.53-.79-7.15-1.47-10.68-.75a3.15,3.15,0,0,0-2,1.07,3.08,3.08,0,0,0-.31.83c-.88,3.3-2,8.22.16,11.24a5,5,0,0,0,1.58,1.43,7.33,7.33,0,0,0,2.62,1,12,12,0,0,1-.79,2.39c.79,1.23,4.57,1.35,5.24.2,0-1,.08-2,.12-3a7.08,7.08,0,0,0,1.31-.68,8.81,8.81,0,0,0,3.3-4.44c.68-1.95,1.63-3.82,2.23-5.8a2.79,2.79,0,0,0,0-2.23,2.85,2.85,0,0,0-2.07-1.11A5.17,5.17,0,0,1,239.42,388.41Z" transform="translate(-158.04 -252.4)"/><path id="Path_371" data-name="Path 371" class="cls-2" d="M227.71,390.32a11.06,11.06,0,0,1,6-1.47c5,.36,6.75,4,7,8.54,1.35-1.75,3.93-3.9,4.09-6.16a10.36,10.36,0,0,0-1.16-5.88c-.95-1.46-3.41-2.26-4.84-3.13s-2.74-1.63-4.13-2.42a2.64,2.64,0,0,0-.91-.4,2.69,2.69,0,0,0-1.16.11l-9.72,2.5c-.64.16-1.35.4-1.55,1a1.81,1.81,0,0,0,0,1.15,47.09,47.09,0,0,1,1.23,5.12c.2,1,.79,6.08,2.54,5.48a20.87,20.87,0,0,0,1-2.78A3.66,3.66,0,0,1,227.71,390.32Z" transform="translate(-158.04 -252.4)"/></g><path id="Path_372" data-name="Path 372" class="cls-4" d="M228.18,404.3,223,405.88l-18.86,19.74-1.11,6.51,9,14.89,2.42-5.48-3.81-11,6-4.25,8.1-18.18Z" transform="translate(-158.04 -252.4)"/></g><g id="Group_23" data-name="Group 23"><path id="Path_373" data-name="Path 373" class="cls-6" d="M391.36,252.4,338,253l-37.4,38.12.55,53.41,38.12,37.4,53.41-.51L430,343.22l-.52-53.41Z" transform="translate(-158.04 -252.4)"/><path id="Path_374" data-name="Path 374" class="cls-7" d="M425.28,291.59l-35.62-34.91-49.92.48-34.9,35.62.47,49.92L341,377.64l49.88-.51,34.94-35.62Z" transform="translate(-158.04 -252.4)"/><g id="Group_22" data-name="Group 22"><path id="Path_375" data-name="Path 375" class="cls-8" d="M338.87,310.85v.52l-5.6,0V311a3.78,3.78,0,0,0-3.46-4.05h-.55c-2.66,0-4.09,1.35-4.09,3.18,0,5.95,14.3,2.3,14.41,13.1.08,6.71-4.21,9.37-10.28,9.45-5.4,0-10.21-3-10.25-9,0-.35,0-.71,0-.95l5.72,0c0,.08,0,.48,0,.68a4.33,4.33,0,0,0,4,4.61,3.46,3.46,0,0,0,.72,0c3.31,0,4.45-1.79,4.41-3.53-.08-7-14.3-2.7-14.41-13.86,0-5.56,4.53-8.26,9.73-8.34S338.83,304.82,338.87,310.85Z" transform="translate(-158.04 -252.4)"/><path id="Path_376" data-name="Path 376" class="cls-8" d="M361.82,307.36l-7.26.08.23,24.5-5.48,0-.23-24.5-7.27.08,0-4.89,20.05-.2Z" transform="translate(-158.04 -252.4)"/><path id="Path_377" data-name="Path 377" class="cls-8" d="M387.87,316.93c.12,10.36-4.49,15.25-12.07,15.33s-12.27-4.73-12.35-15.09,4.48-15.25,12.07-15.33S387.79,306.56,387.87,316.93Zm-18.78-.88,0,2.15c0,5.87,2.27,9.41,6.64,9.37s6.51-3.62,6.47-9.49l0-2.15c0-5.87-2.26-9.41-6.63-9.37s-6.51,3.62-6.47,9.49Z" transform="translate(-158.04 -252.4)"/><path id="Path_378" data-name="Path 378" class="cls-8" d="M397.44,320.15l.12,11.4-5.48,0-.28-29.39,10.48-.12c6.08-.08,9.25,3.65,9.29,8.74,0,5.52-3.61,9.21-9.13,9.25ZM397.32,307l.08,8.3,4.45,0c2.66,0,4.09-1.67,4.09-4.37,0-2.38-1.55-3.93-4.17-3.89Z" transform="translate(-158.04 -252.4)"/></g></g><g id="Group_30" data-name="Group 30"><g id="Group_28" data-name="Group 28"><path id="Path_379" data-name="Path 379" class="cls-3" d="M457.05,528.86l.36,2.78-5.2,3.49-3.14-2.42,2.42-3.14,5.2-3.49Z" transform="translate(-158.04 -252.4)"/><g id="Group_24" data-name="Group 24"><path id="Path_380" data-name="Path 380" class="cls-4" d="M457.25,527.91l-4.05-35.58L458,452.54,457,444l-21.64-.79L434.54,457l3.65,35.38,13.66,37.33Z" transform="translate(-158.04 -252.4)"/></g><g id="Group_25" data-name="Group 25"><path id="Path_381" data-name="Path 381" class="cls-4" d="M419.45,447.22l0,35.9,7.22,46.22,5.2-.08,2.86-42.73,6.67-42.76Z" transform="translate(-158.04 -252.4)"/><path id="Path_382" data-name="Path 382" class="cls-3" d="M431.84,531.49l-5.6,2.85-2.86-2.78,2.78-2.85,5.64,0Z" transform="translate(-158.04 -252.4)"/></g><g id="Group_26" data-name="Group 26"><path id="Path_383" data-name="Path 383" class="cls-9" d="M460.31,459.41c0-1.55-.12-2.86-.16-3.33-.12-4.17-.48-8.34-1-12.47-.47-3.7-1.07-12.95-1.7-16.64-.52-3.06-2.35-10.64-3.7-13.46-3.3-7-2.26-7.67-16.71-9.77-6.32-.92-7.83,3-13,7.54-.51.44-.48,3.1-.6,3.81-.2,1.24-.44,2.47-.67,3.74-.2.95-.44,1.94-.68,2.9h0s-4.33,19.73-7.23,23.94-8.81,10.05,1.12,13.66a35.16,35.16,0,0,0,5.36,1.39s8.1-.91,12.27-.87a73.59,73.59,0,0,1,11.47,1.07,24.6,24.6,0,0,1,7.35,2.22c2.14,1.12,3.69,2.78,5.92,3.94a1.06,1.06,0,0,0,.67.2C460.35,467.12,460.39,462.71,460.31,459.41Z" transform="translate(-158.04 -252.4)"/></g><g id="Group_27" data-name="Group 27"><path id="Path_384" data-name="Path 384" class="cls-10" d="M437,405.76a6,6,0,0,0,4.25-.2,1,1,0,0,0,.6-.87,23.77,23.77,0,0,0-.28-3.26c1.35-.47,2.9-1.19,3.14-2.58a4.08,4.08,0,0,0-.08-1.35l-1-5.48a5.81,5.81,0,0,0-.55-1.82,4.1,4.1,0,0,0-2.9-1.55,10,10,0,0,0-8.1,2,4.12,4.12,0,0,0-1.39,1.83A5.86,5.86,0,0,0,431,396c.27,1.08.55,2.1.83,3.18s.8,2.58,1.95,3.06c.63.24,1.35.16,1.9.51C436.68,403.22,436.56,404.69,437,405.76Z" transform="translate(-158.04 -252.4)"/><path id="Path_385" data-name="Path 385" class="cls-2" d="M420.72,387.5a11,11,0,0,0-.92-1.31,28.18,28.18,0,0,1-2.22-2.66,3,3,0,0,1-.08-3.26,3.75,3.75,0,0,1,1.91-1.11,13.56,13.56,0,0,1,7.26-.12c2.27.6,4.29,1.55,6.55.68s3.7-.48,5.92.31c2.42.88,5.68,1.08,7.86,2.3a7,7,0,0,1,2.23,2.19,9.72,9.72,0,0,1,0,10.28,13.93,13.93,0,0,1-1.51,1.91c-1.15,1.23-2.5,2.78-4.09,3.21,0-1.39,1.23-5.83.16-7-1.71-1.83-5.6-1.2-7.7-.76-2.3.48-4.37,2.15-6.67,2.5a8.56,8.56,0,0,1-5.17-1.43C422.54,392.26,421.71,389.17,420.72,387.5Z" transform="translate(-158.04 -252.4)"/></g><path id="Path_386" data-name="Path 386" class="cls-9" d="M449.07,406.48l9,7.86,10,21.13-12.67,15.09-2.18-8.46Z" transform="translate(-158.04 -252.4)"/></g><g id="Group_29" data-name="Group 29"><path id="Path_387" data-name="Path 387" class="cls-10" d="M390.74,412.52l-4.45-2.86,1.15-2,3.49,1.31.08-1.2,3.54,2.94-.92,2.23Z" transform="translate(-158.04 -252.4)"/><path id="Path_388" data-name="Path 388" class="cls-9" d="M432.63,404.41,409.28,414l-14.73-3.25-1.43,2.82,13.42,9.89,18.5-2.19Z" transform="translate(-158.04 -252.4)"/></g></g><g id="Group_33" data-name="Group 33"><g id="Group_31" data-name="Group 31"><path id="Path_389" data-name="Path 389" class="cls-3" d="M359.36,531.21l-.11,2.46,4.72,2.66,2.58-2.3-2.3-2.54-4.76-2.7Z" transform="translate(-158.04 -252.4)"/><path id="Path_390" data-name="Path 390" class="cls-11" d="M355.47,457.11l-.4,7.43,8.26,32.64-4.21,33.23,4.8,1.23,13.3-39.94.24-12-3.3-24.7Z" transform="translate(-158.04 -252.4)"/></g><g id="Group_32" data-name="Group 32"><path id="Path_391" data-name="Path 391" class="cls-11" d="M391.93,456.43l3.69,31L394.07,528l-4.49.48-6.79-36.62-10.12-36.21Z" transform="translate(-158.04 -252.4)"/><path id="Path_392" data-name="Path 392" class="cls-3" d="M389.82,530.41l5.12,1.91,2.15-2.7-2.7-2.15-4.85.52Z" transform="translate(-158.04 -252.4)"/></g></g><g id="Group_34" data-name="Group 34"><path id="Path_393" data-name="Path 393" class="cls-12" d="M393.75,451.17c-4.65-9.41-6.47-19.77-8.9-29.94a27,27,0,0,0-3.13-8.65,10.58,10.58,0,0,0-7.51-4.85c-3.73-.63-7.94,0-11.67.32-2.27,7.07-3.74,3.06-6.4,10-.55,1.43-2.1,13.86-2.7,15.28h0s-6.11,19.1-4.13,34.23c0,.16,0,.28,0,.44.4.08.76.12,1.12.2a77.4,77.4,0,0,0,16,1.59A63.29,63.29,0,0,0,380.64,468c6.36-1.55,13.86-.91,19.06-5.12C398.2,459.79,395.26,454.27,393.75,451.17Z" transform="translate(-158.04 -252.4)"/></g><g id="Group_35" data-name="Group 35"><path id="Path_394" data-name="Path 394" class="cls-12" d="M339.15,410.13l5.2-28.27,4.45.83L349,404Z" transform="translate(-158.04 -252.4)"/></g><path id="Path_395" data-name="Path 395" class="cls-12" d="M339.16,410.15,365,427l-3.69-17.23-15.85-7.27Z" transform="translate(-158.04 -252.4)"/><g id="Group_37" data-name="Group 37"><path id="Path_396" data-name="Path 396" class="cls-5" d="M372.65,395.68c-3.33-5-12-4.76-12.11,2.19a13.38,13.38,0,0,0,1.12,6.11,6.65,6.65,0,0,0,4.72,3.77h0c.08.52.12,1.08.2,1.59a.47.47,0,0,0,.12.32.62.62,0,0,0,.4.08l1.91-.24a2.46,2.46,0,0,0,.91-.24,1.76,1.76,0,0,0,.48-1.9l-.12-.48C373.61,404.62,374.84,399,372.65,395.68Z" transform="translate(-158.04 -252.4)"/><g id="Group_36" data-name="Group 36"><path id="Path_397" data-name="Path 397" class="cls-2" d="M358.92,389.73c-1.51.35-2.19,2.22-3.22,3.45a37,37,0,0,1-3,2.62,3.68,3.68,0,0,0-1.15,3.77,6.27,6.27,0,0,0-4.09.48c-1.19.76-1.79,2.78-.79,3.85s2.5.64,3.45,1.59c1.47,1.47.44,5,2.34,5.68.48.16,1,0,1.43.2a3.55,3.55,0,0,1,1.35,1.23,6,6,0,0,0,7.39,1.51,7.16,7.16,0,0,0,1.79-5.24c-.16-2.35-1.55-2.62-2.5-4.49a9.18,9.18,0,0,1-.56-6.75,5.81,5.81,0,0,1,2.58-3.46c.52-.27.52.24,1-.4a2.8,2.8,0,0,0,.24-1.43C363.24,391.71,360.9,389.29,358.92,389.73Z" transform="translate(-158.04 -252.4)"/><path id="Path_398" data-name="Path 398" class="cls-2" d="M375.12,386.43a17.7,17.7,0,0,1,2.42-.4c1.23,0,1.59,1.15,2.26,2a6.64,6.64,0,0,0,5.16,3.37,2.78,2.78,0,0,1,2,1.51c.28.79,0,1.71.28,2.5a12.41,12.41,0,0,1,.91,3.06,3.76,3.76,0,0,1-.2,2,2.75,2.75,0,0,1-2.06,1.27,5.11,5.11,0,0,0-2.3.8c-1.39,1.19-.48,2.7-.36,4.25a4.21,4.21,0,0,1-3.91,4.48h0a4.64,4.64,0,0,1-4.09-3.3c-.32-.91-.28-1.9-.64-2.82s-1.27-1.9-.75-2.9c.12-.23.36-.43.44-.67a1.42,1.42,0,0,0,0-.68,2.75,2.75,0,0,0-1.24-1.9,6,6,0,0,1-1.39-.8,4.39,4.39,0,0,1-.71-1.78,3.86,3.86,0,0,0-3.3-2.7,10.64,10.64,0,0,1-2.7-.28c-.16,0-2.3-.83-2.22-.52a4.23,4.23,0,0,1,.11-1.7,6.36,6.36,0,0,1,1.12-2.5c1.82-2.27,3.17.83,4.88-.32.4-.28.6-.84.91-1.23a3,3,0,0,1,2.54-1C373.25,386.27,374.2,386.51,375.12,386.43Z" transform="translate(-158.04 -252.4)"/></g></g><g id="Group_39" data-name="Group 39"><g id="Group_38" data-name="Group 38"><path id="Path_399" data-name="Path 399" class="cls-12" d="M381.7,423.65c.47,2.14,2.26,4.21,3.81,6.43,1.82,2.62,3.69,5.28,5.52,7.9l-6,19,3.73,1.27,10.8-18.94c0-7.54-6.75-11.43-8.54-15.68-.91-2.23-8-9.06-9.33-11-1.95-2.94.72,2-1.67,4.45C378.08,419,381.3,421.94,381.7,423.65Z" transform="translate(-158.04 -252.4)"/></g><path id="Path_400" data-name="Path 400" class="cls-5" d="M387.77,459.38l-.79,1-1.79-.43-1.51,1-.36-1,2.62-2.74,2,.68Z" transform="translate(-158.04 -252.4)"/></g><path id="Path_401" data-name="Path 401" class="cls-5" d="M345.35,380.37l1.95-3.21,1,2.26,1.15-.75.4,1.27-1.43,2.7-3-.6Z" transform="translate(-158.04 -252.4)"/><g id="Group_43" data-name="Group 43"><path id="Path_402" data-name="Path 402" class="cls-3" d="M301.28,526.28l5,2.7-.44,2.35L297,530.09l.48-3.33Z" transform="translate(-158.04 -252.4)"/><path id="Path_403" data-name="Path 403" class="cls-3" d="M278.93,528.83l-3.46,0-.83,2.9.08,0h0l5.71,3.3,2.7.27.32-3.1-.75-.55Z" transform="translate(-158.04 -252.4)"/><path id="Path_404" data-name="Path 404" class="cls-12" d="M289.53,473.91c.55,0,2.06,19.73,2.06,19.73l-10.72,36-6.19-1.23,3.77-35.94s-13.07-15.09-9.29-26.33C274.84,468.94,289.53,473.91,289.53,473.91Z" transform="translate(-158.04 -252.4)"/><path id="Path_405" data-name="Path 405" class="cls-12" d="M305,474.1l1.23,17.68-3.42,35.1-6.35-.32s-1.55-33.28-2.15-33.95-6-18.15-6-18.15Z" transform="translate(-158.04 -252.4)"/><g id="Group_40" data-name="Group 40"><path id="Path_406" data-name="Path 406" class="cls-13" d="M296.6,482.17c-20.21-.36-21.68-10.57-26.13-11.68s-2.14-6.39-2.14-6.39.83-2.35,1.19-3.62c2.58-8.89,10.36-20.29,10.36-20.29,3.85-5.24,7.7-9.89,11-12.67a37.21,37.21,0,0,1,20.49-8.7c15.29,4.77,9.89,12,10,13.87-5,4.6-8.66,11.51-11.36,18.9a44.16,44.16,0,0,0-1.71,18.94c.32,2.62.72,4.92,1.11,6.91C309.66,480,307.16,482.32,296.6,482.17Z" transform="translate(-158.04 -252.4)"/><path id="Path_407" data-name="Path 407" class="cls-8" d="M311.53,420.42s3.41-1.87,5.52,1.39c2.54,3.93-11.88,21.68-11.56,59.56-3.77.76-13.54,2.58-23.58-2.14C284.17,468,294,434,311.53,420.42Z" transform="translate(-158.04 -252.4)"/></g><path id="Path_408" data-name="Path 408" class="cls-14" d="M325.54,476.21l4,3.69,1.63-1.63L329,475.14l1.12-.4-3.74-2.7-1.94,1.43Z" transform="translate(-158.04 -252.4)"/><path id="Path_409" data-name="Path 409" class="cls-13" d="M321.5,425.74l1.39,3.22-1.31,23.51s6.94,20.13,6.79,20.13-4.69,1.51-4.69,1.51l-10.17-20.34V441.34Z" transform="translate(-158.04 -252.4)"/><g id="Group_41" data-name="Group 41"><path id="Path_410" data-name="Path 410" class="cls-2" d="M319,408.42c1.71,1.35,3.18,4.17,2.62,6.4-.27,1.07-1.07,1.78-1.31,3-.51,2.3-4.48,4-2.82,6.63.88,1.35,2.55,1.94,4.09,2.42a1.77,1.77,0,0,0,.6.08.91.91,0,0,0,.6-.72,3.35,3.35,0,0,0,0-.95c-.35-3.37,1.91-6.71,2.78-9.89s.8-6.79-1.39-9.41c-1.86.16-2.62-.2-3.81,1.27Z" transform="translate(-158.04 -252.4)"/><path id="Path_411" data-name="Path 411" class="cls-10" d="M315,421.85a7,7,0,0,0,5.8-2.78A14.35,14.35,0,0,0,323.4,413c1.55-7.26-7.38-9.61-12.07-5.16C307.28,411.68,308.51,421.37,315,421.85Z" transform="translate(-158.04 -252.4)"/><path id="Path_412" data-name="Path 412" class="cls-2" d="M303.9,420.5a5.93,5.93,0,0,0,3.42-1c1.7-1.23,2.74-4,3.77-5.8s2.38-3.85,4.41-4.56a5,5,0,0,1,3.77.35c.87.36.75.68,1.67.52a3.72,3.72,0,0,0,2-1.55,4,4,0,0,0,.36-3.3,5.38,5.38,0,0,0-3.1-3.53c-5.52-2.47-11.08-.92-14.93,3.85-1.87,2.3-2.5,5.44-4.37,7.62-1.15,1.35-2.58,1.95-3.69,3.46-2.86,3.85-7.51,8.34-9.22,12.86a.63.63,0,0,0,0,.52c.16.32.64.2,1,0,1.9-1,3.77-1.91,5.68-2.82a8.31,8.31,0,0,0,2.1-1.31c1.5-1.39,2.06-3.81,3.89-4.72A9.09,9.09,0,0,1,303.9,420.5Z" transform="translate(-158.04 -252.4)"/></g><g id="Group_42" data-name="Group 42"><path id="Path_413" data-name="Path 413" class="cls-13" d="M296.16,430.07l-15.25-3.58-4.05-20.29,5.05.48,3.89,13.22,19.77.56,1.11,1.51Z" transform="translate(-158.04 -252.4)"/></g></g><path id="Path_414" data-name="Path 414" class="cls-14" d="M281.1,406.45l-.52-5.32-3.77-2.86-.24,1.55,1.31,1.31a4.73,4.73,0,0,0,1.27,2.34,21.1,21.1,0,0,1-.83,2.78Z" transform="translate(-158.04 -252.4)"/><g id="Group_44" data-name="Group 44"><path id="Path_415" data-name="Path 415" class="cls-15" d="M536,424.22l-46.34-46.34a10,10,0,0,0-14.1,0h0l-46.34,46.34a10,10,0,0,0,0,14.1h0l46.34,46.34a10,10,0,0,0,14.1,0h0L536,438.32a9.9,9.9,0,0,0,.1-14A.94.94,0,0,0,536,424.22Z" transform="translate(-158.04 -252.4)"/><path id="Path_416" data-name="Path 416" class="cls-2" d="M504.25,435.14V418.7a21.64,21.64,0,0,0-43.28,0v37.92h10.6V418.7a11,11,0,0,1,22.08,0v16.44H482.29l16.64,21.48,16.64-21.48Z" transform="translate(-158.04 -252.4)"/></g><g id="Group_45" data-name="Group 45"><path id="Path_417" data-name="Path 417" class="cls-6" d="M362.92,443.21a40.45,40.45,0,1,0,11.87,28.63A40.46,40.46,0,0,0,362.92,443.21Z" transform="translate(-158.04 -252.4)"/><circle id="Ellipse_2" data-name="Ellipse 2" class="cls-7" cx="176.2" cy="219.46" r="37.64"/><rect id="Rectangle_565" data-name="Rectangle 565" class="cls-8" x="147.54" y="213.56" width="57.42" height="11.83"/></g><path id="Path_418" data-name="Path 418" class="cls-5" d="M261.58,368.56l1.31-6.32-2.54-2.3-1.91,2.27-.56,2.58-1.62.32.79,4.4Z" transform="translate(-158.04 -252.4)"/><path id="Path_419" data-name="Path 419" class="cls-4" d="M242,405.68l11.51-8.18,3.5-28,4.52-1-.2,29.07-3.17,6.59L244.64,416.6Z" transform="translate(-158.04 -252.4)"/><g id="Group_46" data-name="Group 46"><circle id="Ellipse_3" data-name="Ellipse 3" class="cls-2" cx="44.06" cy="186.24" r="30.14"/><path id="Path_420" data-name="Path 420" class="cls-8" d="M217.86,433.07,203.4,421.88v7.34h-4a13,13,0,0,0-13,13v13.1h7.7v-13.1a5.32,5.32,0,0,1,5.32-5.32h4v7.34Z" transform="translate(-158.04 -252.4)"/></g><g id="Group_48" data-name="Group 48"><path id="Path_421" data-name="Path 421" class="cls-15" d="M289.26,369.9l-44.52-80.13a5.4,5.4,0,0,0-9.37-.16l-47.13,78.62a5.39,5.39,0,0,0,4.52,8.18l91.65,1.51a5.4,5.4,0,0,0,5.53-5.27A5.5,5.5,0,0,0,289.26,369.9Z" transform="translate(-158.04 -252.4)"/><g id="Group_47" data-name="Group 47"><path id="Path_422" data-name="Path 422" class="cls-2" d="M235.73,350.4l-2.94-35.34,13.62.28-4,35.14Zm-2.7,4.93,11.88.2-.2,11.75-11.88-.2Z" transform="translate(-158.04 -252.4)"/></g></g></g></g></g></svg>