<svg id="Layer_1" data-name="Layer 1" xmlns="http://www.w3.org/2000/svg" viewBox="0 0 37.4 30"><defs><style>.cls-1{fill:#fff;}.cls-2{fill:#fb4b09;}.cls-3{fill:none;stroke:#356969;stroke-linejoin:round;}</style></defs><title>10</title><g id="Group_204" data-name="Group 204"><path id="comments-solid" class="cls-1" d="M27,10.71C27,4.8,21,0,13.49,0S0,4.8,0,10.71a9.29,9.29,0,0,0,2.46,6.17A14.86,14.86,0,0,1,.1,20.53a.56.56,0,0,0-.1.58.53.53,0,0,0,.48.32,11,11,0,0,0,5.74-1.68,15.93,15.93,0,0,0,7.2,1.68C20.9,21.43,27,16.6,27,10.71Zm7.9,14.74a9.26,9.26,0,0,0,2.46-6.16c0-4.48-3.46-8.32-8.37-9.92A9.94,9.94,0,0,1,29,10.71c0,7.1-7,12.86-15.54,12.86a19,19,0,0,1-2-.13C13.49,27.3,18.32,30,23.9,30a16.05,16.05,0,0,0,7.2-1.67A11.15,11.15,0,0,0,36.85,30a.51.51,0,0,0,.47-.32.56.56,0,0,0-.1-.58,15.12,15.12,0,0,1-2.31-3.65Z" transform="translate(0.04)"/><g id="Ellipse_18" data-name="Ellipse 18"><circle class="cls-2" cx="28.09" cy="11.35" r="8.2"/><circle class="cls-3" cx="28.09" cy="11.35" r="7.98"/></g></g></svg>