<svg id="Layer_1" data-name="Layer 1" xmlns="http://www.w3.org/2000/svg" viewBox="0 0 37.29 30"><defs><style>.cls-1{fill:#fff;}</style></defs><title>11</title><g id="Group_204" data-name="Group 204"><path id="comments-solid" class="cls-1" d="M692,380.11c0-5.91-6-10.71-13.47-10.71S665,374.2,665,380.11a9.29,9.29,0,0,0,2.46,6.17,14.86,14.86,0,0,1-2.32,3.65.55.55,0,0,0-.1.58.53.53,0,0,0,.48.32,11,11,0,0,0,5.74-1.68,15.93,15.93,0,0,0,7.2,1.68C685.94,390.83,692,386,692,380.11Zm7.9,14.74a9.28,9.28,0,0,0,2.46-6.16c0-4.48-3.46-8.32-8.37-9.92a9.94,9.94,0,0,1,.08,1.34c0,7.1-7,12.86-15.54,12.86a17.63,17.63,0,0,1-2-.13c2,3.86,6.83,6.56,12.41,6.56a16,16,0,0,0,7.2-1.67,11.15,11.15,0,0,0,5.75,1.67.51.51,0,0,0,.47-.32.55.55,0,0,0-.1-.58,15.12,15.12,0,0,1-2.31-3.65Z" transform="translate(-665.04 -369.4)"/></g></svg>