<?xml version="1.0" encoding="utf-8"?>
<!-- Generator: Adobe Illustrator 22.1.0, SVG Export Plug-In . SVG Version: 6.00 Build 0)  -->
<svg version="1.1" id="Layer_1_1_" xmlns="http://www.w3.org/2000/svg" xmlns:xlink="http://www.w3.org/1999/xlink" x="0px" y="0px"
	 viewBox="0 0 600 400" style="enable-background:new 0 0 600 400;" xml:space="preserve">
<style type="text/css">
	.st0{display:none;fill:#B9EAFF;}
	.st1{opacity:0.1;fill:#001415;}
	.st2{fill:#454545;}
	.st3{fill:#707070;}
	.st4{fill:#818181;}
	.st5{fill:#066C7F;}
	.st6{fill:#293237;}
	.st7{fill:url(#XMLID_46_);}
	.st8{fill:#414C5C;}
	.st9{fill:#A1A1A1;}
	.st10{fill:url(#XMLID_47_);}
	.st11{fill:#D3D3D3;}
	.st12{fill:#B6B6B6;}
	.st13{fill:url(#XMLID_48_);}
	.st14{fill:url(#XMLID_49_);}
	.st15{fill:#40A6BA;}
	.st16{fill:#6EDAE0;}
	.st17{fill:#479FB4;}
	.st18{fill:#2E8989;}
	.st19{fill:#546672;}
	.st20{fill:#409E4E;}
	.st21{fill:#529BA3;}
	.st22{fill:#141E25;}
	.st23{fill:#9CB7D2;}
	.st24{fill:#E08A35;}
	.st25{fill:#768A99;}
	.st26{fill:#C4C4C4;}
	.st27{fill:#BED5DF;}
	.st28{fill:#12181D;}
	.st29{fill:#EFEC82;}
	.st30{fill:#D3A944;}
	.st31{fill:#7AF2F2;}
	.st32{fill:#88D5DE;}
	.st33{fill:#3D7D87;}
	.st34{fill:#69BBB8;}
	.st35{fill:#3E2F37;}
	.st36{fill:#95C9B1;}
	.st37{fill:#E06E18;}
	.st38{fill:#E0AB35;}
	.st39{fill:#5B949C;}
	.st40{fill:#2B8394;}
	.st41{fill:url(#SVGID_1_);}
	.st42{fill:#F25555;}
	.st43{fill:#CC2929;}
	.st44{fill:#FF6363;}
	.st45{fill:#B50000;}
	.st46{fill:#FF6969;}
	.st47{fill:url(#SVGID_2_);}
	.st48{fill:#DBDBDB;}
	.st49{fill:#CC292A;}
	.st50{fill:url(#SVGID_3_);}
	.st51{fill:url(#XMLID_50_);}
	.st52{fill:#E8F788;}
	.st53{fill:#FFCB57;}
	.st54{fill:#E1F750;}
	.st55{fill:#FFE9CC;}
	.st56{fill:url(#SVGID_4_);}
	.st57{fill:url(#SVGID_5_);}
	.st58{fill:url(#SVGID_6_);}
	.st59{fill:url(#XMLID_51_);}
	.st60{fill:url(#SVGID_7_);}
	.st61{fill:url(#SVGID_8_);}
	.st62{fill:url(#SVGID_9_);}
	.st63{fill:url(#XMLID_52_);}
	.st64{fill:url(#SVGID_10_);}
	.st65{fill:url(#SVGID_11_);}
	.st66{fill:url(#SVGID_12_);}
	.st67{fill:url(#XMLID_53_);}
</style>
<rect id="XMLID_11541_" x="0" class="st0" width="600" height="400"/>
<polygon id="XMLID_237_" class="st1" points="339.1,106.4 50.2,271.7 261.1,392.9 549.8,227.2 "/>
<g id="XMLID_422_">
	<polygon id="XMLID_296_" class="st2" points="549.8,193.3 549.8,184.6 261.1,350.3 261.1,359.5 	"/>
	<polygon id="XMLID_295_" class="st3" points="261.1,350.3 50.2,229.1 50.2,238.1 261.1,359.5 	"/>
	<polygon id="XMLID_294_" class="st4" points="339.1,63.8 50.2,229.1 261.1,350.3 549.8,184.6 	"/>
</g>
<g id="XMLID_297_">
	<path id="XMLID_234_" class="st5" d="M260.5,168.3c0,0,3.9-4.7-1-12c-4.2-6.2-7.3-4.1-7.3-4.1s-4.8,3.3-1.7,9.1
		c2,3.7,3.9,8.7,5.3,8.7c1.4,0,2.1,4.5,2.1,4.5l3.9-4.1L260.5,168.3z"/>
	<polygon id="XMLID_233_" class="st6" points="320.7,268 293.7,253 326.3,239.4 	"/>
	<polygon id="XMLID_232_" class="st6" points="463.1,186.3 436.1,171.4 468.6,157.8 	"/>
	<g id="XMLID_409_">
		
			<linearGradient id="XMLID_46_" gradientUnits="userSpaceOnUse" x1="-33.3443" y1="426.4674" x2="8.7623" y2="426.4674" gradientTransform="matrix(0.5 -0.866 -0.866 -0.5 669.9147 471.5669)">
			<stop  offset="0.1613" style="stop-color:#2A3338"/>
			<stop  offset="0.1633" style="stop-color:#3C4851"/>
			<stop  offset="0.5593" style="stop-color:#3C4851"/>
			<stop  offset="0.5622" style="stop-color:#556773"/>
			<stop  offset="0.8728" style="stop-color:#556773"/>
			<stop  offset="0.8739" style="stop-color:#51626E"/>
		</linearGradient>
		<path id="XMLID_231_" class="st7" d="M314.4,256.2l-4.7,7.7h0l-11.6,18.9l0,0l-5.7,9.3l-7.6-4.4c-0.1,0-0.1-0.1-0.2-0.1l-0.2-0.1
			l0,0c-1.7-1.1-2.9-2.9-3.5-5.2c-0.1-0.3-0.1-0.5-0.2-0.8c0-0.2-0.1-0.4-0.1-0.5c0-0.3-0.1-0.6-0.1-0.9c0-0.2,0-0.3,0-0.5
			c0-0.5-0.1-1,0-1.5c0.1-9.4,7-20.8,15.3-25.5c0.5-0.3,0.9-0.5,1.4-0.7c3.6-1.6,6.8-1.7,9.2-0.3l0,0L314.4,256.2z"/>
		<path id="XMLID_230_" class="st8" d="M318.4,265.6c-0.1,9.4-7,20.8-15.3,25.5c-8.3,4.7-15,0.8-14.9-8.6c0.1-9.4,7-20.8,15.3-25.5
			C311.8,252.4,318.5,256.2,318.4,265.6z"/>
		<path id="XMLID_229_" class="st9" d="M314,268.1c0,0.9-0.1,1.8-0.3,2.7c-0.5,2.8-1.7,5.6-3.3,8.2c-1,1.6-2.2,3.1-3.5,4.4
			c-1.2,1.1-2.4,2.1-3.7,2.8c-1,0.6-2,1-3,1.2c-1.7,0.4-3.2,0.2-4.4-0.4c0,0-0.1,0-0.1-0.1c-0.5-0.2-0.9-0.6-1.2-1
			c-0.3-0.3-0.5-0.6-0.7-1c-0.1-0.2-0.2-0.3-0.3-0.5c-0.2-0.4-0.3-0.8-0.5-1.2c0-0.1-0.1-0.2-0.1-0.4c-0.1-0.4-0.2-0.8-0.2-1.3
			c-0.1-0.5-0.1-1-0.1-1.5c0-0.2,0-0.3,0-0.5c0-0.6,0.1-1.3,0.2-1.9c0.1-0.5,0.2-1.1,0.4-1.6c0.2-0.8,0.5-1.6,0.8-2.4
			c0.4-1.2,1-2.3,1.6-3.4c0,0,0,0,0,0c0.2-0.3,0.3-0.6,0.5-0.8c0.8-1.3,1.8-2.6,2.9-3.7c0,0,0,0,0,0c0.2-0.2,0.4-0.4,0.6-0.7
			c0.9-0.9,1.8-1.6,2.7-2.3c0.4-0.3,0.7-0.5,1.1-0.7c0.3-0.2,0.7-0.4,1-0.5c0.4-0.2,0.8-0.3,1.2-0.5c0.3-0.1,0.6-0.2,0.8-0.2
			c0.4-0.1,0.8-0.2,1.2-0.2c0.6,0,1.1,0,1.6,0.1c0.6,0.1,1.1,0.3,1.5,0.5c1.5,0.8,2.5,2.3,2.9,4.3C313.9,266.3,314,267.2,314,268.1z
			"/>
		<path id="XMLID_228_" class="st6" d="M306,264.2c0,0.9-0.1,1.8-0.3,2.7c-0.5,2.8-1.7,5.6-3.3,8.2c-1,1.6-2.2,3.1-3.5,4.4
			c-1.2,1.1-2.4,2.1-3.7,2.8c-0.7,0.4-1.5,0.7-2.2,1c0-0.1-0.2-0.9-0.2-1c-0.1-0.4,0-0.2-0.1-0.7c-0.1-0.5-0.1-1-0.1-1.5
			c0-0.8,0.1-1.6,0.2-2.4c0.1-0.5,0.2-1.1,0.4-1.6c0.5-2,1.3-4,2.4-5.8c0.2-0.3,0.3-0.6,0.5-0.8c0.8-1.3,1.8-2.6,2.9-3.8
			c0.2-0.2,0.4-0.4,0.6-0.7c1.2-1.2,2.5-2.2,3.9-3c0.3-0.2,0.7-0.4,1-0.5c0.4-0.2,0.8-0.3,1.2-0.5c0.1,0.2,0.1,0.4,0.2,0.6
			C305.9,262.4,306,263.3,306,264.2z"/>
		<linearGradient id="XMLID_47_" gradientUnits="userSpaceOnUse" x1="299.0063" y1="288.8322" x2="313.9056" y2="263.026">
			<stop  offset="0.1613" style="stop-color:#CCCCCC"/>
			<stop  offset="0.1633" style="stop-color:#E3E3E3"/>
			<stop  offset="0.5593" style="stop-color:#E3E3E3"/>
			<stop  offset="0.5622" style="stop-color:#CCCCCC"/>
			<stop  offset="0.8728" style="stop-color:#CCCCCC"/>
			<stop  offset="0.8739" style="stop-color:#B7B7B7"/>
		</linearGradient>
		<path id="XMLID_227_" class="st10" d="M310.2,260.9c1.4,1.2,2.3,3.4,2.2,6.2c-0.1,6.7-4.9,14.8-10.9,18.1
			c-2.6,1.4-4.9,1.7-6.7,1.1c1.9,1.7,4.9,1.8,8.3-0.1c5.9-3.3,10.8-11.4,10.9-18.1C314,264.3,312.5,261.8,310.2,260.9z"/>
		<path id="XMLID_226_" class="st9" d="M311.1,268.9l-6.7,3.9l3.1,9.9c-0.2,0.5-2-0.6-2-0.6l-4.6-4.9l-3.4,8.2
			c-1.1,0.3-0.3,2-1.2,1.8c-1.3-0.4-2-1.5-2-1.5l2-8.3l-3.7,2.1c0-0.6,0.1-1.3,0.2-1.9c0.1-0.5,0.4-2.4,0.9-3.4l3.2-2.3l-1.1-2.1
			c0,0,0.1-0.2,0.3-0.4c0.8-1.3,1.8-2.6,2.9-3.7l1.4,1.8l2.6-5.2c0.4-0.3,0.1,0,0.5-0.3c0.3-0.2,0.7-0.4,1-0.5
			c0.4-0.2,0.8-0.3,1.2-0.5c0.3-0.1,0.6-0.2,0.8-0.2c0.4-0.1,0.8-0.2,1.2-0.2l-2.7,6.6l7.1-2.8c0,0,1.8,0.9,1.8,1.8
			C313.8,267.1,311.2,268,311.1,268.9z"/>
		<path id="XMLID_225_" class="st11" d="M313.8,270.1l-6.8,4.6l2.5,5.6c-1,1.6-0.8,1.3-2.2,2.6l-3.8-3.7l-3.9,8.4
			c-1.7,0.4-2.1,0.4-3.3-0.2l2.6-7.8l-6.1,3.1c-0.2-0.8-0.2-1.4-0.2-2.4c0-0.8,0-1.1,0.1-1.9l6.8-4.4l-2.9-5.2c1-1.6,1.1-1.7,2.4-3
			l4,3.8l4.2-8.7c1.5-0.2,1.7-0.3,3,0.3l-2.6,8.2l6.3-2.9c0.2,0.7,0.1,0.9,0.1,1.9C314,269,314,269.2,313.8,270.1z"/>
		<path id="XMLID_224_" class="st12" d="M305.6,272.8c0,1.5-1.1,3.2-2.4,4c-1.3,0.7-2.3,0.1-2.3-1.3c0-1.5,1.1-3.2,2.4-4
			C304.6,270.7,305.6,271.3,305.6,272.8z"/>
	</g>
	<g id="XMLID_400_">
		
			<linearGradient id="XMLID_48_" gradientUnits="userSpaceOnUse" x1="108.9886" y1="344.2758" x2="151.0952" y2="344.2758" gradientTransform="matrix(0.5 -0.866 -0.866 -0.5 669.9147 471.5669)">
			<stop  offset="0.1613" style="stop-color:#2A3338"/>
			<stop  offset="0.1633" style="stop-color:#3C4851"/>
			<stop  offset="0.5593" style="stop-color:#3C4851"/>
			<stop  offset="0.5622" style="stop-color:#556773"/>
			<stop  offset="0.8728" style="stop-color:#556773"/>
			<stop  offset="0.8739" style="stop-color:#51626E"/>
		</linearGradient>
		<path id="XMLID_223_" class="st13" d="M456.7,174l-4.7,7.7l0,0l-11.6,18.9l0,0l-5.7,9.3l-7.6-4.4c-0.1,0-0.1-0.1-0.2-0.1l-0.2-0.1
			l0,0c-1.7-1.1-2.9-2.9-3.5-5.2c-0.1-0.3-0.1-0.5-0.2-0.8c0-0.2-0.1-0.4-0.1-0.5c0-0.3-0.1-0.6-0.1-0.9c0-0.2,0-0.3,0-0.5
			c0-0.5-0.1-1,0-1.5c0.1-9.4,7-20.8,15.3-25.5c0.5-0.3,0.9-0.5,1.4-0.7c3.6-1.6,6.8-1.7,9.2-0.3l0,0L456.7,174z"/>
		<path id="XMLID_222_" class="st8" d="M460.7,183.5c-0.1,9.4-7,20.8-15.3,25.5c-8.3,4.7-15,0.8-14.9-8.6c0.1-9.4,7-20.8,15.3-25.5
			C454.2,170.2,460.8,174,460.7,183.5z"/>
		<path id="XMLID_221_" class="st9" d="M456.3,185.9c0,0.9-0.1,1.8-0.3,2.7c-0.5,2.8-1.7,5.6-3.3,8.2c-1,1.6-2.2,3.1-3.5,4.4
			c-1.2,1.1-2.4,2.1-3.7,2.8c-1,0.6-2,1-3,1.2c-1.7,0.4-3.2,0.2-4.4-0.4c0,0-0.1,0-0.1-0.1c-0.5-0.2-0.9-0.6-1.2-1
			c-0.3-0.3-0.5-0.6-0.7-1c-0.1-0.2-0.2-0.3-0.3-0.5c-0.2-0.4-0.3-0.8-0.5-1.2c0-0.1-0.1-0.2-0.1-0.4c-0.1-0.4-0.2-0.8-0.2-1.3
			c-0.1-0.5-0.1-1-0.1-1.5c0-0.2,0-0.3,0-0.5c0-0.6,0.1-1.3,0.2-1.9c0.1-0.5,0.2-1.1,0.4-1.6c0.2-0.8,0.5-1.6,0.8-2.4
			c0.4-1.2,1-2.3,1.6-3.4c0,0,0,0,0,0c0.2-0.3,0.3-0.6,0.5-0.8c0.8-1.3,1.8-2.6,2.9-3.7c0,0,0,0,0,0c0.2-0.2,0.4-0.4,0.6-0.7
			c0.9-0.9,1.8-1.6,2.7-2.3c0.4-0.3,0.7-0.5,1.1-0.7c0.3-0.2,0.7-0.4,1-0.5c0.4-0.2,0.8-0.3,1.2-0.5c0.3-0.1,0.6-0.2,0.8-0.2
			c0.4-0.1,0.8-0.2,1.2-0.2c0.6,0,1.1,0,1.6,0.1c0.6,0.1,1.1,0.3,1.5,0.5c1.5,0.8,2.5,2.3,2.9,4.3
			C456.2,184.2,456.3,185,456.3,185.9z"/>
		<path id="XMLID_220_" class="st6" d="M448.4,182c0,0.9-0.1,1.8-0.3,2.7c-0.5,2.8-1.7,5.6-3.3,8.2c-1,1.6-2.2,3.1-3.5,4.4
			c-1.2,1.1-2.4,2.1-3.7,2.8c-0.7,0.4-1.5,0.7-2.2,1c0-0.1-0.2-0.9-0.2-1c-0.1-0.4,0-0.2-0.1-0.7c-0.1-0.5-0.1-1-0.1-1.5
			c0-0.8,0.1-1.6,0.2-2.4c0.1-0.5,0.2-1.1,0.4-1.6c0.5-2,1.3-4,2.4-5.8c0.2-0.3,0.3-0.6,0.5-0.8c0.8-1.3,1.8-2.6,2.9-3.8
			c0.2-0.2,0.4-0.4,0.6-0.7c1.2-1.2,2.5-2.2,3.9-3c0.3-0.2,0.7-0.4,1-0.5c0.4-0.2,0.8-0.3,1.2-0.5c0.1,0.2,0.1,0.4,0.2,0.6
			C448.3,180.3,448.4,181.1,448.4,182z"/>
		<linearGradient id="XMLID_49_" gradientUnits="userSpaceOnUse" x1="441.3509" y1="206.6676" x2="456.2499" y2="180.8617">
			<stop  offset="0.1613" style="stop-color:#CCCCCC"/>
			<stop  offset="0.1633" style="stop-color:#E3E3E3"/>
			<stop  offset="0.5593" style="stop-color:#E3E3E3"/>
			<stop  offset="0.5622" style="stop-color:#CCCCCC"/>
			<stop  offset="0.8728" style="stop-color:#CCCCCC"/>
			<stop  offset="0.8739" style="stop-color:#B7B7B7"/>
		</linearGradient>
		<path id="XMLID_219_" class="st14" d="M452.5,178.8c1.4,1.2,2.3,3.4,2.2,6.2c-0.1,6.7-4.9,14.8-10.9,18.1
			c-2.6,1.4-4.9,1.7-6.7,1.1c1.9,1.7,4.9,1.8,8.3-0.1c5.9-3.3,10.8-11.4,10.9-18.1C456.4,182.2,454.9,179.7,452.5,178.8z"/>
		<path id="XMLID_218_" class="st9" d="M453.4,186.8l-6.7,3.9l3.1,9.9c-0.2,0.5-2-0.6-2-0.6l-4.6-4.9l-3.4,8.2
			c-1.1,0.3-0.3,2-1.2,1.8c-1.3-0.4-2-1.5-2-1.5l2-8.3l-3.7,2.1c0-0.6,0.1-1.3,0.2-1.9c0.1-0.5,0.4-2.4,0.9-3.4l3.2-2.3l-1.1-2.1
			c0,0,0.1-0.2,0.3-0.4c0.8-1.3,1.8-2.6,2.9-3.7l1.4,1.8l2.6-5.2c0.4-0.3,0.1,0,0.5-0.3c0.3-0.2,0.7-0.4,1-0.5
			c0.4-0.2,0.8-0.3,1.2-0.5c0.3-0.1,0.6-0.2,0.8-0.2c0.4-0.1,0.8-0.2,1.2-0.2l-2.7,6.6l7.1-2.8c0,0,1.8,0.9,1.8,1.8
			C456.2,185,453.6,185.8,453.4,186.8z"/>
		<path id="XMLID_217_" class="st11" d="M456.2,188l-6.8,4.6l2.5,5.6c-1,1.6-0.8,1.3-2.2,2.6l-3.8-3.7l-3.9,8.4
			c-1.7,0.4-2.1,0.4-3.3-0.2l2.6-7.8l-6.1,3.1c-0.2-0.8-0.2-1.4-0.2-2.4c0-0.8,0-1.1,0.1-1.9l6.8-4.4l-2.9-5.2c1-1.6,1.1-1.7,2.4-3
			l4,3.8l4.2-8.7c1.5-0.2,1.7-0.3,3,0.3l-2.6,8.2l6.3-2.9c0.2,0.7,0.1,0.9,0.1,1.9C456.3,186.8,456.4,187,456.2,188z"/>
		<path id="XMLID_216_" class="st12" d="M448,190.6c0,1.5-1.1,3.2-2.4,4c-1.3,0.7-2.3,0.1-2.3-1.3c0-1.5,1.1-3.2,2.4-4
			C446.9,188.5,448,189.1,448,190.6z"/>
	</g>
	<g id="XMLID_384_">
		<path id="XMLID_215_" class="st15" d="M470.1,153.9l0.1,8.2l-9,13.1c-0.5-0.7-1-1.3-1.5-1.9c-1-1-2.1-1.7-3.4-2.2
			c-1.2-0.5-2.5-0.7-3.9-0.7c-2.5,0-5.2,0.8-7.9,2.3c-4.7,2.6-8.9,7.1-11.9,12.2c-2.9,4.9-4.7,10.4-4.7,15.4c0,2.1,0.2,3.9,0.8,5.6
			l-108,62c0.1-0.8,0.2-1.6,0.2-2.3c0-4.3-1.1-7.8-3.5-10.1c-0.7-0.7-1.5-1.3-2.5-1.8c-1.4-0.8-3.1-1.1-4.8-1.1
			c-2.5,0-5.2,0.8-7.9,2.3c-5.1,2.9-9.7,7.9-12.7,13.7c-2.4,4.5-3.8,9.4-3.9,14c0,1.9,0.2,3.6,0.7,5.2v0l-3,1.6l-10.1-2.3l-6.5-9.2
			l3.4-2.2l-4.1-16.4l64.1-42.7c0,0,10.9-38,20.7-47.3c12.5-11.9,61.9-34.1,61.9-34.1l30.2,15.5l20.8-9.2l4.1,4.9L470.1,153.9z"/>
		<polygon id="XMLID_214_" class="st16" points="468,146.4 267.6,259.9 330.2,216.8 443,150.7 463.8,141.5 		"/>
		<path id="XMLID_213_" class="st17" d="M428,200.3c0,2.1,0.2,3.9,0.8,5.6l-108,62c0.1-0.8,0.2-1.6,0.2-2.3c0-4.3-1.1-7.8-3.5-10.1
			c-0.7-0.7-1.5-1.3-2.5-1.8l117.8-68.8C429.8,189.8,428,195.3,428,200.3z"/>
		<g id="XMLID_395_">
			<polygon id="XMLID_212_" class="st18" points="341.2,252.2 340.8,232.1 338.2,218.5 339.3,218.3 341.8,232 342.2,250.4 
				388.2,225.5 390.1,205.4 386.9,188 387,187.8 405,156.5 405.4,156.8 422.9,167.2 422.9,167.4 426.9,184.9 423,207.1 421.9,206.9 
				425.8,184.9 422,167.9 405.4,157.9 388,188.2 391.1,205.4 391.1,205.5 389.2,226.1 389,226.3 			"/>
		</g>
		<path id="XMLID_211_" class="st19" d="M320.7,261.9c0.1,0.7,0.2,1.5,0.1,2.3c0,0.8-0.1,1.6-0.2,2.3l108-62
			c-0.4-1.3-0.6-2.7-0.7-4.2L320.7,261.9z"/>
		<g id="XMLID_391_">
			<path id="XMLID_210_" class="st20" d="M320.9,261c0-3.8-0.9-6.9-2.7-9.2l-3.2,1.9c0.9,0.5,1.7,1.1,2.5,1.8c1.9,1.9,3,4.6,3.3,7.8
				C320.8,262.6,320.9,261.8,320.9,261z"/>
			<path id="XMLID_209_" class="st8" d="M320.7,263.4c0.1,0.7,0.2,1.5,0.1,2.3c0,0.8-0.1,1.6-0.2,2.3l108-62
				c-0.4-1.3-0.6-2.7-0.7-4.2L320.7,263.4z"/>
		</g>
		<path id="XMLID_208_" class="st8" d="M473.9,160.9v6.2l-2.1,6.4l-5.3,5.4l-2.3,6.7l-1.2,0.7c0.2-1,0.2-1.9,0.2-2.8
			c0-3.3-0.7-6.1-2-8.3c-0.5-0.7-1-1.3-1.5-1.9c-1-1-2.1-1.7-3.4-2.2l10.2-6l2.1-1.2L473.9,160.9z"/>
		<polygon id="XMLID_207_" class="st8" points="434.5,155.7 431.1,164.1 423.6,168.4 422.7,168.9 421.8,169.4 419.5,170.8 
			417.6,172 416.4,172.7 414.8,173.7 413.5,174.4 386.6,190.6 383.2,192.6 347,214.4 345.3,215.4 336.2,220.8 335.2,215 347,184.1 
			348.6,179.6 353.5,170.7 407.7,141 408.3,140.6 410.1,139.6 		"/>
		<polygon id="XMLID_206_" class="st21" points="409.1,141.9 429.8,158.4 429.1,163.5 337.3,218.4 336.8,215.3 354.6,171.8 		"/>
		<polygon id="XMLID_205_" class="st8" points="422.4,168.5 421.2,169.8 420.4,170.2 419.5,170.8 404.8,143.6 405.3,142.3 
			406,141.9 407.3,142.5 		"/>
		<polygon id="XMLID_204_" class="st8" points="388.7,188.7 385.3,190.7 376.4,159.5 379.9,157.8 		"/>
		<polygon id="XMLID_203_" class="st8" points="349.1,179.4 352,210.5 350.3,211.5 347,184.1 348.6,179.6 		"/>
	</g>
	<polygon id="XMLID_202_" class="st19" points="323.4,248.8 323.4,255.1 427.8,189.4 426.4,188.5 	"/>
	<polygon id="XMLID_201_" class="st8" points="324.9,249.6 324.9,256 427.8,195.7 427.8,189.4 	"/>
	<path id="XMLID_200_" class="st6" d="M200,235l-1.6-14.4l68.3,38.2l3.1,15.2C269.7,274.1,224.3,263,200,235z"/>
	<path id="XMLID_199_" class="st6" d="M269.1,271.8l-0.5-2.4c-5.4-1.9-39.7-14.6-68.1-38.4c-0.5-0.4-0.6-2.5-0.6-2.5l-0.3,0.3
		l0.1,2.1l0.2-0.2c0,0,0.1,2.1,0.6,2.5C229.9,257.9,265.8,270.6,269.1,271.8z"/>
	<path id="XMLID_198_" class="st6" d="M269.1,268.4l-0.5-2.4c-5.4-1.9-39.7-14.6-68.1-38.4c-0.5-0.4-0.6-2.5-0.6-2.5l-0.3,0.3
		l0.1,2.1l0.2-0.2c0,0,0.1,2.1,0.6,2.5C229.9,254.6,265.8,267.3,269.1,268.4z"/>
	<path id="XMLID_197_" class="st6" d="M269.1,265.1l-0.5-2.4c-5.4-1.9-39.7-14.6-68.1-38.4c-0.5-0.4-0.6-2.5-0.6-2.5l-0.3,0.3
		l0.1,2.1l0.2-0.2c0,0,0.1,2.1,0.6,2.5C229.9,251.2,265.8,263.9,269.1,265.1z"/>
	<path id="XMLID_196_" class="st19" d="M269.1,272.4l-0.5-2.4c-5.4-1.9-39.7-14.6-68.1-38.4c-0.5-0.4-0.6-2.5-0.6-2.5l-0.3,0.3
		l0.1,2.1l0.2-0.2c0,0,0.1,2.1,0.6,2.5C229.9,258.5,265.8,271.2,269.1,272.4z"/>
	<path id="XMLID_195_" class="st19" d="M269.1,269l-0.5-2.4c-5.4-1.9-39.7-14.6-68.1-38.4c-0.5-0.4-0.6-2.5-0.6-2.5l-0.3,0.3
		l0.1,2.1l0.2-0.2c0,0,0.1,2.1,0.6,2.5C229.9,255.2,265.8,267.9,269.1,269z"/>
	<path id="XMLID_194_" class="st19" d="M269.1,265.7l-0.5-2.4c-5.4-1.9-39.7-14.6-68.1-38.4c-0.5-0.4-0.6-2.5-0.6-2.5l-0.3,0.3
		l0.1,2.1l0.2-0.2c0,0,0.1,2.1,0.6,2.5C229.9,251.8,265.8,264.5,269.1,265.7z"/>
	<path id="XMLID_193_" class="st19" d="M268.6,259.9c-5.4-1.9-39.4-14.5-67.7-38.1c-0.3,0.4-0.5,0.9-0.7,1.4
		c0.1,0.3,0.2,0.5,0.3,0.6c29.4,24.8,65.2,37.4,68.6,38.6L268.6,259.9z"/>
	<polygon id="XMLID_192_" class="st22" points="203.4,253.6 272.6,293 273.2,287.1 204,247.6 	"/>
	<path id="XMLID_191_" class="st8" d="M285.7,282.5c0,1.9,0.2,3.6,0.7,5.2l-3.1,1.6l-10.6,3.6l0.6-6l-2.2-0.2
		c-2.1-0.2-4.2,1.4-6.2,0.5c-0.5-0.2-0.9-0.5-1.3-0.7l-64.3-36.5c-0.7-0.4-1.3-0.9-1.8-1.5c-0.7-0.9-1.1-2-1.2-3l-0.5-8.8l1.7,0.9
		l67.4,37.3l1.8,1v0.3l22.8-8.9v1C287.2,273.1,285.7,277.9,285.7,282.5z"/>
	<path id="XMLID_190_" class="st6" d="M264.9,275.1v12.3c-0.5-0.2-0.9-0.5-1.3-0.7c0,0-13.1-4.4-29.6-13.1c-5.3-2.8-11-6.1-16.7-9.8
		c-6.1-4-12.3-8.5-18-13.5c-0.6-0.5-1.3-0.9-1.8-1.5v-10.9L264.9,275.1z"/>
	<path id="XMLID_189_" class="st23" d="M267.5,261.4l-12.6-6c-0.9-0.4-2.1,0.4-2,1.4l0.4,4.6c0.1,1.6,1,2.9,2.5,3.5l10.7,4.9
		L267.5,261.4z"/>
	<path id="XMLID_188_" class="st23" d="M211.1,231.1l-9.6-7.5l0.7,10.3l9.3,7.3c0.8,0.6,2,0,1.9-1l-0.4-5.3
		C213,233.4,212.2,232,211.1,231.1z"/>
	<path id="XMLID_187_" class="st24" d="M202.2,224.2c0.3-0.8-3.3-2.9-3.3-2.9c-1.7,6.7,1,10.5,1,10.5l2.3,2.1
		C202.2,233.9,201.5,226,202.2,224.2z"/>
	<path id="XMLID_186_" class="st25" d="M229.6,245.2c0,1.7,1.3,3.8,2.8,4.7c1.5,0.9,2.8,0.2,2.7-1.6c0-1.7-1.3-3.8-2.8-4.7
		C230.8,242.8,229.6,243.5,229.6,245.2z"/>
	<path id="XMLID_185_" class="st26" d="M228.8,245.6c0,1.7,1.3,3.8,2.8,4.7c1.5,0.9,2.8,0.2,2.7-1.6c0-1.7-1.3-3.8-2.8-4.7
		C230,243.1,228.8,243.8,228.8,245.6z"/>
	<path id="XMLID_184_" class="st19" d="M287.5,266.5l2,1l-20.2,9.2c-1.6,0.7-3.5,0.5-5.1-0.3c0,0-50.7-20.2-67.6-38.3
		c-0.8-0.9-1.2-2.1-0.3-2.9l3.5-3.1c0,0,0.1,2.1,0.6,2.5c30.9,26,68.8,38.7,68.8,38.7L287.5,266.5z"/>
	<g id="XMLID_5503_">
		<path id="XMLID_5505_" class="st19" d="M253.6,274.9v1.7c0,0.8,0.4,1.4,1.1,1.7l7.5,2.9c0.6,0.2,1.4-0.3,1.4-1v-0.5l-6.3-2.4
			c-0.7-0.3-1.1-0.9-1.1-1.7v-1.3l-1.2-0.5C254.4,273.7,253.6,274.2,253.6,274.9z"/>
		<path id="XMLID_5504_" class="st27" d="M256.2,274.4v1.3c0,0.8,0.4,1.4,1.1,1.7l6.3,2.4v-1.2c0-0.8-0.4-1.4-1.1-1.7L256.2,274.4z"
			/>
	</g>
	<g id="XMLID_5500_">
		<path id="XMLID_5502_" class="st19" d="M198.8,242.3v1.3c0,0.7,0.3,1.3,0.7,1.7l4.5,3.8c0.4,0.3,0.8-0.1,0.8-0.7v-0.4l-3.7-3.2
			c-0.4-0.3-0.7-1-0.7-1.7v-0.9l-0.7-0.6C199.2,241.3,198.8,241.7,198.8,242.3z"/>
		<path id="XMLID_5501_" class="st27" d="M200.3,242.2v0.9c0,0.7,0.3,1.3,0.7,1.7l3.7,3.2v-0.8c0-0.7-0.3-1.3-0.7-1.7L200.3,242.2z"
			/>
	</g>
	<g id="XMLID_5506_">
		<path id="XMLID_183_" class="st28" d="M234,267.6v5.5c0,0.2,0,0.3-0.1,0.5c-5.3-2.8-11-6.1-16.7-9.8c-0.1-0.2-0.1-0.4-0.1-0.5
			v-5.5c0-1.1,0.8-1.5,1.8-0.9l13.3,7.8C233.2,265.1,234,266.5,234,267.6z"/>
		<path id="XMLID_5511_" class="st11" d="M218.9,265.1c-1-0.6-1.8-1.9-1.8-3l0-5.5c0-1.1,0.8-1.5,1.8-0.9l13.3,7.8
			c1,0.6,1.8,1.9,1.8,3l0,5.5c0,1.1-0.8,1.5-1.8,0.9L218.9,265.1z"/>
		<path id="XMLID_5510_" class="st29" d="M232.2,272.5l-13.3-7.8c-0.8-0.5-1.5-1.6-1.5-2.4l0-5.5c0-0.9,0.7-1.2,1.5-0.7l13.3,7.8
			c0.8,0.5,1.5,1.6,1.5,2.4l0,5.5C233.7,272.7,233,273,232.2,272.5z"/>
		<g id="XMLID_5507_">
			<path id="XMLID_5509_" class="st30" d="M233.7,266.2c0-0.9-0.7-1.9-1.5-2.4l-13.3-7.8c-0.8-0.5-1.4-0.1-1.5,0.7L233.7,266.2z"/>
			<path id="XMLID_5508_" class="st30" d="M217.5,262.3c0,0.9,0.7,1.9,1.5,2.4l13.3,7.8c0.8,0.5,1.4,0.1,1.5-0.7L217.5,262.3z"/>
		</g>
	</g>
	<path id="XMLID_182_" class="st31" d="M393,100.5l70.8,41l-20.8,9.2l-75.2-43.5l16.2-7.1C386.9,98.8,390.2,99,393,100.5z"/>
	<path id="XMLID_181_" class="st27" d="M267.5,261.4l-11.8-5.6l0.3,3.8c0.1,1.6,1,2.9,2.5,3.5l7.7,3.5L267.5,261.4z"/>
	<path id="XMLID_180_" class="st27" d="M213.1,234.9c-0.1-1.5-0.8-2.8-2-3.8l-6.6-5.1l0.3,4.7c0.1,1.4,0.8,2.6,1.8,3.5l6.7,5.3
		L213.1,234.9z"/>
	<path id="XMLID_179_" class="st8" d="M367.8,107.2c25.6,9,75.2,43.5,75.2,43.5l-30.2-15.5l-72.3-42.5
		C340.5,92.7,360.9,104.8,367.8,107.2z"/>
	<path id="XMLID_178_" class="st32" d="M412.5,134.1c-33-22-56-30.6-56-30.6c4.1,1.5,8.1,3.2,10.4,4c18.8,6.6,49.6,27,66.3,38.1
		C433.2,145.7,416.4,136.7,412.5,134.1z"/>
	<path id="XMLID_177_" class="st16" d="M200.1,221.7c29.2,22.5,67.5,38.3,67.5,38.3l62.6-43.3l-75.2-43.5l-56.3,47.5
		C198.7,220.6,198.7,220.6,200.1,221.7z"/>
	<path id="XMLID_176_" class="st8" d="M263.4,182.9c0,0,2.6,8.3,21.2,18.8c18.7,10.5,28.8,10.2,28.8,10.2l16.7,5l-74.3-43.7
		L263.4,182.9z"/>
	<path id="XMLID_175_" class="st8" d="M279.3,127.6c0,0,21.5,20.6,71.6,41.7c0,0-9.7,25.7-20.7,47.3c0,0-44.7-16.3-75.2-43.5
		C254.9,173.1,264.3,149,279.3,127.6z"/>
	<path id="XMLID_174_" class="st33" d="M349.1,169.8c-3.6,5.9-10.2,27.3-19.5,45.4c-6.6-2.5-45.7-18.2-73.2-42.4
		c1.8-3.8,10.6-25.1,23.1-43.6c0.6,0.5,1.4,1.2,2.5,2.1c3.4,2.7,13.8,10.3,22.3,15.8C315.7,154.4,327.2,160.4,349.1,169.8z"/>
	<path id="XMLID_173_" class="st34" d="M212.9,228.4l50.5-45.6c0,0-7.4-8.5-9.8-6.9c-26.9,18.2-49.9,42.4-49.9,42.4L212.9,228.4z"/>
	<path id="XMLID_172_" class="st31" d="M212.9,228.4l49.5-46.8l-7.5-8.5c-26.9,18.2-56.5,47.6-56.5,47.6L212.9,228.4z"/>
	<polygon id="XMLID_171_" class="st31" points="265.9,259.2 330.2,216.8 313.5,211.9 249.8,250.2 	"/>
	<g id="XMLID_325_">
		<path id="XMLID_5470_" class="st35" d="M302.8,215l-1.1,0.8c-0.6,0.4-1.8,0.4-2.6,0.1l-11.8-5.3c-1.5-0.7-1.6-1.8-0.2-2.4l1.1-0.5
			c0.6-0.3,1.6-0.3,2.3,0l11.7,5.1C303.5,213.4,303.8,214.4,302.8,215z"/>
		<g id="XMLID_326_">
			<polygon id="XMLID_170_" class="st16" points="297.6,215.6 298.5,215.9 303.7,213 302.9,212.6 			"/>
			<polygon id="XMLID_169_" class="st16" points="295.1,214.7 296,214.9 301.1,212 300.4,211.6 			"/>
			<polygon id="XMLID_168_" class="st16" points="292.5,213.7 293.5,214 298.6,211.1 297.8,210.7 			"/>
			<polygon id="XMLID_167_" class="st16" points="290,212.8 291,213 296.1,210.1 295.3,209.7 			"/>
			<polygon id="XMLID_166_" class="st16" points="287.7,211.7 288.6,212 293.7,209.1 293,208.7 			"/>
			<polygon id="XMLID_165_" class="st16" points="285.7,210.5 286.6,210.7 291.8,207.8 291,207.4 			"/>
		</g>
	</g>
	<g id="XMLID_316_">
		<path id="XMLID_2_" class="st35" d="M259.1,189.3l1.1-0.8c0.6-0.4,1.6-0.3,2.2,0.2l9.2,7.3c1.1,0.9,1.1,2.2-0.2,2.8l-1,0.5
			c-0.6,0.3-1.5,0.2-2-0.3l-9.1-7C258.3,191.1,258.2,189.9,259.1,189.3z"/>
		<g id="XMLID_317_">
			<polygon id="XMLID_164_" class="st16" points="263.7,189 262.9,188.6 258,191.6 258.6,192.2 			"/>
			<polygon id="XMLID_163_" class="st16" points="265.7,190.4 264.9,189.9 260,192.9 260.6,193.5 			"/>
			<polygon id="XMLID_162_" class="st16" points="267.7,191.7 266.9,191.3 262,194.3 262.6,194.8 			"/>
			<polygon id="XMLID_161_" class="st16" points="269.7,193 268.9,192.6 264,195.6 264.6,196.2 			"/>
			<polygon id="XMLID_33_" class="st16" points="271.5,194.5 270.7,194.1 265.8,197 266.4,197.6 			"/>
			<polygon id="XMLID_32_" class="st16" points="273,196.1 272.2,195.7 267.3,198.7 267.9,199.3 			"/>
		</g>
	</g>
	<g id="XMLID_313_">
		<polygon id="XMLID_31_" class="st36" points="277.6,137.8 262.8,169.7 263.3,172.8 277,164.7 		"/>
		<path id="XMLID_30_" class="st36" d="M304.3,147.1l-25.6,16.6l1-28.9l2.3-3.4C285.3,134,295.7,141.6,304.3,147.1z"/>
	</g>
	<path id="XMLID_29_" class="st31" d="M340.5,92.7c-2.9-1.1-61.2,34.9-61.2,34.9s23.8,22.3,71.6,41.7l61.9-34.1
		C412.8,135.2,366.3,102.8,340.5,92.7z"/>
	<polygon id="XMLID_28_" class="st19" points="473.9,160.9 470.1,156.5 469.9,159.6 453.8,169.5 456.3,171.1 	"/>
	<path id="XMLID_27_" class="st24" d="M468,146.4c-0.6,0.4-0.3,0.2-0.9,0.5c-0.5,0.3-0.9,1-1.1,1.5c-0.3,0.7-0.4,1.2-0.4,1.9
		c0,0.8,0,1.6,0,2.5c0,0.9,0,1.8,0,2.8c0,0.4,0,0.8,0,1.2c0,0.5,0.2,0.9,0.5,1.3c0.1,0.1,0.1,0.1,0.2,0.2c0.4,0.3,1-0.1,1.3-0.3
		c0.6-0.3,1.1-0.7,1.6-1.1c0.6-0.4,0.3-0.3,0.9-0.8v-2.3L468,146.4z"/>
	<polygon id="XMLID_26_" class="st6" points="324.9,249.6 324.9,256 323.4,255.1 323.4,248.8 	"/>
	<path id="XMLID_24_" class="st19" d="M289.5,268.6c0,0,7.9-11.7,14.5-14.6c6.6-2.8,11.8-0.6,13.4,1.5c1.6,2.1,3.5,4.4,3.4,8.4
		c-0.1,4.1-0.1,4.1-0.1,4.1l0.7-8.1c0,0-1.1-13-14.7-11.1c-13.5,1.9-21.1,18.5-21.1,18.5L289.5,268.6z"/>
	<path id="XMLID_23_" class="st8" d="M316.1,250.5c-1.9-0.8-4.3-1.1-7.3-0.7c-13.5,1.9-20.9,19.2-20.9,19.2l1.3,0.2
		c1.7-2.4,9.1-12.8,14.8-15.2c5.3-2.3,9.7-1.2,12.1,0.3c1.5,0.5,3.9,4.5,4.6,13.6l2.4-1.4C322.2,257.5,320,253.1,316.1,250.5z"/>
	<path id="XMLID_22_" class="st19" d="M456.7,171.3c0,0-8.7-1.4-13.9,2.5c-5.2,3.9-11.9,11.9-12.6,19.7l-2.1,8.2l-0.9-1
		c0,0,0.9-6.8,1.6-9.7c0.7-2.9,2.2-11.6,12.2-18.5c7-4.8,12.8-3,12.8-3L456.7,171.3z"/>
	<path id="XMLID_21_" class="st8" d="M428.8,205.9l1.3-0.9c0,0-0.8-6.8,1-13.2c1.8-6.5,6.9-13.8,12.8-16.8
		c5.9-2.9,10.3-3.4,12.8-2.1c2.5,1.3,5.4,3.6,6,6.2s1.8-1,1.8-1l-4.5-7l-3.3,0.1c0,0-5-1.2-10,0.4c-5,1.5-13.7,9.3-16.6,20.1
		c-2.3,8.5-2,9.9-2,9.9l-1.7,3.8L428.8,205.9z"/>
	<path id="XMLID_19_" class="st37" d="M315.8,238.4l-2.2,1.2c-0.6,0.3-1,1-1,1.7v0.8c0,0.7,0.8,1.2,1.5,0.8l2.2-1.2
		c0.6-0.3,1-1,1-1.7v-0.8C317.3,238.5,316.5,238,315.8,238.4z"/>
	<path id="XMLID_18_" class="st38" d="M316.2,238.7l-2.2,1.2c-0.6,0.3-1,1-1,1.7v0.8c0,0.7,0.8,1.2,1.5,0.8l2.2-1.2
		c0.6-0.3,1-1,1-1.7v-0.8C317.7,238.8,316.9,238.3,316.2,238.7z"/>
	<path id="XMLID_17_" class="st24" d="M266.6,260.9c0,0,0.9,0.4,0.9,0.4c0.1,0.1,0.9-0.5,1.1-0.5c1.3-0.3,1.5,1.2,1.8,2
		c0.3,1,1.1,1.7,1.4,2.7c0.3,0.9,0.8,3,0.1,4c-0.3,0.4-2.2,1.7-2.6,1.5c0,0-2.7-1.2-2.7-1.2S264.8,265,266.6,260.9z"/>
	<path id="XMLID_16_" class="st39" d="M270.1,170.8c-0.8,0.2-6.4,1.6-12.3-0.5c-0.7,1.1-1.2,2-1.5,2.5
		c27.5,24.2,66.6,39.8,73.2,42.4c1-1.9,3-5.8,4-7.7C319.2,198.7,300.8,188,270.1,170.8z"/>
	<path id="XMLID_15_" class="st40" d="M361.2,213.2c0,0,0.3,4.5-4.3,5.7c-0.8,0.2-1.7,0.3-2.7,0.3c-4.7-0.1-10.5,0.6-11.5-0.7
		c-1-1.3-5.5,0.2-5.5,0.2c-0.8-0.7-1.1-1.5-1.1-2.5c0-0.9,0.3-1.8,1.1-2.5l1-0.8l2.8,0.1c0,0,0.1-0.4,0.4-1.1
		c0.9-1.9,3.8-5.8,11.3-4.4C362.4,209.4,361.2,213.2,361.2,213.2z"/>
	<path id="XMLID_14_" class="st8" d="M386.1,199.8l-7.7,4.5l0,0c0-1.5-0.2-2.3,1.3-3.2c0,0,2.4-1.6,4.5-2.7
		C386.2,197.3,386.1,199.8,386.1,199.8z"/>
	<path id="XMLID_13_" class="st8" d="M421,178.8l-7.7,4.5l0,0c0-1.5-0.2-2.3,1.3-3.2c0,0,2.4-1.6,4.5-2.7
		C421.1,176.3,421,178.8,421,178.8z"/>
</g>
<g>
	<g>
		<g>
			<linearGradient id="SVGID_1_" gradientUnits="userSpaceOnUse" x1="346.8333" y1="84.7314" x2="366.0961" y2="84.7314">
				<stop  offset="0.1444" style="stop-color:#B31B1B"/>
				<stop  offset="0.1463" style="stop-color:#BF2626"/>
				<stop  offset="0.5359" style="stop-color:#BF2626"/>
				<stop  offset="0.5375" style="stop-color:#CC3D3D"/>
				<stop  offset="0.8185" style="stop-color:#CC3D3D"/>
				<stop  offset="0.8264" style="stop-color:#BF2626"/>
			</linearGradient>
			<path class="st41" d="M366.1,84.5l0-3.2l-0.9,0c-0.3-0.5-0.6-1-1-1.5c-3-3.6-8.7-4.6-12.9-2.3c-0.2,0.1-0.4,0.2-0.5,0.3
				c-0.7,0.4-1.2,0.9-1.7,1.4c-0.7,0.8-1.3,1.6-1.6,2.5l-0.5,0v3c0.1,1.4,0.5,2.9,1.5,4.2c0.1,0.2,0.3,0.4,0.4,0.5
				c0.3,0.3,0.6,0.6,0.9,0.9c0,0,0,0,0,0c3.3,3,8.6,3.5,12.5,1.1c0.2-0.1,0.4-0.3,0.6-0.4c1.2-0.9,2.1-2,2.7-3.2
				c0.4-0.9,0.6-1.8,0.6-2.7C366.1,85,366.1,84.8,366.1,84.5z"/>
			<path class="st42" d="M366.1,82.3c0,0.9-0.3,1.8-0.6,2.7c-0.5,1.2-1.4,2.3-2.7,3.2c-0.2,0.2-0.4,0.3-0.6,0.4
				c-3.9,2.4-9.2,1.9-12.5-1.1c0,0,0,0,0,0c-0.3-0.3-0.6-0.6-0.9-0.9c-0.2-0.2-0.3-0.4-0.4-0.5c-0.9-1.3-1.4-2.8-1.5-4.2
				c0-0.6,0-1.1,0.1-1.7c0.3-1.4,1-2.7,2-3.8c0.5-0.5,1.1-1,1.7-1.4c0.2-0.1,0.3-0.2,0.5-0.3c4.2-2.3,9.9-1.3,12.9,2.3
				C365.6,78.5,366.2,80.4,366.1,82.3z"/>
		</g>
		<path class="st43" d="M364,81.5c0,0.7-0.2,1.4-0.5,2.1c-0.4,1-1.1,1.8-2.1,2.5c-0.1,0.1-0.3,0.2-0.5,0.3c-3,1.9-7.2,1.5-9.8-0.8
			c0,0,0,0,0,0c-0.3-0.2-0.5-0.5-0.7-0.7c-0.1-0.1-0.2-0.3-0.3-0.4c-0.7-1-1.1-2.2-1.1-3.3c0-0.3,0-0.6,0.1-0.9h0l0.4-3l0.2-1.3
			l0.7-5.1l0.2-1.3l0.8-5.3l0.2-1.2l0.8-5.5l0.2-1.1l0.4-2.8l7.1,0.2l0.4,2.8l0.2,1.1l0.8,5.5l0.2,1.3l0.8,5.3l0.2,1.3l0.8,5.2
			l0.2,1.3l0.5,3.1h0C364,81,364,81.3,364,81.5z"/>
		<path class="st44" d="M363.9,80.7L363.9,80.7l-3.9-27l-7.1-0.2l0,0l5.5,0.1l4,27l0,0c0,0.3,0,0.6,0,0.8c0,0.7-0.2,1.4-0.5,2.1
			c-0.4,1-1.1,1.8-2.1,2.5c-0.2,0.1-0.3,0.2-0.5,0.3c-1.1,0.7-2.3,1-3.5,1.2c1.8,0.2,3.6-0.2,5.1-1.2c0.2-0.1,0.3-0.2,0.5-0.3
			c0.9-0.7,1.6-1.6,2.1-2.5c0.3-0.7,0.5-1.4,0.5-2.1C364,81.2,364,81,363.9,80.7z"/>
		<path class="st45" d="M353.6,85.6C353.6,85.6,353.6,85.6,353.6,85.6c-0.3-0.3-0.5-0.5-0.7-0.8c-0.1-0.1-0.2-0.3-0.3-0.4
			c-0.7-1-1.1-2.1-1.1-3.3c0-0.3,0-0.6,0-0.9h0l3.9-26.7l-2.5-0.1L349,80.3h0c0,0.3-0.1,0.6,0,0.9c0,1.1,0.4,2.3,1.1,3.3
			c0.1,0.1,0.2,0.3,0.3,0.4c0.2,0.3,0.4,0.5,0.7,0.7c0,0,0,0,0,0c1.8,1.6,4.3,2.3,6.7,1.9C356.3,87.4,354.8,86.7,353.6,85.6z"/>
		<path class="st46" d="M360,53.7c0,0.3-0.1,0.7-0.2,1c-0.2,0.4-0.5,0.9-1,1.2c-0.1,0.1-0.1,0.1-0.2,0.2c-1.4,0.9-3.4,0.7-4.6-0.4
			c0,0,0,0,0,0c-0.1-0.1-0.2-0.2-0.3-0.3c-0.1-0.1-0.1-0.1-0.2-0.2c-0.3-0.5-0.5-1-0.5-1.5c0-0.2,0-0.4,0.1-0.6
			c0.1-0.5,0.4-1,0.7-1.4c0.2-0.2,0.4-0.4,0.6-0.5c0.1,0,0.1-0.1,0.2-0.1c1.6-0.8,3.6-0.5,4.8,0.9C359.8,52.4,360,53.1,360,53.7z"/>
		<g>
			<linearGradient id="SVGID_2_" gradientUnits="userSpaceOnUse" x1="353.6477" y1="51.5659" x2="359.2811" y2="51.5659">
				<stop  offset="0.1444" style="stop-color:#991717"/>
				<stop  offset="0.1463" style="stop-color:#A52121"/>
				<stop  offset="0.5359" style="stop-color:#A52121"/>
				<stop  offset="0.5375" style="stop-color:#B23535"/>
				<stop  offset="0.8185" style="stop-color:#B23535"/>
				<stop  offset="0.8264" style="stop-color:#A52121"/>
			</linearGradient>
			<path class="st47" d="M359.3,51.6c0,0.9,0,1.8,0,1.8c0,0.3-0.1,0.5-0.2,0.8c-0.2,0.4-0.4,0.7-0.8,0.9c-0.1,0-0.1,0.1-0.2,0.1
				c-1.1,0.7-2.7,0.6-3.7-0.3c0,0,0,0,0,0c-0.1-0.1-0.2-0.2-0.3-0.3c0-0.1-0.1-0.1-0.1-0.2c-0.3-0.4-0.4-0.8-0.4-1.2V49h0.2
				c0.1-0.3,0.3-0.5,0.5-0.7c0.1-0.2,0.3-0.3,0.5-0.4c0,0,0,0,0.1,0c0,0,0.1,0,0.1-0.1c1-0.5,2.2-0.5,3.1,0.1
				c0.2,0.1,0.5,0.3,0.6,0.5c0.1,0.1,0.2,0.3,0.3,0.4l0.2,0h0.1V49l0,0.8C359.3,49.8,359.3,50.7,359.3,51.6z"/>
			<path class="st48" d="M359.3,51.6c-0.2,0.3-0.4,0.6-0.7,0.8c-0.1,0.1-0.1,0.1-0.2,0.1c-1.3,0.8-3.1,0.6-4.1-0.4c0,0,0,0,0,0
				c-0.1-0.1-0.2-0.2-0.3-0.3c-0.1-0.1-0.1-0.1-0.1-0.2c0-0.1-0.1-0.1-0.1-0.2V49h0.2c0.1-0.3,0.3-0.5,0.5-0.7
				c0.1-0.2,0.3-0.3,0.5-0.4c0,0,0,0,0.1,0c1-0.5,2.3-0.5,3.3,0.1c0.4,0.2,0.7,0.4,0.9,0.7c0.1,0.1,0.1,0.2,0.2,0.2
				c0,0,0,0.1,0.1,0.1l0,0.8C359.3,49.8,359.3,50.7,359.3,51.6z"/>
			<path class="st49" d="M359.3,49.1c0,0.3-0.1,0.5-0.2,0.8c-0.2,0.4-0.4,0.7-0.8,0.9c-0.1,0-0.1,0.1-0.2,0.1
				c-1.1,0.7-2.7,0.6-3.7-0.3c0,0,0,0,0,0c-0.1-0.1-0.2-0.2-0.3-0.3c0-0.1-0.1-0.1-0.1-0.2c-0.3-0.4-0.4-0.8-0.4-1.2
				c0-0.2,0-0.3,0-0.5c0.1-0.4,0.3-0.8,0.6-1.1c0.1-0.2,0.3-0.3,0.5-0.4c0.1,0,0.1-0.1,0.2-0.1c1.2-0.7,2.9-0.4,3.8,0.7
				C359.1,48,359.3,48.6,359.3,49.1z"/>
		</g>
		<g>
			<linearGradient id="SVGID_3_" gradientUnits="userSpaceOnUse" x1="353.2784" y1="49.4409" x2="359.6488" y2="49.4409">
				<stop  offset="0.1444" style="stop-color:#B31B1B"/>
				<stop  offset="0.1463" style="stop-color:#BF2626"/>
				<stop  offset="0.5359" style="stop-color:#BF2626"/>
				<stop  offset="0.5375" style="stop-color:#CC3D3D"/>
				<stop  offset="0.8185" style="stop-color:#CC3D3D"/>
				<stop  offset="0.8264" style="stop-color:#BF2626"/>
			</linearGradient>
			<path class="st50" d="M359.6,49.4l0-1l-0.3,0c-0.1-0.2-0.2-0.3-0.3-0.5c-1-1.2-2.9-1.5-4.3-0.8c-0.1,0-0.1,0.1-0.2,0.1
				c-0.2,0.1-0.4,0.3-0.6,0.5c-0.2,0.3-0.4,0.5-0.5,0.8l-0.2,0v1c0,0.5,0.2,1,0.5,1.4c0,0.1,0.1,0.1,0.1,0.2
				c0.1,0.1,0.2,0.2,0.3,0.3c0,0,0,0,0,0c1.1,1,2.9,1.2,4.1,0.4c0.1,0,0.1-0.1,0.2-0.1c0.4-0.3,0.7-0.7,0.9-1.1
				c0.1-0.3,0.2-0.6,0.2-0.9C359.6,49.5,359.6,49.5,359.6,49.4z"/>
			<path class="st46" d="M359.6,48.6c0,0.3-0.1,0.6-0.2,0.9c-0.2,0.4-0.5,0.8-0.9,1.1c-0.1,0-0.1,0.1-0.2,0.1
				c-1.3,0.8-3.1,0.6-4.1-0.4c0,0,0,0,0,0c-0.1-0.1-0.2-0.2-0.3-0.3c-0.1-0.1-0.1-0.1-0.1-0.2c-0.3-0.4-0.5-0.9-0.5-1.4v-0.1
				c0-0.2,0-0.3,0-0.5c0.1-0.5,0.3-0.9,0.7-1.3c0.2-0.2,0.4-0.3,0.6-0.5c0.1,0,0.1-0.1,0.2-0.1c0.9-0.5,1.9-0.5,2.8-0.2
				c0.6,0.2,1.1,0.5,1.5,1C359.5,47.4,359.7,48,359.6,48.6z"/>
			<path class="st48" d="M358.4,46.8l-3.5,2.9l-1.6-1.4c0-0.2,0-0.3,0-0.5c0.1-0.5,0.3-0.9,0.7-1.3c0.2-0.2,0.4-0.3,0.6-0.5
				c0.1,0,0.1-0.1,0.2-0.1c0.9-0.5,1.9-0.5,2.8-0.2L358.4,46.8z"/>
		</g>
		<g id="XMLID_12_">
			
				<linearGradient id="XMLID_50_" gradientUnits="userSpaceOnUse" x1="113.7019" y1="48.4098" x2="117.9753" y2="48.4098" gradientTransform="matrix(-1 0 0 1 472.255 0)">
				<stop  offset="0.145" style="stop-color:#D9B538"/>
				<stop  offset="0.153" style="stop-color:#E6C03B"/>
				<stop  offset="0.4625" style="stop-color:#E6C03B"/>
				<stop  offset="0.4641" style="stop-color:#D9B538"/>
				<stop  offset="0.8537" style="stop-color:#D9B538"/>
				<stop  offset="0.8651" style="stop-color:#BF9B1D"/>
			</linearGradient>
			<path id="XMLID_38_" class="st51" d="M358.6,48.4L358.6,48.4l0-1.2h-0.5c0-0.1-0.1-0.1-0.1-0.2c-0.8-0.7-2.2-0.8-3,0
				c-0.1,0.1-0.1,0.1-0.2,0.2h-0.4v1.2h0c0,0.5,0.2,1,0.6,1.3c0.8,0.7,2.2,0.8,3,0C358.4,49.4,358.6,48.9,358.6,48.4z"/>
			<path id="XMLID_37_" class="st52" d="M358.6,47.2L358.6,47.2l-0.4-5.7h-3.5l-0.4,5.6c0,0,0,0,0,0.1l0,0h0c0,0.5,0.2,1,0.6,1.3
				c0.8,0.7,2.2,0.8,3,0C358.4,48.2,358.6,47.7,358.6,47.2z"/>
			<path id="XMLID_36_" class="st53" d="M355.1,46.1c0.7-0.6,1.8-0.6,2.5,0c0.7,0.6,0.7,1.6,0,2.3c-0.7,0.6-1.8,0.6-2.5,0
				C354.5,47.7,354.4,46.7,355.1,46.1z"/>
			<path id="XMLID_35_" class="st54" d="M356.5,44c0.3-0.9,0.9-0.9,1.2,0c0.3,0.9,0.3,2.3,0,3.2c-0.3,0.9-0.9,0.9-1.2,0
				C356.1,46.4,356.1,44.9,356.5,44z"/>
			<path id="XMLID_34_" class="st53" d="M355.2,40.4c0.7-0.6,1.8-0.6,2.5,0c0.7,0.6,0.7,1.6,0,2.2c-0.7,0.6-1.8,0.6-2.5,0
				C354.5,42,354.5,41,355.2,40.4z"/>
		</g>
	</g>
	<g>
		<path class="st55" d="M363.5,77.6c-0.1,0.5-0.2,1-0.4,1.5c-0.4,0.9-1.1,1.7-1.9,2.4c-0.1,0.1-0.3,0.2-0.5,0.3
			c-2.9,1.8-6.8,1.4-9.2-0.8c0,0,0,0,0,0c-0.2-0.2-0.5-0.4-0.7-0.7c-0.1-0.1-0.2-0.3-0.3-0.4c-0.6-0.8-0.9-1.7-1-2.6l0.2-1.3
			c0.2,0.6,0.4,1.2,0.8,1.7c0.1,0.2,0.2,0.3,0.3,0.4c0.2,0.2,0.4,0.5,0.7,0.7c0,0,0,0,0,0c2.4,2.2,6.4,2.6,9.2,0.8
			c0.2-0.1,0.3-0.2,0.5-0.3c0.9-0.7,1.5-1.5,1.9-2.4c0.1-0.2,0.2-0.5,0.2-0.7L363.5,77.6z"/>
		<path class="st55" d="M362.5,71.1c-0.1,0.3-0.1,0.5-0.3,0.8c-0.4,0.8-0.9,1.5-1.7,2.1c-0.1,0.1-0.3,0.2-0.4,0.3
			c-2.5,1.6-6,1.2-8.1-0.7c0,0,0,0,0,0c-0.2-0.2-0.4-0.4-0.6-0.6c-0.1-0.1-0.2-0.2-0.3-0.4c-0.4-0.5-0.6-1.1-0.8-1.7l0.2-1.3
			c0.1,0.4,0.3,0.7,0.6,1.1c0.1,0.1,0.2,0.2,0.3,0.4c0.2,0.2,0.4,0.4,0.6,0.6c0,0,0,0,0,0c2.2,1.9,5.6,2.3,8.1,0.7
			c0.1-0.1,0.3-0.2,0.4-0.3c0.8-0.6,1.4-1.3,1.7-2.1c0-0.1,0.1-0.1,0.1-0.2L362.5,71.1z"/>
		<path class="st55" d="M361.6,64.4c0,0.1-0.1,0.1-0.1,0.2c-0.3,0.7-0.8,1.3-1.5,1.8c-0.1,0.1-0.2,0.2-0.3,0.2
			c-2.2,1.4-5.2,1.1-7-0.6c0,0,0,0,0,0c-0.2-0.2-0.3-0.3-0.5-0.5c-0.1-0.1-0.2-0.2-0.2-0.3c-0.2-0.3-0.4-0.6-0.5-1l0.2-1.2
			c0.1,0.2,0.2,0.4,0.3,0.6c0.1,0.1,0.2,0.2,0.2,0.3c0.2,0.2,0.3,0.4,0.5,0.5c0,0,0,0,0,0c1.9,1.7,4.9,2,7,0.6
			c0.1-0.1,0.2-0.2,0.3-0.2c0.6-0.4,1.1-1,1.4-1.6L361.6,64.4z"/>
		<path class="st55" d="M360.6,57.6c-0.3,0.5-0.6,0.9-1.1,1.3c-0.1,0.1-0.2,0.1-0.3,0.2c-1.9,1.2-4.4,0.9-6-0.5l0,0
			c-0.2-0.1-0.3-0.3-0.4-0.4c-0.1-0.1-0.1-0.2-0.2-0.3c-0.1-0.1-0.2-0.3-0.2-0.4l0.2-1.1c0,0,0,0.1,0.1,0.1c0.1,0.1,0.1,0.2,0.2,0.3
			c0.1,0.2,0.3,0.3,0.4,0.4l0,0c1.6,1.4,4.1,1.6,6,0.5c0.1-0.1,0.2-0.1,0.3-0.2c0.4-0.3,0.7-0.6,1-1L360.6,57.6z"/>
	</g>
</g>
<g>
	<g>
		<g>
			<linearGradient id="SVGID_4_" gradientUnits="userSpaceOnUse" x1="251.9644" y1="334.1702" x2="271.2272" y2="334.1702">
				<stop  offset="0.1444" style="stop-color:#B31B1B"/>
				<stop  offset="0.1463" style="stop-color:#BF2626"/>
				<stop  offset="0.5359" style="stop-color:#BF2626"/>
				<stop  offset="0.5375" style="stop-color:#CC3D3D"/>
				<stop  offset="0.8185" style="stop-color:#CC3D3D"/>
				<stop  offset="0.8264" style="stop-color:#BF2626"/>
			</linearGradient>
			<path class="st56" d="M271.2,334l0-3.2l-0.9,0c-0.3-0.5-0.6-1-1-1.5c-3-3.6-8.7-4.6-12.9-2.3c-0.2,0.1-0.4,0.2-0.5,0.3
				c-0.7,0.4-1.2,0.9-1.7,1.4c-0.7,0.8-1.3,1.6-1.6,2.5l-0.5,0v3c0.1,1.4,0.5,2.9,1.5,4.2c0.1,0.2,0.3,0.4,0.4,0.5
				c0.3,0.3,0.6,0.6,0.9,0.9c0,0,0,0,0,0c3.3,3,8.6,3.5,12.5,1.1c0.2-0.1,0.4-0.3,0.6-0.4c1.2-0.9,2.1-2,2.7-3.2
				c0.4-0.9,0.6-1.8,0.6-2.7C271.2,334.5,271.2,334.2,271.2,334z"/>
			<path class="st42" d="M271.2,331.7c0,0.9-0.3,1.8-0.6,2.7c-0.5,1.2-1.4,2.3-2.7,3.2c-0.2,0.2-0.4,0.3-0.6,0.4
				c-3.9,2.4-9.2,1.9-12.5-1.1c0,0,0,0,0,0c-0.3-0.3-0.6-0.6-0.9-0.9c-0.2-0.2-0.3-0.4-0.4-0.5c-0.9-1.3-1.4-2.8-1.5-4.2
				c0-0.6,0-1.1,0.1-1.7c0.3-1.4,1-2.7,2-3.8c0.5-0.5,1.1-1,1.7-1.4c0.2-0.1,0.3-0.2,0.5-0.3c4.2-2.3,9.9-1.3,12.9,2.3
				C270.7,328,271.3,329.9,271.2,331.7z"/>
		</g>
		<path class="st43" d="M269.1,331c0,0.7-0.2,1.4-0.5,2.1c-0.4,1-1.1,1.8-2.1,2.5c-0.1,0.1-0.3,0.2-0.5,0.3c-3,1.9-7.2,1.5-9.8-0.8
			c0,0,0,0,0,0c-0.3-0.2-0.5-0.5-0.7-0.7c-0.1-0.1-0.2-0.3-0.3-0.4c-0.7-1-1.1-2.2-1.1-3.3c0-0.3,0-0.6,0.1-0.9h0l0.4-3l0.2-1.3
			l0.7-5.1l0.2-1.3l0.8-5.3l0.2-1.2l0.8-5.5l0.2-1.1l0.4-2.8l7.1,0.2l0.4,2.8l0.2,1.1l0.8,5.5l0.2,1.3l0.8,5.3l0.2,1.3l0.8,5.2
			l0.2,1.3l0.5,3.1h0C269.1,330.4,269.1,330.7,269.1,331z"/>
		<path class="st44" d="M269.1,330.1L269.1,330.1l-3.9-27l-7.1-0.2l0,0l5.5,0.1l4,27l0,0c0,0.3,0,0.6,0,0.8c0,0.7-0.2,1.4-0.5,2.1
			c-0.4,1-1.1,1.8-2.1,2.5c-0.2,0.1-0.3,0.2-0.5,0.3c-1.1,0.7-2.3,1-3.5,1.2c1.8,0.2,3.6-0.2,5.1-1.2c0.2-0.1,0.3-0.2,0.5-0.3
			c0.9-0.7,1.6-1.6,2.1-2.5c0.3-0.7,0.5-1.4,0.5-2.1C269.1,330.7,269.1,330.4,269.1,330.1z"/>
		<path class="st45" d="M258.7,335.1C258.7,335.1,258.7,335.1,258.7,335.1c-0.3-0.3-0.5-0.5-0.7-0.8c-0.1-0.1-0.2-0.3-0.3-0.4
			c-0.7-1-1.1-2.1-1.1-3.3c0-0.3,0-0.6,0-0.9h0l3.9-26.7l-2.5-0.1l-3.9,26.8h0c0,0.3-0.1,0.6,0,0.9c0,1.1,0.4,2.3,1.1,3.3
			c0.1,0.1,0.2,0.3,0.3,0.4c0.2,0.3,0.4,0.5,0.7,0.7c0,0,0,0,0,0c1.8,1.6,4.3,2.3,6.7,1.9C261.4,336.8,259.9,336.1,258.7,335.1z"/>
		<path class="st46" d="M265.1,303.2c0,0.3-0.1,0.7-0.2,1c-0.2,0.4-0.5,0.9-1,1.2c-0.1,0.1-0.1,0.1-0.2,0.2
			c-1.4,0.9-3.4,0.7-4.6-0.4c0,0,0,0,0,0c-0.1-0.1-0.2-0.2-0.3-0.3c-0.1-0.1-0.1-0.1-0.2-0.2c-0.3-0.5-0.5-1-0.5-1.5
			c0-0.2,0-0.4,0.1-0.6c0.1-0.5,0.4-1,0.7-1.4c0.2-0.2,0.4-0.4,0.6-0.5c0.1,0,0.1-0.1,0.2-0.1c1.6-0.8,3.6-0.5,4.8,0.9
			C264.9,301.8,265.2,302.5,265.1,303.2z"/>
		<g>
			<linearGradient id="SVGID_5_" gradientUnits="userSpaceOnUse" x1="258.7788" y1="301.0047" x2="264.4122" y2="301.0047">
				<stop  offset="0.1444" style="stop-color:#991717"/>
				<stop  offset="0.1463" style="stop-color:#A52121"/>
				<stop  offset="0.5359" style="stop-color:#A52121"/>
				<stop  offset="0.5375" style="stop-color:#B23535"/>
				<stop  offset="0.8185" style="stop-color:#B23535"/>
				<stop  offset="0.8264" style="stop-color:#A52121"/>
			</linearGradient>
			<path class="st57" d="M264.4,301c0,0.9,0,1.8,0,1.8c0,0.3-0.1,0.5-0.2,0.8c-0.2,0.4-0.4,0.7-0.8,0.9c-0.1,0-0.1,0.1-0.2,0.1
				c-1.1,0.7-2.7,0.6-3.7-0.3c0,0,0,0,0,0c-0.1-0.1-0.2-0.2-0.3-0.3c0-0.1-0.1-0.1-0.1-0.2c-0.3-0.4-0.4-0.8-0.4-1.2v-4.3h0.2
				c0.1-0.3,0.3-0.5,0.5-0.7c0.1-0.2,0.3-0.3,0.5-0.4c0,0,0,0,0.1,0c0,0,0.1,0,0.1-0.1c1-0.5,2.2-0.5,3.1,0.1
				c0.2,0.1,0.5,0.3,0.6,0.5c0.1,0.1,0.2,0.3,0.3,0.4l0.2,0h0.1v0.1l0,0.8C264.4,299.3,264.4,300.1,264.4,301z"/>
			<path class="st48" d="M264.4,301c-0.2,0.3-0.4,0.6-0.7,0.8c-0.1,0.1-0.1,0.1-0.2,0.1c-1.3,0.8-3.1,0.6-4.1-0.4c0,0,0,0,0,0
				c-0.1-0.1-0.2-0.2-0.3-0.3c-0.1-0.1-0.1-0.1-0.1-0.2c0-0.1-0.1-0.1-0.1-0.2v-2.5h0.2c0.1-0.3,0.3-0.5,0.5-0.7
				c0.1-0.2,0.3-0.3,0.5-0.4c0,0,0,0,0.1,0c1-0.5,2.3-0.5,3.3,0.1c0.4,0.2,0.7,0.4,0.9,0.7c0.1,0.1,0.1,0.2,0.2,0.2
				c0,0,0,0.1,0.1,0.1l0,0.8C264.4,299.3,264.4,300.1,264.4,301z"/>
			<path class="st49" d="M264.4,298.6c0,0.3-0.1,0.5-0.2,0.8c-0.2,0.4-0.4,0.7-0.8,0.9c-0.1,0-0.1,0.1-0.2,0.1
				c-1.1,0.7-2.7,0.6-3.7-0.3c0,0,0,0,0,0c-0.1-0.1-0.2-0.2-0.3-0.3c0-0.1-0.1-0.1-0.1-0.2c-0.3-0.4-0.4-0.8-0.4-1.2
				c0-0.2,0-0.3,0-0.5c0.1-0.4,0.3-0.8,0.6-1.1c0.1-0.2,0.3-0.3,0.5-0.4c0.1,0,0.1-0.1,0.2-0.1c1.2-0.7,2.9-0.4,3.8,0.7
				C264.3,297.5,264.4,298,264.4,298.6z"/>
		</g>
		<g>
			<linearGradient id="SVGID_6_" gradientUnits="userSpaceOnUse" x1="258.4095" y1="298.8798" x2="264.7799" y2="298.8798">
				<stop  offset="0.1444" style="stop-color:#B31B1B"/>
				<stop  offset="0.1463" style="stop-color:#BF2626"/>
				<stop  offset="0.5359" style="stop-color:#BF2626"/>
				<stop  offset="0.5375" style="stop-color:#CC3D3D"/>
				<stop  offset="0.8185" style="stop-color:#CC3D3D"/>
				<stop  offset="0.8264" style="stop-color:#BF2626"/>
			</linearGradient>
			<path class="st58" d="M264.8,298.8l0-1l-0.3,0c-0.1-0.2-0.2-0.3-0.3-0.5c-1-1.2-2.9-1.5-4.3-0.8c-0.1,0-0.1,0.1-0.2,0.1
				c-0.2,0.1-0.4,0.3-0.6,0.5c-0.2,0.3-0.4,0.5-0.5,0.8l-0.2,0v1c0,0.5,0.2,1,0.5,1.4c0,0.1,0.1,0.1,0.1,0.2
				c0.1,0.1,0.2,0.2,0.3,0.3c0,0,0,0,0,0c1.1,1,2.9,1.2,4.1,0.4c0.1,0,0.1-0.1,0.2-0.1c0.4-0.3,0.7-0.7,0.9-1.1
				c0.1-0.3,0.2-0.6,0.2-0.9C264.8,299,264.8,298.9,264.8,298.8z"/>
			<path class="st46" d="M264.8,298.1c0,0.3-0.1,0.6-0.2,0.9c-0.2,0.4-0.5,0.8-0.9,1.1c-0.1,0-0.1,0.1-0.2,0.1
				c-1.3,0.8-3.1,0.6-4.1-0.4c0,0,0,0,0,0c-0.1-0.1-0.2-0.2-0.3-0.3c-0.1-0.1-0.1-0.1-0.1-0.2c-0.3-0.4-0.5-0.9-0.5-1.4v-0.1
				c0-0.2,0-0.3,0-0.5c0.1-0.5,0.3-0.9,0.7-1.3c0.2-0.2,0.4-0.3,0.6-0.5c0.1,0,0.1-0.1,0.2-0.1c0.9-0.5,1.9-0.5,2.8-0.2
				c0.6,0.2,1.1,0.5,1.5,1C264.6,296.8,264.8,297.5,264.8,298.1z"/>
			<path class="st48" d="M263.6,296.3l-3.5,2.9l-1.6-1.4c0-0.2,0-0.3,0-0.5c0.1-0.5,0.3-0.9,0.7-1.3c0.2-0.2,0.4-0.3,0.6-0.5
				c0.1,0,0.1-0.1,0.2-0.1c0.9-0.5,1.9-0.5,2.8-0.2L263.6,296.3z"/>
		</g>
		<g id="XMLID_39_">
			
				<linearGradient id="XMLID_51_" gradientUnits="userSpaceOnUse" x1="208.5708" y1="297.8487" x2="212.8441" y2="297.8487" gradientTransform="matrix(-1 0 0 1 472.255 0)">
				<stop  offset="0.145" style="stop-color:#D9B538"/>
				<stop  offset="0.153" style="stop-color:#E6C03B"/>
				<stop  offset="0.4625" style="stop-color:#E6C03B"/>
				<stop  offset="0.4641" style="stop-color:#D9B538"/>
				<stop  offset="0.8537" style="stop-color:#D9B538"/>
				<stop  offset="0.8651" style="stop-color:#BF9B1D"/>
			</linearGradient>
			<path id="XMLID_44_" class="st59" d="M263.7,297.8L263.7,297.8l0-1.2h-0.5c0-0.1-0.1-0.1-0.1-0.2c-0.8-0.7-2.2-0.8-3,0
				c-0.1,0.1-0.1,0.1-0.2,0.2h-0.4v1.2h0c0,0.5,0.2,1,0.6,1.3c0.8,0.7,2.2,0.8,3,0C263.5,298.8,263.7,298.3,263.7,297.8z"/>
			<path id="XMLID_43_" class="st52" d="M263.7,296.7L263.7,296.7l-0.4-5.7h-3.5l-0.4,5.6c0,0,0,0,0,0.1l0,0h0c0,0.5,0.2,1,0.6,1.3
				c0.8,0.7,2.2,0.8,3,0C263.5,297.7,263.7,297.2,263.7,296.7z"/>
			<path id="XMLID_42_" class="st53" d="M260.3,295.5c0.7-0.6,1.8-0.6,2.5,0c0.7,0.6,0.7,1.6,0,2.3c-0.7,0.6-1.8,0.6-2.5,0
				C259.6,297.2,259.6,296.2,260.3,295.5z"/>
			<path id="XMLID_41_" class="st54" d="M261.6,293.5c0.3-0.9,0.9-0.9,1.2,0c0.3,0.9,0.3,2.3,0,3.2c-0.3,0.9-0.9,0.9-1.2,0
				C261.3,295.8,261.3,294.4,261.6,293.5z"/>
			<path id="XMLID_40_" class="st53" d="M260.3,289.9c0.7-0.6,1.8-0.6,2.5,0c0.7,0.6,0.7,1.6,0,2.2c-0.7,0.6-1.8,0.6-2.5,0
				C259.6,291.5,259.6,290.5,260.3,289.9z"/>
		</g>
	</g>
	<g>
		<path class="st55" d="M268.6,327c-0.1,0.5-0.2,1-0.4,1.5c-0.4,0.9-1.1,1.7-1.9,2.4c-0.1,0.1-0.3,0.2-0.5,0.3
			c-2.9,1.8-6.8,1.4-9.2-0.8c0,0,0,0,0,0c-0.2-0.2-0.5-0.4-0.7-0.7c-0.1-0.1-0.2-0.3-0.3-0.4c-0.6-0.8-0.9-1.7-1-2.6l0.2-1.3
			c0.2,0.6,0.4,1.2,0.8,1.7c0.1,0.2,0.2,0.3,0.3,0.4c0.2,0.2,0.4,0.5,0.7,0.7c0,0,0,0,0,0c2.4,2.2,6.4,2.6,9.2,0.8
			c0.2-0.1,0.3-0.2,0.5-0.3c0.9-0.7,1.5-1.5,1.9-2.4c0.1-0.2,0.2-0.5,0.2-0.7L268.6,327z"/>
		<path class="st55" d="M267.7,320.5c-0.1,0.3-0.1,0.5-0.3,0.8c-0.4,0.8-0.9,1.5-1.7,2.1c-0.1,0.1-0.3,0.2-0.4,0.3
			c-2.5,1.6-6,1.2-8.1-0.7c0,0,0,0,0,0c-0.2-0.2-0.4-0.4-0.6-0.6c-0.1-0.1-0.2-0.2-0.3-0.4c-0.4-0.5-0.6-1.1-0.8-1.7l0.2-1.3
			c0.1,0.4,0.3,0.7,0.6,1.1c0.1,0.1,0.2,0.2,0.3,0.4c0.2,0.2,0.4,0.4,0.6,0.6c0,0,0,0,0,0c2.2,1.9,5.6,2.3,8.1,0.7
			c0.1-0.1,0.3-0.2,0.4-0.3c0.8-0.6,1.4-1.3,1.7-2.1c0-0.1,0.1-0.1,0.1-0.2L267.7,320.5z"/>
		<path class="st55" d="M266.7,313.9c0,0.1-0.1,0.1-0.1,0.2c-0.3,0.7-0.8,1.3-1.5,1.8c-0.1,0.1-0.2,0.2-0.3,0.2
			c-2.2,1.4-5.2,1.1-7-0.6c0,0,0,0,0,0c-0.2-0.2-0.3-0.3-0.5-0.5c-0.1-0.1-0.2-0.2-0.2-0.3c-0.2-0.3-0.4-0.6-0.5-1l0.2-1.2
			c0.1,0.2,0.2,0.4,0.3,0.6c0.1,0.1,0.2,0.2,0.2,0.3c0.2,0.2,0.3,0.4,0.5,0.5c0,0,0,0,0,0c1.9,1.7,4.9,2,7,0.6
			c0.1-0.1,0.2-0.2,0.3-0.2c0.6-0.4,1.1-1,1.4-1.6L266.7,313.9z"/>
		<path class="st55" d="M265.7,307.1c-0.3,0.5-0.6,0.9-1.1,1.3c-0.1,0.1-0.2,0.1-0.3,0.2c-1.9,1.2-4.4,0.9-6-0.5l0,0
			c-0.2-0.1-0.3-0.3-0.4-0.4c-0.1-0.1-0.1-0.2-0.2-0.3c-0.1-0.1-0.2-0.3-0.2-0.4l0.2-1.1c0,0,0,0.1,0.1,0.1c0.1,0.1,0.1,0.2,0.2,0.3
			c0.1,0.2,0.3,0.3,0.4,0.4l0,0c1.6,1.4,4.1,1.6,6,0.5c0.1-0.1,0.2-0.1,0.3-0.2c0.4-0.3,0.7-0.6,1-1L265.7,307.1z"/>
	</g>
</g>
<g>
	<g>
		<g>
			<linearGradient id="SVGID_7_" gradientUnits="userSpaceOnUse" x1="87.2615" y1="241.7761" x2="106.5243" y2="241.7761">
				<stop  offset="0.1444" style="stop-color:#B31B1B"/>
				<stop  offset="0.1463" style="stop-color:#BF2626"/>
				<stop  offset="0.5359" style="stop-color:#BF2626"/>
				<stop  offset="0.5375" style="stop-color:#CC3D3D"/>
				<stop  offset="0.8185" style="stop-color:#CC3D3D"/>
				<stop  offset="0.8264" style="stop-color:#BF2626"/>
			</linearGradient>
			<path class="st60" d="M106.5,241.6l0-3.2l-0.9,0c-0.3-0.5-0.6-1-1-1.5c-3-3.6-8.7-4.6-12.9-2.3c-0.2,0.1-0.4,0.2-0.5,0.3
				c-0.7,0.4-1.2,0.9-1.7,1.4c-0.7,0.8-1.3,1.6-1.6,2.5l-0.5,0v3c0.1,1.4,0.5,2.9,1.5,4.2c0.1,0.2,0.3,0.4,0.4,0.5
				c0.3,0.3,0.6,0.6,0.9,0.9c0,0,0,0,0,0c3.3,3,8.6,3.5,12.5,1.1c0.2-0.1,0.4-0.3,0.6-0.4c1.2-0.9,2.1-2,2.7-3.2
				c0.4-0.9,0.6-1.8,0.6-2.7C106.5,242.1,106.5,241.8,106.5,241.6z"/>
			<path class="st42" d="M106.5,239.3c0,0.9-0.3,1.8-0.6,2.7c-0.5,1.2-1.4,2.3-2.7,3.2c-0.2,0.2-0.4,0.3-0.6,0.4
				c-3.9,2.4-9.2,1.9-12.5-1.1c0,0,0,0,0,0c-0.3-0.3-0.6-0.6-0.9-0.9c-0.2-0.2-0.3-0.4-0.4-0.5c-0.9-1.3-1.4-2.8-1.5-4.2
				c0-0.6,0-1.1,0.1-1.7c0.3-1.4,1-2.7,2-3.8c0.5-0.5,1.1-1,1.7-1.4c0.2-0.1,0.3-0.2,0.5-0.3c4.2-2.3,9.9-1.3,12.9,2.3
				C106,235.6,106.6,237.5,106.5,239.3z"/>
		</g>
		<path class="st43" d="M104.4,238.6c0,0.7-0.2,1.4-0.5,2.1c-0.4,1-1.1,1.8-2.1,2.5c-0.1,0.1-0.3,0.2-0.5,0.3
			c-3,1.9-7.2,1.5-9.8-0.8c0,0,0,0,0,0c-0.3-0.2-0.5-0.5-0.7-0.7c-0.1-0.1-0.2-0.3-0.3-0.4c-0.7-1-1.1-2.2-1.1-3.3
			c0-0.3,0-0.6,0.1-0.9h0l0.4-3l0.2-1.3l0.7-5.1l0.2-1.3l0.8-5.3L92,220l0.8-5.5l0.2-1.1l0.4-2.8l7.1,0.2l0.4,2.8l0.2,1.1l0.8,5.5
			l0.2,1.3l0.8,5.3l0.2,1.3l0.8,5.2l0.2,1.3l0.5,3.1h0C104.4,238,104.4,238.3,104.4,238.6z"/>
		<path class="st44" d="M104.4,237.7L104.4,237.7l-3.9-27l-7.1-0.2l0,0l5.5,0.1l4,27l0,0c0,0.3,0,0.6,0,0.8c0,0.7-0.2,1.4-0.5,2.1
			c-0.4,1-1.1,1.8-2.1,2.5c-0.2,0.1-0.3,0.2-0.5,0.3c-1.1,0.7-2.3,1-3.5,1.2c1.8,0.2,3.6-0.2,5.1-1.2c0.2-0.1,0.3-0.2,0.5-0.3
			c0.9-0.7,1.6-1.6,2.1-2.5c0.3-0.7,0.5-1.4,0.5-2.1C104.4,238.3,104.4,238,104.4,237.7z"/>
		<path class="st45" d="M94,242.7C94,242.7,94,242.7,94,242.7c-0.3-0.3-0.5-0.5-0.7-0.8c-0.1-0.1-0.2-0.3-0.3-0.4
			c-0.7-1-1.1-2.1-1.1-3.3c0-0.3,0-0.6,0-0.9h0l3.9-26.7l-2.5-0.1l-3.9,26.8h0c0,0.3-0.1,0.6,0,0.9c0,1.1,0.4,2.3,1.1,3.3
			c0.1,0.1,0.2,0.3,0.3,0.4c0.2,0.3,0.4,0.5,0.7,0.7c0,0,0,0,0,0c1.8,1.6,4.3,2.3,6.7,1.9C96.7,244.4,95.2,243.7,94,242.7z"/>
		<path class="st46" d="M100.4,210.8c0,0.3-0.1,0.7-0.2,1c-0.2,0.4-0.5,0.9-1,1.2c-0.1,0.1-0.1,0.1-0.2,0.2
			c-1.4,0.9-3.4,0.7-4.6-0.4c0,0,0,0,0,0c-0.1-0.1-0.2-0.2-0.3-0.3c-0.1-0.1-0.1-0.1-0.2-0.2c-0.3-0.5-0.5-1-0.5-1.5
			c0-0.2,0-0.4,0.1-0.6c0.1-0.5,0.4-1,0.7-1.4c0.2-0.2,0.4-0.4,0.6-0.5c0.1,0,0.1-0.1,0.2-0.1c1.6-0.8,3.6-0.5,4.8,0.9
			C100.2,209.4,100.5,210.1,100.4,210.8z"/>
		<g>
			<linearGradient id="SVGID_8_" gradientUnits="userSpaceOnUse" x1="94.0759" y1="208.6105" x2="99.7092" y2="208.6105">
				<stop  offset="0.1444" style="stop-color:#991717"/>
				<stop  offset="0.1463" style="stop-color:#A52121"/>
				<stop  offset="0.5359" style="stop-color:#A52121"/>
				<stop  offset="0.5375" style="stop-color:#B23535"/>
				<stop  offset="0.8185" style="stop-color:#B23535"/>
				<stop  offset="0.8264" style="stop-color:#A52121"/>
			</linearGradient>
			<path class="st61" d="M99.7,208.6c0,0.9,0,1.8,0,1.8c0,0.3-0.1,0.5-0.2,0.8c-0.2,0.4-0.4,0.7-0.8,0.9c-0.1,0-0.1,0.1-0.2,0.1
				c-1.1,0.7-2.7,0.6-3.7-0.3c0,0,0,0,0,0c-0.1-0.1-0.2-0.2-0.3-0.3c0-0.1-0.1-0.1-0.1-0.2c-0.3-0.4-0.4-0.8-0.4-1.2v-4.3h0.2
				c0.1-0.3,0.3-0.5,0.5-0.7c0.1-0.2,0.3-0.3,0.5-0.4c0,0,0,0,0.1,0c0,0,0.1,0,0.1-0.1c1-0.5,2.2-0.5,3.1,0.1
				c0.2,0.1,0.5,0.3,0.6,0.5c0.1,0.1,0.2,0.3,0.3,0.4l0.2,0h0.1v0.1l0,0.8C99.7,206.9,99.7,207.8,99.7,208.6z"/>
			<path class="st48" d="M99.7,208.6c-0.2,0.3-0.4,0.6-0.7,0.8c-0.1,0.1-0.1,0.1-0.2,0.1c-1.3,0.8-3.1,0.6-4.1-0.4c0,0,0,0,0,0
				c-0.1-0.1-0.2-0.2-0.3-0.3c-0.1-0.1-0.1-0.1-0.1-0.2c0-0.1-0.1-0.1-0.1-0.2v-2.5h0.2c0.1-0.3,0.3-0.5,0.5-0.7
				c0.1-0.2,0.3-0.3,0.5-0.4c0,0,0,0,0.1,0c1-0.5,2.3-0.5,3.3,0.1c0.4,0.2,0.7,0.4,0.9,0.7c0.1,0.1,0.1,0.2,0.2,0.2
				c0,0,0,0.1,0.1,0.1l0,0.8C99.7,206.9,99.7,207.8,99.7,208.6z"/>
			<path class="st49" d="M99.7,206.2c0,0.3-0.1,0.5-0.2,0.8c-0.2,0.4-0.4,0.7-0.8,0.9c-0.1,0-0.1,0.1-0.2,0.1
				c-1.1,0.7-2.7,0.6-3.7-0.3c0,0,0,0,0,0c-0.1-0.1-0.2-0.2-0.3-0.3c0-0.1-0.1-0.1-0.1-0.2c-0.3-0.4-0.4-0.8-0.4-1.2
				c0-0.2,0-0.3,0-0.5c0.1-0.4,0.3-0.8,0.6-1.1c0.1-0.2,0.3-0.3,0.5-0.4c0.1,0,0.1-0.1,0.2-0.1c1.2-0.7,2.9-0.4,3.8,0.7
				C99.6,205.1,99.7,205.6,99.7,206.2z"/>
		</g>
		<g>
			<linearGradient id="SVGID_9_" gradientUnits="userSpaceOnUse" x1="93.7066" y1="206.4856" x2="100.077" y2="206.4856">
				<stop  offset="0.1444" style="stop-color:#B31B1B"/>
				<stop  offset="0.1463" style="stop-color:#BF2626"/>
				<stop  offset="0.5359" style="stop-color:#BF2626"/>
				<stop  offset="0.5375" style="stop-color:#CC3D3D"/>
				<stop  offset="0.8185" style="stop-color:#CC3D3D"/>
				<stop  offset="0.8264" style="stop-color:#BF2626"/>
			</linearGradient>
			<path class="st62" d="M100.1,206.4l0-1l-0.3,0c-0.1-0.2-0.2-0.3-0.3-0.5c-1-1.2-2.9-1.5-4.3-0.8c-0.1,0-0.1,0.1-0.2,0.1
				c-0.2,0.1-0.4,0.3-0.6,0.5c-0.2,0.3-0.4,0.5-0.5,0.8l-0.2,0v1c0,0.5,0.2,1,0.5,1.4c0,0.1,0.1,0.1,0.1,0.2
				c0.1,0.1,0.2,0.2,0.3,0.3c0,0,0,0,0,0c1.1,1,2.9,1.2,4.1,0.4c0.1,0,0.1-0.1,0.2-0.1c0.4-0.3,0.7-0.7,0.9-1.1
				c0.1-0.3,0.2-0.6,0.2-0.9C100.1,206.6,100.1,206.5,100.1,206.4z"/>
			<path class="st46" d="M100.1,205.7c0,0.3-0.1,0.6-0.2,0.9c-0.2,0.4-0.5,0.8-0.9,1.1c-0.1,0-0.1,0.1-0.2,0.1
				c-1.3,0.8-3.1,0.6-4.1-0.4c0,0,0,0,0,0c-0.1-0.1-0.2-0.2-0.3-0.3c-0.1-0.1-0.1-0.1-0.1-0.2c-0.3-0.4-0.5-0.9-0.5-1.4v-0.1
				c0-0.2,0-0.3,0-0.5c0.1-0.5,0.3-0.9,0.7-1.3c0.2-0.2,0.4-0.3,0.6-0.5c0.1,0,0.1-0.1,0.2-0.1c0.9-0.5,1.9-0.5,2.8-0.2
				c0.6,0.2,1.1,0.5,1.5,1C99.9,204.4,100.1,205.1,100.1,205.7z"/>
			<path class="st48" d="M98.9,203.9l-3.5,2.9l-1.6-1.4c0-0.2,0-0.3,0-0.5c0.1-0.5,0.3-0.9,0.7-1.3c0.2-0.2,0.4-0.3,0.6-0.5
				c0.1,0,0.1-0.1,0.2-0.1c0.9-0.5,1.9-0.5,2.8-0.2L98.9,203.9z"/>
		</g>
		<g id="XMLID_8_">
			
				<linearGradient id="XMLID_52_" gradientUnits="userSpaceOnUse" x1="373.2737" y1="205.4545" x2="377.5471" y2="205.4545" gradientTransform="matrix(-1 0 0 1 472.255 0)">
				<stop  offset="0.145" style="stop-color:#D9B538"/>
				<stop  offset="0.153" style="stop-color:#E6C03B"/>
				<stop  offset="0.4625" style="stop-color:#E6C03B"/>
				<stop  offset="0.4641" style="stop-color:#D9B538"/>
				<stop  offset="0.8537" style="stop-color:#D9B538"/>
				<stop  offset="0.8651" style="stop-color:#BF9B1D"/>
			</linearGradient>
			<path id="XMLID_25_" class="st63" d="M99,205.5L99,205.5l0-1.2h-0.5c0-0.1-0.1-0.1-0.1-0.2c-0.8-0.7-2.2-0.8-3,0
				c-0.1,0.1-0.1,0.1-0.2,0.2h-0.4v1.2h0c0,0.5,0.2,1,0.6,1.3c0.8,0.7,2.2,0.8,3,0C98.8,206.4,99,205.9,99,205.5z"/>
			<path id="XMLID_20_" class="st52" d="M99,204.3L99,204.3l-0.4-5.7h-3.5l-0.4,5.6c0,0,0,0,0,0.1l0,0h0c0,0.5,0.2,1,0.6,1.3
				c0.8,0.7,2.2,0.8,3,0C98.8,205.3,99,204.8,99,204.3z"/>
			<path id="XMLID_11_" class="st53" d="M95.6,203.1c0.7-0.6,1.8-0.6,2.5,0c0.7,0.6,0.7,1.6,0,2.3c-0.7,0.6-1.8,0.6-2.5,0
				C94.9,204.8,94.9,203.8,95.6,203.1z"/>
			<path id="XMLID_10_" class="st54" d="M96.9,201.1c0.3-0.9,0.9-0.9,1.2,0c0.3,0.9,0.3,2.3,0,3.2c-0.3,0.9-0.9,0.9-1.2,0
				C96.6,203.4,96.6,202,96.9,201.1z"/>
			<path id="XMLID_9_" class="st53" d="M95.6,197.5c0.7-0.6,1.8-0.6,2.5,0c0.7,0.6,0.7,1.6,0,2.2c-0.7,0.6-1.8,0.6-2.5,0
				C94.9,199.1,94.9,198.1,95.6,197.5z"/>
		</g>
	</g>
	<g>
		<path class="st55" d="M103.9,234.6c-0.1,0.5-0.2,1-0.4,1.5c-0.4,0.9-1.1,1.7-1.9,2.4c-0.1,0.1-0.3,0.2-0.5,0.3
			c-2.9,1.8-6.8,1.4-9.2-0.8c0,0,0,0,0,0c-0.2-0.2-0.5-0.4-0.7-0.7c-0.1-0.1-0.2-0.3-0.3-0.4c-0.6-0.8-0.9-1.7-1-2.6l0.2-1.3
			c0.2,0.6,0.4,1.2,0.8,1.7c0.1,0.2,0.2,0.3,0.3,0.4c0.2,0.2,0.4,0.5,0.7,0.7c0,0,0,0,0,0c2.4,2.2,6.4,2.6,9.2,0.8
			c0.2-0.1,0.3-0.2,0.5-0.3c0.9-0.7,1.5-1.5,1.9-2.4c0.1-0.2,0.2-0.5,0.2-0.7L103.9,234.6z"/>
		<path class="st55" d="M103,228.1c-0.1,0.3-0.1,0.5-0.3,0.8c-0.4,0.8-0.9,1.5-1.7,2.1c-0.1,0.1-0.3,0.2-0.4,0.3
			c-2.5,1.6-6,1.2-8.1-0.7c0,0,0,0,0,0c-0.2-0.2-0.4-0.4-0.6-0.6c-0.1-0.1-0.2-0.2-0.3-0.4c-0.4-0.5-0.6-1.1-0.8-1.7l0.2-1.3
			c0.1,0.4,0.3,0.7,0.6,1.1c0.1,0.1,0.2,0.2,0.3,0.4c0.2,0.2,0.4,0.4,0.6,0.6c0,0,0,0,0,0c2.2,1.9,5.6,2.3,8.1,0.7
			c0.1-0.1,0.3-0.2,0.4-0.3c0.8-0.6,1.4-1.3,1.7-2.1c0-0.1,0.1-0.1,0.1-0.2L103,228.1z"/>
		<path class="st55" d="M102,221.5c0,0.1-0.1,0.1-0.1,0.2c-0.3,0.7-0.8,1.3-1.5,1.8c-0.1,0.1-0.2,0.2-0.3,0.2
			c-2.2,1.4-5.2,1.1-7-0.6c0,0,0,0,0,0c-0.2-0.2-0.3-0.3-0.5-0.5c-0.1-0.1-0.2-0.2-0.2-0.3c-0.2-0.3-0.4-0.6-0.5-1L92,220
			c0.1,0.2,0.2,0.4,0.3,0.6c0.1,0.1,0.2,0.2,0.2,0.3c0.2,0.2,0.3,0.4,0.5,0.5c0,0,0,0,0,0c1.9,1.7,4.9,2,7,0.6
			c0.1-0.1,0.2-0.2,0.3-0.2c0.6-0.4,1.1-1,1.4-1.6L102,221.5z"/>
		<path class="st55" d="M101,214.7c-0.3,0.5-0.6,0.9-1.1,1.3c-0.1,0.1-0.2,0.1-0.3,0.2c-1.9,1.2-4.4,0.9-6-0.5l0,0
			c-0.2-0.1-0.3-0.3-0.4-0.4c-0.1-0.1-0.1-0.2-0.2-0.3c-0.1-0.1-0.2-0.3-0.2-0.4l0.2-1.1c0,0,0,0.1,0.1,0.1c0.1,0.1,0.1,0.2,0.2,0.3
			c0.1,0.2,0.3,0.3,0.4,0.4l0,0c1.6,1.4,4.1,1.6,6,0.5c0.1-0.1,0.2-0.1,0.3-0.2c0.4-0.3,0.7-0.6,1-1L101,214.7z"/>
	</g>
</g>
<g>
	<g>
		<g>
			<linearGradient id="SVGID_10_" gradientUnits="userSpaceOnUse" x1="519.2246" y1="182.0015" x2="538.4874" y2="182.0015">
				<stop  offset="0.1444" style="stop-color:#B31B1B"/>
				<stop  offset="0.1463" style="stop-color:#BF2626"/>
				<stop  offset="0.5359" style="stop-color:#BF2626"/>
				<stop  offset="0.5375" style="stop-color:#CC3D3D"/>
				<stop  offset="0.8185" style="stop-color:#CC3D3D"/>
				<stop  offset="0.8264" style="stop-color:#BF2626"/>
			</linearGradient>
			<path class="st64" d="M538.5,181.8l0-3.2l-0.9,0c-0.3-0.5-0.6-1-1-1.5c-3-3.6-8.7-4.6-12.9-2.3c-0.2,0.1-0.4,0.2-0.5,0.3
				c-0.7,0.4-1.2,0.9-1.7,1.4c-0.7,0.8-1.3,1.6-1.6,2.5l-0.5,0v3c0.1,1.4,0.5,2.9,1.5,4.2c0.1,0.2,0.3,0.4,0.4,0.5
				c0.3,0.3,0.6,0.6,0.9,0.9c0,0,0,0,0,0c3.3,3,8.6,3.5,12.5,1.1c0.2-0.1,0.4-0.3,0.6-0.4c1.2-0.9,2.1-2,2.7-3.2
				c0.4-0.9,0.6-1.8,0.6-2.7C538.5,182.3,538.5,182,538.5,181.8z"/>
			<path class="st42" d="M538.5,179.5c0,0.9-0.3,1.8-0.6,2.7c-0.5,1.2-1.4,2.3-2.7,3.2c-0.2,0.2-0.4,0.3-0.6,0.4
				c-3.9,2.4-9.2,1.9-12.5-1.1c0,0,0,0,0,0c-0.3-0.3-0.6-0.6-0.9-0.9c-0.2-0.2-0.3-0.4-0.4-0.5c-0.9-1.3-1.4-2.8-1.5-4.2
				c0-0.6,0-1.1,0.1-1.7c0.3-1.4,1-2.7,2-3.8c0.5-0.5,1.1-1,1.7-1.4c0.2-0.1,0.3-0.2,0.5-0.3c4.2-2.3,9.9-1.3,12.9,2.3
				C538,175.8,538.6,177.7,538.5,179.5z"/>
		</g>
		<path class="st43" d="M536.4,178.8c0,0.7-0.2,1.4-0.5,2.1c-0.4,1-1.1,1.8-2.1,2.5c-0.1,0.1-0.3,0.2-0.5,0.3
			c-3,1.9-7.2,1.5-9.8-0.8c0,0,0,0,0,0c-0.3-0.2-0.5-0.5-0.7-0.7c-0.1-0.1-0.2-0.3-0.3-0.4c-0.7-1-1.1-2.2-1.1-3.3
			c0-0.3,0-0.6,0.1-0.9h0l0.4-3l0.2-1.3l0.7-5.1l0.2-1.3l0.8-5.3l0.2-1.2l0.8-5.5l0.2-1.1l0.4-2.8l7.1,0.2l0.4,2.8l0.2,1.1l0.8,5.5
			l0.2,1.3l0.8,5.3l0.2,1.3l0.8,5.2l0.2,1.3l0.5,3.1h0C536.4,178.3,536.4,178.5,536.4,178.8z"/>
		<path class="st44" d="M536.3,178L536.3,178l-3.9-27l-7.1-0.2l0,0l5.5,0.1l4,27l0,0c0,0.3,0,0.6,0,0.8c0,0.7-0.2,1.4-0.5,2.1
			c-0.4,1-1.1,1.8-2.1,2.5c-0.2,0.1-0.3,0.2-0.5,0.3c-1.1,0.7-2.3,1-3.5,1.2c1.8,0.2,3.6-0.2,5.1-1.2c0.2-0.1,0.3-0.2,0.5-0.3
			c0.9-0.7,1.6-1.6,2.1-2.5c0.3-0.7,0.5-1.4,0.5-2.1C536.4,178.5,536.4,178.2,536.3,178z"/>
		<path class="st45" d="M526,182.9C526,182.9,526,182.9,526,182.9c-0.3-0.3-0.5-0.5-0.7-0.8c-0.1-0.1-0.2-0.3-0.3-0.4
			c-0.7-1-1.1-2.1-1.1-3.3c0-0.3,0-0.6,0-0.9h0l3.9-26.7l-2.5-0.1l-3.9,26.8h0c0,0.3-0.1,0.6,0,0.9c0,1.1,0.4,2.3,1.1,3.3
			c0.1,0.1,0.2,0.3,0.3,0.4c0.2,0.3,0.4,0.5,0.7,0.7c0,0,0,0,0,0c1.8,1.6,4.3,2.3,6.7,1.9C528.7,184.6,527.2,184,526,182.9z"/>
		<path class="st46" d="M532.4,151c0,0.3-0.1,0.7-0.2,1c-0.2,0.4-0.5,0.9-1,1.2c-0.1,0.1-0.1,0.1-0.2,0.2c-1.4,0.9-3.4,0.7-4.6-0.4
			c0,0,0,0,0,0c-0.1-0.1-0.2-0.2-0.3-0.3c-0.1-0.1-0.1-0.1-0.2-0.2c-0.3-0.5-0.5-1-0.5-1.5c0-0.2,0-0.4,0.1-0.6
			c0.1-0.5,0.4-1,0.7-1.4c0.2-0.2,0.4-0.4,0.6-0.5c0.1,0,0.1-0.1,0.2-0.1c1.6-0.8,3.6-0.5,4.8,0.9
			C532.2,149.6,532.4,150.3,532.4,151z"/>
		<g>
			<linearGradient id="SVGID_11_" gradientUnits="userSpaceOnUse" x1="526.039" y1="148.836" x2="531.6723" y2="148.836">
				<stop  offset="0.1444" style="stop-color:#991717"/>
				<stop  offset="0.1463" style="stop-color:#A52121"/>
				<stop  offset="0.5359" style="stop-color:#A52121"/>
				<stop  offset="0.5375" style="stop-color:#B23535"/>
				<stop  offset="0.8185" style="stop-color:#B23535"/>
				<stop  offset="0.8264" style="stop-color:#A52121"/>
			</linearGradient>
			<path class="st65" d="M531.7,148.9c0,0.9,0,1.8,0,1.8c0,0.3-0.1,0.5-0.2,0.8c-0.2,0.4-0.4,0.7-0.8,0.9c-0.1,0-0.1,0.1-0.2,0.1
				c-1.1,0.7-2.7,0.6-3.7-0.3c0,0,0,0,0,0c-0.1-0.1-0.2-0.2-0.3-0.3c0-0.1-0.1-0.1-0.1-0.2c-0.3-0.4-0.4-0.8-0.4-1.2v-4.3h0.2
				c0.1-0.3,0.3-0.5,0.5-0.7c0.1-0.2,0.3-0.3,0.5-0.4c0,0,0,0,0.1,0c0,0,0.1,0,0.1-0.1c1-0.5,2.2-0.5,3.1,0.1
				c0.2,0.1,0.5,0.3,0.6,0.5c0.1,0.1,0.2,0.3,0.3,0.4l0.2,0h0.1v0.1l0,0.8C531.7,147.1,531.7,148,531.7,148.9z"/>
			<path class="st48" d="M531.7,148.9c-0.2,0.3-0.4,0.6-0.7,0.8c-0.1,0.1-0.1,0.1-0.2,0.1c-1.3,0.8-3.1,0.6-4.1-0.4c0,0,0,0,0,0
				c-0.1-0.1-0.2-0.2-0.3-0.3c-0.1-0.1-0.1-0.1-0.1-0.2c0-0.1-0.1-0.1-0.1-0.2v-2.5h0.2c0.1-0.3,0.3-0.5,0.5-0.7
				c0.1-0.2,0.3-0.3,0.5-0.4c0,0,0,0,0.1,0c1-0.5,2.3-0.5,3.3,0.1c0.4,0.2,0.7,0.4,0.9,0.7c0.1,0.1,0.1,0.2,0.2,0.2
				c0,0,0,0.1,0.1,0.1l0,0.8C531.7,147.1,531.7,148,531.7,148.9z"/>
			<path class="st49" d="M531.7,146.4c0,0.3-0.1,0.5-0.2,0.8c-0.2,0.4-0.4,0.7-0.8,0.9c-0.1,0-0.1,0.1-0.2,0.1
				c-1.1,0.7-2.7,0.6-3.7-0.3c0,0,0,0,0,0c-0.1-0.1-0.2-0.2-0.3-0.3c0-0.1-0.1-0.1-0.1-0.2c-0.3-0.4-0.4-0.8-0.4-1.2
				c0-0.2,0-0.3,0-0.5c0.1-0.4,0.3-0.8,0.6-1.1c0.1-0.2,0.3-0.3,0.5-0.4c0.1,0,0.1-0.1,0.2-0.1c1.2-0.7,2.9-0.4,3.8,0.7
				C531.5,145.3,531.7,145.9,531.7,146.4z"/>
		</g>
		<g>
			<linearGradient id="SVGID_12_" gradientUnits="userSpaceOnUse" x1="525.6697" y1="146.711" x2="532.04" y2="146.711">
				<stop  offset="0.1444" style="stop-color:#B31B1B"/>
				<stop  offset="0.1463" style="stop-color:#BF2626"/>
				<stop  offset="0.5359" style="stop-color:#BF2626"/>
				<stop  offset="0.5375" style="stop-color:#CC3D3D"/>
				<stop  offset="0.8185" style="stop-color:#CC3D3D"/>
				<stop  offset="0.8264" style="stop-color:#BF2626"/>
			</linearGradient>
			<path class="st66" d="M532,146.7l0-1l-0.3,0c-0.1-0.2-0.2-0.3-0.3-0.5c-1-1.2-2.9-1.5-4.3-0.8c-0.1,0-0.1,0.1-0.2,0.1
				c-0.2,0.1-0.4,0.3-0.6,0.5c-0.2,0.3-0.4,0.5-0.5,0.8l-0.2,0v1c0,0.5,0.2,1,0.5,1.4c0,0.1,0.1,0.1,0.1,0.2
				c0.1,0.1,0.2,0.2,0.3,0.3c0,0,0,0,0,0c1.1,1,2.9,1.2,4.1,0.4c0.1,0,0.1-0.1,0.2-0.1c0.4-0.3,0.7-0.7,0.9-1.1
				c0.1-0.3,0.2-0.6,0.2-0.9C532,146.8,532,146.7,532,146.7z"/>
			<path class="st46" d="M532,145.9c0,0.3-0.1,0.6-0.2,0.9c-0.2,0.4-0.5,0.8-0.9,1.1c-0.1,0-0.1,0.1-0.2,0.1
				c-1.3,0.8-3.1,0.6-4.1-0.4c0,0,0,0,0,0c-0.1-0.1-0.2-0.2-0.3-0.3c-0.1-0.1-0.1-0.1-0.1-0.2c-0.3-0.4-0.5-0.9-0.5-1.4v-0.1
				c0-0.2,0-0.3,0-0.5c0.1-0.5,0.3-0.9,0.7-1.3c0.2-0.2,0.4-0.3,0.6-0.5c0.1,0,0.1-0.1,0.2-0.1c0.9-0.5,1.9-0.5,2.8-0.2
				c0.6,0.2,1.1,0.5,1.5,1C531.9,144.7,532.1,145.3,532,145.9z"/>
			<path class="st48" d="M530.8,144.1l-3.5,2.9l-1.6-1.4c0-0.2,0-0.3,0-0.5c0.1-0.5,0.3-0.9,0.7-1.3c0.2-0.2,0.4-0.3,0.6-0.5
				c0.1,0,0.1-0.1,0.2-0.1c0.9-0.5,1.9-0.5,2.8-0.2L530.8,144.1z"/>
		</g>
		<g id="XMLID_1_">
			
				<linearGradient id="XMLID_53_" gradientUnits="userSpaceOnUse" x1="-58.6894" y1="145.68" x2="-54.416" y2="145.68" gradientTransform="matrix(-1 0 0 1 472.255 0)">
				<stop  offset="0.145" style="stop-color:#D9B538"/>
				<stop  offset="0.153" style="stop-color:#E6C03B"/>
				<stop  offset="0.4625" style="stop-color:#E6C03B"/>
				<stop  offset="0.4641" style="stop-color:#D9B538"/>
				<stop  offset="0.8537" style="stop-color:#D9B538"/>
				<stop  offset="0.8651" style="stop-color:#BF9B1D"/>
			</linearGradient>
			<path id="XMLID_7_" class="st67" d="M530.9,145.7L530.9,145.7l0-1.2h-0.5c0-0.1-0.1-0.1-0.1-0.2c-0.8-0.7-2.2-0.8-3,0
				c-0.1,0.1-0.1,0.1-0.2,0.2h-0.4v1.2h0c0,0.5,0.2,1,0.6,1.3c0.8,0.7,2.2,0.8,3,0C530.7,146.7,531,146.2,530.9,145.7z"/>
			<path id="XMLID_6_" class="st52" d="M530.9,144.5L530.9,144.5l-0.4-5.7H527l-0.4,5.6c0,0,0,0,0,0.1l0,0h0c0,0.5,0.2,1,0.6,1.3
				c0.8,0.7,2.2,0.8,3,0C530.7,145.5,531,145,530.9,144.5z"/>
			<path id="XMLID_5_" class="st53" d="M527.5,143.4c0.7-0.6,1.8-0.6,2.5,0c0.7,0.6,0.7,1.6,0,2.3c-0.7,0.6-1.8,0.6-2.5,0
				C526.8,145,526.8,144,527.5,143.4z"/>
			<path id="XMLID_4_" class="st54" d="M528.9,141.3c0.3-0.9,0.9-0.9,1.2,0c0.3,0.9,0.3,2.3,0,3.2c-0.3,0.9-0.9,0.9-1.2,0
				C528.5,143.6,528.5,142.2,528.9,141.3z"/>
			<path id="XMLID_3_" class="st53" d="M527.5,137.7c0.7-0.6,1.8-0.6,2.5,0c0.7,0.6,0.7,1.6,0,2.2c-0.7,0.6-1.8,0.6-2.5,0
				C526.9,139.3,526.9,138.3,527.5,137.7z"/>
		</g>
	</g>
	<g>
		<path class="st55" d="M535.9,174.8c-0.1,0.5-0.2,1-0.4,1.5c-0.4,0.9-1.1,1.7-1.9,2.4c-0.1,0.1-0.3,0.2-0.5,0.3
			c-2.9,1.8-6.8,1.4-9.2-0.8c0,0,0,0,0,0c-0.2-0.2-0.5-0.4-0.7-0.7c-0.1-0.1-0.2-0.3-0.3-0.4c-0.6-0.8-0.9-1.7-1-2.6l0.2-1.3
			c0.2,0.6,0.4,1.2,0.8,1.7c0.1,0.2,0.2,0.3,0.3,0.4c0.2,0.2,0.4,0.5,0.7,0.7c0,0,0,0,0,0c2.4,2.2,6.4,2.6,9.2,0.8
			c0.2-0.1,0.3-0.2,0.5-0.3c0.9-0.7,1.5-1.5,1.9-2.4c0.1-0.2,0.2-0.5,0.2-0.7L535.9,174.8z"/>
		<path class="st55" d="M534.9,168.4c-0.1,0.3-0.1,0.5-0.3,0.8c-0.4,0.8-0.9,1.5-1.7,2.1c-0.1,0.1-0.3,0.2-0.4,0.3
			c-2.5,1.6-6,1.2-8.1-0.7c0,0,0,0,0,0c-0.2-0.2-0.4-0.4-0.6-0.6c-0.1-0.1-0.2-0.2-0.3-0.4c-0.4-0.5-0.6-1.1-0.8-1.7l0.2-1.3
			c0.1,0.4,0.3,0.7,0.6,1.1c0.1,0.1,0.2,0.2,0.3,0.4c0.2,0.2,0.4,0.4,0.6,0.6c0,0,0,0,0,0c2.2,1.9,5.6,2.3,8.1,0.7
			c0.1-0.1,0.3-0.2,0.4-0.3c0.8-0.6,1.4-1.3,1.7-2.1c0-0.1,0.1-0.1,0.1-0.2L534.9,168.4z"/>
		<path class="st55" d="M534,161.7c0,0.1-0.1,0.1-0.1,0.2c-0.3,0.7-0.8,1.3-1.5,1.8c-0.1,0.1-0.2,0.2-0.3,0.2
			c-2.2,1.4-5.2,1.1-7-0.6c0,0,0,0,0,0c-0.2-0.2-0.3-0.3-0.5-0.5c-0.1-0.1-0.2-0.2-0.2-0.3c-0.2-0.3-0.4-0.6-0.5-1l0.2-1.2
			c0.1,0.2,0.2,0.4,0.3,0.6c0.1,0.1,0.2,0.2,0.2,0.3c0.2,0.2,0.3,0.4,0.5,0.5c0,0,0,0,0,0c1.9,1.7,4.9,2,7,0.6
			c0.1-0.1,0.2-0.2,0.3-0.2c0.6-0.4,1.1-1,1.4-1.6L534,161.7z"/>
		<path class="st55" d="M533,154.9c-0.3,0.5-0.6,0.9-1.1,1.3c-0.1,0.1-0.2,0.1-0.3,0.2c-1.9,1.2-4.4,0.9-6-0.5l0,0
			c-0.2-0.1-0.3-0.3-0.4-0.4c-0.1-0.1-0.1-0.2-0.2-0.3c-0.1-0.1-0.2-0.3-0.2-0.4l0.2-1.1c0,0,0,0.1,0.1,0.1c0.1,0.1,0.1,0.2,0.2,0.3
			c0.1,0.2,0.3,0.3,0.4,0.4l0,0c1.6,1.4,4.1,1.6,6,0.5c0.1-0.1,0.2-0.1,0.3-0.2c0.4-0.3,0.7-0.6,1-1L533,154.9z"/>
	</g>
</g>
</svg>
