<svg id="Layer_1" data-name="Layer 1" xmlns="http://www.w3.org/2000/svg" viewBox="0 0 357.66 344"><defs><style>.cls-1{fill:#eceff1;}.cls-2{fill:#cfd8dc;}.cls-3{fill:#dae1e6;}.cls-4{fill:#ffc4b2;}.cls-5{fill:#ffb199;}.cls-6{fill:#2680eb;}.cls-7{fill:#59b1d9;}.cls-8{fill:#fff;}.cls-9{fill:#293033;}.cls-10{fill:#63a8d5;}.cls-11{fill:#38454c;}.cls-12{fill:#ffab00;}.cls-13{fill:#f17910;}.cls-14{fill:#fe9400;}.cls-15{fill:#feba00;}.cls-16{fill:#a26a56;}.cls-17{fill:#9c614c;}.cls-18{fill:#915039;}.cls-19{fill:#fafbfc;}.cls-20{fill:#586a74;}</style></defs><title>Conduite</title><g id="conduite"><path id="Path_487" data-name="Path 487" class="cls-1" d="M580.52,383h0c4.75,35.4-28.6,64.32-64.2,55.69l-41.59-10.1-2-187.71,14.68,5.36,11,71.89a42.08,42.08,0,0,0,20.93,30.11Z" transform="translate(-300.05 -211.4)"/><path id="Path_488" data-name="Path 488" class="cls-1" d="M431.69,454.64l76.62-32-25.77-105-5-2.83a6,6,0,0,0-5.86,0L430.83,337a35.93,35.93,0,0,0-18.11,40.1Z" transform="translate(-300.05 -211.4)"/><path id="Path_489" data-name="Path 489" class="cls-2" d="M447.35,331.78c-.46-2.61-1.65-9.52-1.65-9.52l-5.21.21,1.61,9.87c.22,1.1,1.19,1.55,2.65,1.55s2.66-.69,2.66-1.55A5.32,5.32,0,0,0,447.35,331.78Z" transform="translate(-300.05 -211.4)"/><path id="Path_490" data-name="Path 490" class="cls-3" d="M411.78,366.61h0l-.9,109.82,27.24-15.18L423.92,376A11.47,11.47,0,0,0,411.78,366.61Z" transform="translate(-300.05 -211.4)"/><path id="Path_491" data-name="Path 491" class="cls-1" d="M429.32,298.43l34.42-18.54a4.32,4.32,0,0,1,5.38.87c6.8,7.84,5.74,18.91,3.28,26.06a12.18,12.18,0,0,1-5.51,6.59L433,332.73C434.94,319.68,438.07,309.91,429.32,298.43Z" transform="translate(-300.05 -211.4)"/><path id="Path_492" data-name="Path 492" class="cls-3" d="M426.09,301.54c-3.42,10.46-3.91,19.9,2.19,30.11a3.54,3.54,0,0,0,3.38,1.53h0c1.62-.15,3-1.58,3.8-2.75,5.5-8,7.73-23.18-2.65-31.55a3.7,3.7,0,0,0-2.69-.72h-.07A5,5,0,0,0,426.09,301.54Z" transform="translate(-300.05 -211.4)"/><path id="Path_493" data-name="Path 493" class="cls-4" d="M501.92,325.27c7,26.85,13.16,54.77,25.08,66l28-12.29L559.58,389l-39.5,19.62a131.26,131.26,0,0,1-30.49-61.32Z" transform="translate(-300.05 -211.4)"/><path id="Path_494" data-name="Path 494" class="cls-5" d="M508.49,385.78l-2.14,4.43A136.52,136.52,0,0,0,520,408.7l6.75-3.36h0Z" transform="translate(-300.05 -211.4)"/><path id="Path_495" data-name="Path 495" class="cls-6" d="M515.2,387.77a38.46,38.46,0,0,1,5.33-4.95c-8-13.71-13.09-36-18.69-57.57l-12.32,22a130.52,130.52,0,0,0,20.05,47.83,59.56,59.56,0,0,1,5.63-7.32Z" transform="translate(-300.05 -211.4)"/><path id="Path_496" data-name="Path 496" class="cls-6" d="M515.19,375.25A76.09,76.09,0,0,0,504,385.17a1.88,1.88,0,0,0-.26,2.24c1.25,2.16,2.57,4.31,3.94,6.44a2,2,0,0,0,2.78.54,2,2,0,0,0,.51-.49,62.24,62.24,0,0,1,4.64-5.74,45.71,45.71,0,0,1,4.69-4.54,1.86,1.86,0,0,0,.46-2.34q-1.37-2.46-2.62-5.21a2,2,0,0,0-1.26-1.08,2,2,0,0,0-1.66.26Z" transform="translate(-300.05 -211.4)"/><path id="Path_497" data-name="Path 497" class="cls-7" d="M485.38,315.87l-46.24,25.28c-.21,37.56-9.32,54.23.9,95.8,1.59,6.46,12.06,14.51,19.49,12.1l52.65-28.32c-11.59-20.89-10.63-54.57-9.73-89.69C502.45,325.39,500.65,309.32,485.38,315.87Z" transform="translate(-300.05 -211.4)"/><path id="Path_498" data-name="Path 498" class="cls-6" d="M504.32,350.8s-2.36-17.2-2.75-18.56c-1.45-5.11-5.4-8.8-9.58-9.66-4.66-1-5.45-3.85-5.45-3.85s5.69-6.5,10.8-3.05,7.54,17.85,7.54,17.85Z" transform="translate(-300.05 -211.4)"/><path id="Path_499" data-name="Path 499" class="cls-4" d="M489.86,368.58c-8.13-5.12-20.05-12.79-28.17-24.3-5.75-8.12-10.66-9.68-10.66-9.68,13.46-7.57,12.27-9.17,30.54-11.78l5.9,5.15C494.44,337.57,489.86,368.58,489.86,368.58Z" transform="translate(-300.05 -211.4)"/><path id="Path_500" data-name="Path 500" class="cls-8" d="M469.33,353.18c6.93,6.77,16.4,24.45,22.26,28.13,0-16.1.17-33.27-.46-40.15C491.14,341.16,477.88,349.4,469.33,353.18Z" transform="translate(-300.05 -211.4)"/><path id="Path_501" data-name="Path 501" class="cls-9" d="M491.4,345.68a159,159,0,0,1-19.3,10.56l.45.56a158.4,158.4,0,0,0,18.89-10.3C491.42,346.22,491.41,346,491.4,345.68Z" transform="translate(-300.05 -211.4)"/><path id="Path_502" data-name="Path 502" class="cls-9" d="M491.49,348.23a144.59,144.59,0,0,1-17.93,9.86l.44.57a145.82,145.82,0,0,0,17.51-9.61C491.5,348.77,491.49,348.5,491.49,348.23Z" transform="translate(-300.05 -211.4)"/><path id="Path_503" data-name="Path 503" class="cls-9" d="M491.54,350.79A131.37,131.37,0,0,1,475,360l.42.57a131.09,131.09,0,0,0,16.16-8.94C491.55,351.34,491.55,351.06,491.54,350.79Z" transform="translate(-300.05 -211.4)"/><path id="Path_504" data-name="Path 504" class="cls-9" d="M491.58,353.36a120.84,120.84,0,0,1-15.23,8.54l.41.57a121.48,121.48,0,0,0,14.83-8.28C491.59,353.91,491.59,353.64,491.58,353.36Z" transform="translate(-300.05 -211.4)"/><path id="Path_505" data-name="Path 505" class="cls-9" d="M491.61,356a112,112,0,0,1-13.91,7.88l.4.58a110.8,110.8,0,0,0,13.51-7.64C491.62,356.5,491.61,356.22,491.61,356Z" transform="translate(-300.05 -211.4)"/><path id="Path_506" data-name="Path 506" class="cls-9" d="M491.63,358.54a103.18,103.18,0,0,1-12.58,7.23l.4.58a105.54,105.54,0,0,0,12.18-7Z" transform="translate(-300.05 -211.4)"/><path id="Path_507" data-name="Path 507" class="cls-9" d="M491.64,361.14a95.86,95.86,0,0,1-11.26,6.57l.4.58a98.61,98.61,0,0,0,10.86-6.3Z" transform="translate(-300.05 -211.4)"/><path id="Path_508" data-name="Path 508" class="cls-9" d="M491.65,363.73a88.73,88.73,0,0,1-9.94,5.9l.39.57a92,92,0,0,0,9.53-5.62C491.64,364.29,491.65,364,491.65,363.73Z" transform="translate(-300.05 -211.4)"/><path id="Path_509" data-name="Path 509" class="cls-9" d="M491.65,366.33a83.56,83.56,0,0,1-8.59,5.21l.4.57a83.76,83.76,0,0,0,8.19-4.92Z" transform="translate(-300.05 -211.4)"/><path id="Path_510" data-name="Path 510" class="cls-9" d="M491.65,368.94a77.06,77.06,0,0,1-7.24,4.48l.41.56a77.75,77.75,0,0,0,6.82-4.18C491.64,369.51,491.64,369.22,491.65,368.94Z" transform="translate(-300.05 -211.4)"/><path id="Path_511" data-name="Path 511" class="cls-9" d="M491.64,371.55q-2.83,2-5.86,3.71l.43.55c1.79-1,3.61-2.15,5.43-3.41Z" transform="translate(-300.05 -211.4)"/><path id="Path_512" data-name="Path 512" class="cls-9" d="M491.64,374.16c-1.48,1-3,2-4.44,2.88l.45.54c1.32-.79,2.66-1.65,4-2.57C491.63,374.73,491.63,374.44,491.64,374.16Z" transform="translate(-300.05 -211.4)"/><path id="Path_513" data-name="Path 513" class="cls-6" d="M448.17,358.44,455.85,409,458,422.25l-1.37,2.69-12.8.38a90.55,90.55,0,0,1-7.29-20.89C434.39,393.51,448.17,358.44,448.17,358.44Z" transform="translate(-300.05 -211.4)"/><path id="Path_514" data-name="Path 514" class="cls-6" d="M452.14,336.88l4.92,30.17a4.5,4.5,0,0,0,4.26,3.72l7.81.39-3.89,4.35a2.17,2.17,0,0,0-.52,1.84,2.21,2.21,0,0,0,1.15,1.55l20.28,10.74-31.39-9.25Z" transform="translate(-300.05 -211.4)"/><path id="Path_515" data-name="Path 515" class="cls-10" d="M429.21,353.69c1.29,16.7,2.82,48.51,14.66,68.45l8.52-13.82-4.82-56.7a8.49,8.49,0,0,0-6.73-7.68h0a9.71,9.71,0,0,0-8.34,2A9.16,9.16,0,0,0,429.21,353.69Z" transform="translate(-300.05 -211.4)"/><path id="Path_516" data-name="Path 516" class="cls-6" d="M443.44,339.43a6.52,6.52,0,0,0-2.1.4c-1,.4-9.83,5.37-10.94,8.54,0,0,4.28-5.25,10.1-4.68Z" transform="translate(-300.05 -211.4)"/><path id="Path_517" data-name="Path 517" class="cls-6" d="M502.86,383.76l-24.51,12.7,24.92-8Z" transform="translate(-300.05 -211.4)"/><path id="Path_518" data-name="Path 518" class="cls-11" d="M489.42,320.79s1.29,5.25,2.69,9.15,2.33,39.4-9.9,59.54c-3.7,6.08-47.56,64.12-47.56,64.12l6.09,5.48S484.6,402,491.2,390.19c11-19.62,9.74-54.64,8.67-60.47s-7.95-17.33-7.95-17.33Z" transform="translate(-300.05 -211.4)"/><path id="Path_519" data-name="Path 519" class="cls-6" d="M462.38,326.53s11.41,28.89,20.37,44.86l-17.6-1.33a9,9,0,0,1-8.23-7.17c-1.76-9.09-4.77-24.55-6.11-28.22l1.54-2.54C454.13,329.52,462.38,326.53,462.38,326.53Z" transform="translate(-300.05 -211.4)"/><path id="Path_520" data-name="Path 520" class="cls-11" d="M510.31,434.65c-.32,0-.64,0-.95,0-6.21-.26-11-3-13.55-7.76-4.05-7.6-1.7-19,6.42-31.28,12.29-18.57,33.53-32.63,48.37-32,6.21.25,11,3,13.55,7.76,4.05,7.6,1.7,19-6.42,31.28h0C545.71,420.79,525.09,434.65,510.31,434.65Zm39.28-61.74c-11.39,0-29.18,12.53-39.25,27.75-7.22,10.9-7.73,18.61-6,21.9.34.63,1.36,2.54,5.41,2.71,11.38.47,29.6-12.23,39.87-27.73h0c7.22-10.9,7.73-18.61,6-21.9-.34-.63-1.36-2.55-5.41-2.72h-.62Z" transform="translate(-300.05 -211.4)"/><path id="Path_521" data-name="Path 521" class="cls-4" d="M509.46,403.66c-3.21-3-8-3.66-10.25-2.92-1.68.55-4.77,3.53-6.16,4.62-4.2,1.56-9.87,3.32-13.78,3.23-10.74-.22-27.4-1.06-27.4-1.06-11.35,4.06-7.9,14.68-7.9,14.68,1.75,1.25,24.06-.52,31.7-2.08,4.56-.94,10.82-2.62,15.13-3.82l3.08,1.33,9-1.45a39.67,39.67,0,0,1,3.17-4.13c1.5-1.06,1.85-4.65,2.74-4.78S510.16,404.33,509.46,403.66Z" transform="translate(-300.05 -211.4)"/><path id="Path_522" data-name="Path 522" class="cls-5" d="M443.45,418.61a12.61,12.61,0,0,0,.5,3.62c1.75,1.25,24.05-.52,31.7-2.08,4.34-.9,10.21-2.46,14.49-3.65A290.29,290.29,0,0,1,443.45,418.61Z" transform="translate(-300.05 -211.4)"/><path id="Path_523" data-name="Path 523" class="cls-12" d="M486.29,417.5c-.41,3.47-2.08,5.85-3.11,5.85-1.2,0-3-3-3-7.64s1.76-7.63,3-7.63a1.06,1.06,0,0,1,.57.2,28.2,28.2,0,0,1,3-.8,4.22,4.22,0,0,0-3.56-2c-3.19,0-5.59,4.38-5.59,10.19s2.4,10.19,5.59,10.19c2.5,0,5-5,5.7-9C488.08,417,487,417.36,486.29,417.5Z" transform="translate(-300.05 -211.4)"/><path id="Path_524" data-name="Path 524" class="cls-12" d="M492,416.9c-.48-.3-.76-.41-1.24-.71-.4,3.47-2.08,5.85-3.1,5.85-1.21,0-3-3-3-7.64s1.75-7.63,3-7.63a1,1,0,0,1,.56.2,26.17,26.17,0,0,1,3-.8,4.23,4.23,0,0,0-3.57-2c-3.18,0-5.58,4.38-5.58,10.19s2.39,10.19,5.58,10.19c2.5,0,4.57-3.35,5.31-7.35C492.69,417.06,492.37,417.11,492,416.9Z" transform="translate(-300.05 -211.4)"/><path id="Path_525" data-name="Path 525" class="cls-1" d="M332.85,510.64l78-27.76L383.71,373.67l-5-2.83a6,6,0,0,0-5.86,0L332,393a35.94,35.94,0,0,0-18.11,40.1Z" transform="translate(-300.05 -211.4)"/><path id="Path_526" data-name="Path 526" class="cls-2" d="M348.55,387.47,346.91,378l-5.22.21S343.3,388,343.3,388c.22,1.1,1.19,1.55,2.66,1.55s2.65-.69,2.65-1.55A5.32,5.32,0,0,0,348.55,387.47Z" transform="translate(-300.05 -211.4)"/><path id="Path_527" data-name="Path 527" class="cls-3" d="M315.56,411.13c-7.53,16.7-8.71,62.44-3.86,100.52,1.6,12.59,15.85,19.54,27.16,13.23l1.52-.84-15.2-92.15C324.23,426.17,321.5,410.74,315.56,411.13Z" transform="translate(-300.05 -211.4)"/><path id="Path_528" data-name="Path 528" class="cls-1" d="M328.12,355.6c1.84-3.25,24-15.16,36.8-20a4.33,4.33,0,0,1,5.38.87c6.81,7.84,5.75,18.92,3.28,26.07a12.13,12.13,0,0,1-5.51,6.59l-33.94,19.31C336.12,375.39,336.87,367.1,328.12,355.6Z" transform="translate(-300.05 -211.4)"/><path id="Path_529" data-name="Path 529" class="cls-4" d="M417.21,396.38c4.09,29.75,10.2,64.26,23.06,75.66l-21.61,10.07L400,423.52Z" transform="translate(-300.05 -211.4)"/><path id="Path_530" data-name="Path 530" class="cls-13" d="M427.93,440c-6.58-14.7-6.9-28.18-10.35-43.39l-17.25,27.14,8.14,23.92C415.72,446.49,421.67,443.61,427.93,440Z" transform="translate(-300.05 -211.4)"/><path id="Path_531" data-name="Path 531" class="cls-14" d="M354.58,519.59l65.13-37.17s-1.92-52.49-1.25-78.5c0-6.27-8.48-39.76-32.06-28.45l-46.25,25.17c-2.66,8.27-6.17,13.45-6.87,21.44-2.35,26.53,3,51.16,11.32,85.13A18.81,18.81,0,0,0,354.58,519.59Z" transform="translate(-300.05 -211.4)"/><path id="Path_536" data-name="Path 536" class="cls-4" d="M346.91,402.07a10.87,10.87,0,0,0-9.41,1.74,10.24,10.24,0,0,0-4.14,8.4c.26,12.64-1.1,47.29,10.82,73.22,10.75,9.37,20.33,9.13,43.06,12.15a76.6,76.6,0,0,0,20-9.1c-13.49-3.06-43.45-8.37-46.91-13.52-8.5-27.48-6.42-64-6.42-64a9.44,9.44,0,0,0-7-8.94Z" transform="translate(-300.05 -211.4)"/><path id="Path_537" data-name="Path 537" class="cls-13" d="M362.77,460.67l-8-51a10.57,10.57,0,0,0-7.53-9.94c-7.36-2.05-13.49,3.71-15.38,10.92-3,11.45,1.47,50.22,1.47,50.22C341.17,463,355.2,462.39,362.77,460.67Z" transform="translate(-300.05 -211.4)"/><path id="Path_538" data-name="Path 538" class="cls-15" d="M359.06,460.91l-4.28-51.21a10.6,10.6,0,0,0-7.54-9.95c-7.35-2-13.49,3.71-15.37,10.92-3,11.46,1.46,50.23,1.46,50.23C341.17,463,351.48,462.63,359.06,460.91Z" transform="translate(-300.05 -211.4)"/><path id="Path_539" data-name="Path 539" class="cls-15" d="M390,388.83c1.18,4.74.53,10.42-7.45,12.28-8.45,2-21.22-4.69-21.33-11.27-.09-4.86,6.71-7.4,14.92-7.4S388.49,382.94,390,388.83Z" transform="translate(-300.05 -211.4)"/><path id="Path_540" data-name="Path 540" class="cls-5" d="M380.65,395.63c9.3,0,6.61-15.35,7.16-26.93H364.36c.62,3.56,1,11.11-.46,15.27a3.93,3.93,0,0,0,.42,3.67A19.94,19.94,0,0,0,380.65,395.63Z" transform="translate(-300.05 -211.4)"/><path id="Path_541" data-name="Path 541" class="cls-16" d="M390.45,366c-4.17-3.79-14.82-7.92-15.6-8.22,0,0-.05,0-.05-.07V339.08l24.72,4.64.9,17.87a6,6,0,0,1-10,4.44Z" transform="translate(-300.05 -211.4)"/><path id="Path_542" data-name="Path 542" class="cls-4" d="M399.48,357.47c0,12.35-2.5,26.6-12.56,26.6s-22.43-12.84-22.43-25.2,10.79-19.58,20.85-19.58S399.48,345.13,399.48,357.47Z" transform="translate(-300.05 -211.4)"/><path id="Path_543" data-name="Path 543" class="cls-4" d="M397.81,373.92c0-1.85-1.79-2.9-4-2.34l-2.22.56c-3.36.86-6.09,3.85-6.09,6.68h0a1.7,1.7,0,0,1-.73,1.42,1.83,1.83,0,0,1-1.62.24A15,15,0,0,1,373,369.2a.29.29,0,0,1,0-.13l.71-15.38a.44.44,0,0,0-.22-.42.48.48,0,0,0-.49,0l-3,1.5a.46.46,0,0,0-.27.42l.22,13.92h0c.69,12,9.22,18,18.7,18.08,4.93.06,9-3.87,9-10.1v-.15a16.71,16.71,0,0,0,.13-3Zm-3,4.74c-.48,2.3-2.46,2.66-4.48,2.7a1.82,1.82,0,0,1-1.29-.5,1.67,1.67,0,0,1-.54-1.24v-1.55a4,4,0,0,1,3.11-3.41l2.22-.57c.55-.14,1,.12,1,.59v3.64Z" transform="translate(-300.05 -211.4)"/><path id="Path_544" data-name="Path 544" class="cls-8" d="M389.19,376.49a.86.86,0,0,0-.3,1.17.85.85,0,0,0,.24.26,3,3,0,0,0,1.34.41,5.11,5.11,0,0,0,2.18-.42,3.92,3.92,0,0,0,1.75-1.57,4,4,0,0,0,.22-1.72,5,5,0,0,1-1.56,1.05,9.7,9.7,0,0,1-3.65.77.59.59,0,0,0-.22.05" transform="translate(-300.05 -211.4)"/><path id="Path_545" data-name="Path 545" class="cls-5" d="M393.9,368a12.31,12.31,0,0,1-2.3,1.14,10.72,10.72,0,0,1-2.4-.09c-.12,0-.18.11-.17.28a2.35,2.35,0,0,0,2.73,1.5,3.3,3.3,0,0,0,2.36-2.64c0-.17-.09-.22-.22-.19" transform="translate(-300.05 -211.4)"/><path id="Path_546" data-name="Path 546" class="cls-17" d="M397.81,373.92c0-1.85-1.79-2.9-4-2.34l-2.22.56c-3.36.86-6.09,3.85-6.09,6.68h0a1.7,1.7,0,0,1-.73,1.42,1.83,1.83,0,0,1-1.62.24A15,15,0,0,1,373,369.2a.29.29,0,0,1,0-.13l.71-15.38a.44.44,0,0,0-.22-.42.48.48,0,0,0-.49,0l-3,1.5a.46.46,0,0,0-.27.42l.22,13.92h0c.69,12,9.22,18,18.7,18.08,4.93.06,9-3.87,9-10.1v-.15a16.71,16.71,0,0,0,.13-3Zm-3,4.74c-.48,2.3-2.46,2.66-4.48,2.7a1.82,1.82,0,0,1-1.29-.5,1.67,1.67,0,0,1-.54-1.24v-1.55a4,4,0,0,1,3.11-3.41l2.22-.57c.55-.14,1,.12,1,.59v3.64Z" transform="translate(-300.05 -211.4)"/><path id="Path_547" data-name="Path 547" class="cls-18" d="M403.53,354.06l-.67-.51a.34.34,0,0,1-.08-.47.24.24,0,0,1,.1-.1,3.36,3.36,0,0,0,.7-.6.34.34,0,0,0,.07-.32.37.37,0,0,0-.24-.23,4.86,4.86,0,0,1-2-1.71,9.62,9.62,0,0,0-.13-1.69c-.63-8.85-6.38-15.13-17.27-16.7,0,0-5.58-3.39-10-3.18-15.75.55-22.91,17.65-17.19,31.38,3.4,8.38,1.07,8.87,5,9.77a85.16,85.16,0,0,1,3.4,9c-.54-5.34-.71-18.7,5.86-22.28a13.37,13.37,0,0,0,11.26.51c3.39-1.6,7.84-4.8,11.31-5.25a5.47,5.47,0,0,1,5.22,1.91,15.74,15.74,0,0,0,.68,3.67,8.85,8.85,0,0,0,4-2.75.29.29,0,0,0,.07-.24.32.32,0,0,0-.13-.22Z" transform="translate(-300.05 -211.4)"/><path id="Path_548" data-name="Path 548" class="cls-18" d="M404.13,354.33l-.66-.64a.5.5,0,0,1,0-.7l0,0a3.73,3.73,0,0,0,.67-.76.54.54,0,0,0,.06-.39.55.55,0,0,0-.25-.31,5.47,5.47,0,0,1-2-2.08,14.48,14.48,0,0,0-.18-2.08c-.93-11.11-7-17.6-17.65-17,0,0-5.74-2.43-9.93-1.34-15,3.71-19.32,17.91-15.09,30.08,2.64,7.55.16,7.86,3.89,9a48.05,48.05,0,0,1,2,8.54c.65-4.88,1.72-16.95,7.89-20.3,3.81,1.94,7.76,2.23,10.75.83,3.3-1.53,7.57-5,10.9-5.66a4.82,4.82,0,0,1,5.1,2.24,24.27,24.27,0,0,0,.69,4.48c1.85-.51,3.34-2.48,3.88-3.28A.49.49,0,0,0,404.13,354.33Z" transform="translate(-300.05 -211.4)"/><path id="Path_549" data-name="Path 549" class="cls-18" d="M403.57,354.22l-.64-.6a.43.43,0,0,1-.06-.61l.06-.05a3.55,3.55,0,0,0,.64-.7.43.43,0,0,0,.06-.35.49.49,0,0,0-.23-.28,5.1,5.1,0,0,1-1.9-1.93,15.38,15.38,0,0,0-.16-1.93c-.75-10.24-6.52-16.5-17.2-16.5,0,0-5.7-2.62-9.91-1.78-15,3-19.33,17.56-15.1,29.63,2.63,7.54.16,7.86,3.89,8.95a47.11,47.11,0,0,1,2,8.47c.64-4.86,1.72-16.91,7.87-20.25,3.8,1.9,7.72,2.12,10.68.74,3.26-1.52,7.45-4.86,10.7-5.44a4.83,4.83,0,0,1,5,2.09,21,21,0,0,0,.69,4.16,8,8,0,0,0,3.73-3.06.44.44,0,0,0-.05-.56Z" transform="translate(-300.05 -211.4)"/><path id="Path_550" data-name="Path 550" class="cls-4" d="M370.9,362.54c0,3.68-.3,6.88-2.86,6.88s-4.75-4-5.09-8.23c-.29-3.66.77-5.32,3.32-5.32S370.9,358.86,370.9,362.54Z" transform="translate(-300.05 -211.4)"/><path id="Path_551" data-name="Path 551" class="cls-5" d="M344.19,485.48h0c10.76,9.37,20.33,9.13,43.07,12.15,0,0,2.14-5.74,10.24-10C372.45,489.27,367.27,496.22,344.19,485.48Z" transform="translate(-300.05 -211.4)"/><path id="Path_552" data-name="Path 552" class="cls-2" d="M326.79,357.6c-4.14,10.21-3.38,19.53,2.71,29.76a3.56,3.56,0,0,0,3.39,1.52h0c1.62-.15,3-1.58,3.8-2.75,5.5-8,7.72-23.18-2.65-31.55a3.83,3.83,0,0,0-2.7-.74h-.07A5.59,5.59,0,0,0,326.79,357.6Z" transform="translate(-300.05 -211.4)"/><path id="Path_553" data-name="Path 553" class="cls-1" d="M534.5,280.05s22.19,34.11,28.4,49.23,20,46.64,17.31,53.11-11.54,11.66-11.54,11.66,36.84,18.57,43,16.84-4-28.5-8.43-35.84-55-92.4-55-92.4Z" transform="translate(-300.05 -211.4)"/><path id="Path_554" data-name="Path 554" class="cls-1" d="M574.74,384.4c-5.75-3-22.39-10.16-43,1.45-12.18,6.86-17.36,16.85-24.81,27.36a63.87,63.87,0,0,1-29.14,22.53c-44.4,17.16-84.17,40.17-122.36,65.15-14.62,9.56-19.07,14.62-48.83-38.12-4.56,2.54-4.5,48.75,10.3,60.91a60.18,60.18,0,0,0,50.38,12.77c57.53-10.91,102.8-30.28,145.08-58.28A486.3,486.3,0,0,0,595,408.33c3.93-4.16-1.14-12.08-6-15.22S578.48,386.37,574.74,384.4Z" transform="translate(-300.05 -211.4)"/><path id="Path_555" data-name="Path 555" class="cls-1" d="M593,394.32s8.26,4.16,2.54,12.5S543,460.39,513,476.55s-88.6,52.71-152.18,58.22a40.2,40.2,0,0,1-29.8-9.24s-1.43,18.94,27.16,19.4,139.1-31,182.93-62.83S614.94,416,616.36,410s-5.72-22.64-5.72-22.64Z" transform="translate(-300.05 -211.4)"/><path id="Path_556" data-name="Path 556" class="cls-19" d="M623.87,386.92c-20-31.1-65.45-102.41-75.11-109.25-8.88-6.28-109.62-61-119.31-66.27v6.16a11.21,11.21,0,0,0,6.24,10c16.46,8.29,94.78,49.23,101.67,55.25,8.78,7.69,50.64,77.62,58.9,94.86,5.3,11.09,14,26.42-.09,38.38C582.7,427.5,505.23,514.1,367.74,538a40.46,40.46,0,0,1-41.23-18.16c-14.59-23.43-19.9-57.32-19.9-57.32-1,1.18-2,2.36-2.84,3.48-4,5.35-4.27,10.68-3.14,17.22,2,11.35,7.69,35.64,7.69,35.64,5.2,21.2,24.54,36.24,46.93,36.5,48.46.58,132.86-4.26,194.4-39.39,48-27.4,79.74-52,99.05-69.1a26.33,26.33,0,0,0,2.51-37.15,26.64,26.64,0,0,0-5.37-4.68C636.12,398.56,626.87,391.6,623.87,386.92Z" transform="translate(-300.05 -211.4)"/><path id="Path_557" data-name="Path 557" class="cls-3" d="M454,477.06a.87.87,0,0,1-.82-.59.82.82,0,0,1,.36-.93,332.29,332.29,0,0,1,43.18-23.35.88.88,0,0,1,1.14.41.82.82,0,0,1-.4,1.09h0a330.22,330.22,0,0,0-43,23.23A.85.85,0,0,1,454,477.06Z" transform="translate(-300.05 -211.4)"/><path id="Path_558" data-name="Path 558" class="cls-3" d="M458.46,481.54a.87.87,0,0,1-.82-.59A.82.82,0,0,1,458,480a332.41,332.41,0,0,1,43.19-23.35.85.85,0,0,1,1.13.4.82.82,0,0,1-.4,1.09h0a332,332,0,0,0-43,23.23A.92.92,0,0,1,458.46,481.54Z" transform="translate(-300.05 -211.4)"/><path id="Path_559" data-name="Path 559" class="cls-8" d="M478.66,324.09a1.07,1.07,0,0,0-.63,1.38,1,1,0,0,0,.22.35,3.58,3.58,0,0,0,1.53.8,6.44,6.44,0,0,0,2.73,0,5,5,0,0,0,2.5-1.52,4.74,4.74,0,0,0,.67-2,6.22,6.22,0,0,1-2.14.9,11.64,11.64,0,0,1-4.59.14.66.66,0,0,0-.28,0" transform="translate(-300.05 -211.4)"/><path id="Path_560" data-name="Path 560" class="cls-5" d="M485.2,319.26a12.94,12.94,0,0,1-2.41.9,10.14,10.14,0,0,1-2.38-.35c-.13,0-.2.09-.2.26a2.34,2.34,0,0,0,2.54,1.77,3.3,3.3,0,0,0,2.64-2.37c0-.17-.06-.23-.19-.22" transform="translate(-300.05 -211.4)"/><path id="Path_561" data-name="Path 561" class="cls-8" d="M478.66,324.09a1.07,1.07,0,0,0-.63,1.38,1,1,0,0,0,.22.35,3.58,3.58,0,0,0,1.53.8,6.44,6.44,0,0,0,2.73,0,5,5,0,0,0,2.5-1.52,4.74,4.74,0,0,0,.67-2,6.22,6.22,0,0,1-2.14.9,11.64,11.64,0,0,1-4.59.14.66.66,0,0,0-.28,0" transform="translate(-300.05 -211.4)"/><path id="Path_562" data-name="Path 562" class="cls-5" d="M485.2,319.26a12.94,12.94,0,0,1-2.41.9,10.14,10.14,0,0,1-2.38-.35c-.13,0-.2.09-.2.26a2.34,2.34,0,0,0,2.54,1.77,3.3,3.3,0,0,0,2.64-2.37c0-.17-.06-.23-.19-.22" transform="translate(-300.05 -211.4)"/><path id="Path_563" data-name="Path 563" class="cls-11" d="M462.21,276.73c.05.52.27-8.85-9.86-9.4-14.69.5-18.49,18.56-11.08,32.38,6.85,13.5,8.08,29.58,20.55,26.57C467.22,325,460.06,286.58,462.21,276.73Z" transform="translate(-300.05 -211.4)"/><path id="Path_575" data-name="Path 575" class="cls-20" d="M452.08,274.09c4.13-2,8.73-1,10.29,2.05s-.54,7.18-4.66,9.15-8.73,1-10.28-2.05S448,276.06,452.08,274.09Z" transform="translate(-300.05 -211.4)"/><path id="Path_564" data-name="Path 564" class="cls-4" d="M493.94,305.08c-.88,12.5-5.76,26.65-15.95,26s-20.45-14.41-19.57-26.91,8.2-19.33,18.38-18.65S494.83,292.57,493.94,305.08Z" transform="translate(-300.05 -211.4)"/><path id="Path_565" data-name="Path 565" class="cls-5" d="M488.51,329.67l-3.39,1.46a82.72,82.72,0,0,0,.16-9.18,5.76,5.76,0,0,0-5.83-5.63H462.64c.57,3.27.94,6.43-.24,10.16h0s1.12,2.81,2.92,7.17a18.71,18.71,0,0,0,5.82,3.47l-3.69,1.58.71,1.71,8.4-2.08c.62.05,1.24.09,1.87.09,3,0,4.72-1.24,5.68-3.29a35.68,35.68,0,0,1,4.62-3.08,2.19,2.19,0,0,0,.61-.39,18.1,18.1,0,0,0-.82-2Z" transform="translate(-300.05 -211.4)"/><path id="Path_566" data-name="Path 566" class="cls-11" d="M461.52,319.74c-7.44-5.31-10.79-11.62-11.39-20.43s-1.25-13.56,4.07-19,11.95-6.63,21.56-3.75a27.72,27.72,0,0,1,18.63,19.25c2.14,7.58-3,20.27-8.17,22.45S469,325.06,461.52,319.74Z" transform="translate(-300.05 -211.4)"/><path id="Path_567" data-name="Path 567" class="cls-4" d="M493.94,305.08c-.88,12.5-5.76,26.65-15.95,26s-20.45-14.41-19.57-26.91,8.2-19.33,18.38-18.65S494.83,292.57,493.94,305.08Z" transform="translate(-300.05 -211.4)"/><path id="Path_568" data-name="Path 568" class="cls-11" d="M463.21,307.3c1.51,3.82,3.29,5.4,8.58,1.37,7.67-5.86,12.44,3.28,20.67-8.94,1.2,2.65,1,3.84,1.26,7.79,0,0,1.9-2.47.68-11.71-9.44-10.33-6.78-11.46-6.78-11.46l-26-.4-4.88,24.11S462.81,306.33,463.21,307.3Z" transform="translate(-300.05 -211.4)"/><path id="Path_569" data-name="Path 569" class="cls-4" d="M464.08,309c-.19,2.68-.56,5-2.42,4.86s-3.25-3.15-3.27-6.22c0-2.68.82-3.82,2.68-3.7S464.27,306.29,464.08,309Z" transform="translate(-300.05 -211.4)"/><path id="Path_570" data-name="Path 570" class="cls-8" d="M478.66,324.09a1.07,1.07,0,0,0-.63,1.38,1,1,0,0,0,.22.35,3.58,3.58,0,0,0,1.53.8,6.44,6.44,0,0,0,2.73,0,5,5,0,0,0,2.5-1.52,4.74,4.74,0,0,0,.67-2,6.22,6.22,0,0,1-2.14.9,11.64,11.64,0,0,1-4.59.14.66.66,0,0,0-.28,0" transform="translate(-300.05 -211.4)"/><path id="Path_571" data-name="Path 571" class="cls-5" d="M485.2,319.26a12.94,12.94,0,0,1-2.41.9,10.14,10.14,0,0,1-2.38-.35c-.13,0-.2.09-.2.26a2.34,2.34,0,0,0,2.54,1.77,3.3,3.3,0,0,0,2.64-2.37c0-.17-.06-.23-.19-.22" transform="translate(-300.05 -211.4)"/><path id="Path_572" data-name="Path 572" class="cls-5" d="M494,417.63l9-1.46a38.22,38.22,0,0,1,3.17-4.12c.85-.6,1.33-2,1.75-3.15-2.65,1.37-4.57,1.83-5.62,3.92-1.23,2.43-6,2.8-11.19,3.56Z" transform="translate(-300.05 -211.4)"/><path id="Path_573" data-name="Path 573" class="cls-5" d="M488.59,416.93l1.39-.39A5.64,5.64,0,0,0,488.59,416.93Z" transform="translate(-300.05 -211.4)"/><path id="Path_574" data-name="Path 574" class="cls-11" d="M421.48,453a14.93,14.93,0,0,0-5.84-11.41C399.44,429,372.8,409,362.57,404.34c-9.71-4.4-28.28-7.37-35.57-8.41a5.4,5.4,0,0,0-4.93,1.9l-3,3.68a2.19,2.19,0,0,0-.36,2.22,2.31,2.31,0,0,0,1.78,1.43c8.86,1.54,30.35,5.45,37.1,8.49,15.41,7,49.48,34.3,61.61,44.2l.16,3.18h0a4.63,4.63,0,0,0,2.3-4.13C421.57,455.58,421.52,454.27,421.48,453Z" transform="translate(-300.05 -211.4)"/></g></svg>