<svg id="Layer_1" data-name="Layer 1" xmlns="http://www.w3.org/2000/svg" viewBox="0 0 800 800"><defs><style>.cls-1{fill:#fff;}.cls-2{fill:#4d4d4d;}.cls-3{fill:#f2f2f2;}.cls-4{fill:#b3b3b3;}.cls-5{fill:#ff4522;}.cls-6{fill:#47dee5;}.cls-7{fill:#999;}</style></defs><title>6</title><g id="background"><rect class="cls-1" width="800" height="800"/></g><g id="objects"><path class="cls-2" d="M500.2,505h-4s-23.6-6.3-23.6-72c0-19.4-104-19.4-104,1.4,0,63.3-24.2,70.6-24.2,70.6h-3.3a5.16,5.16,0,0,0-5.2,5.2v2.6a5.16,5.16,0,0,0,5.2,5.2h159c2.9,0,5.8-2.3,5.8-5.2v-2.6C506,507.3,503.1,505,500.2,505Z"/><path class="cls-2" d="M605.2,176H235.6c-7.1,0-13.6,3.7-13.6,10.9V444.8c0,7.1,6.5,16.3,13.6,16.3H605.2c7.1,0,10.8-9.2,10.8-16.3V186.9C616,179.7,612.3,176,605.2,176Z"/><rect class="cls-3" x="241" y="197" width="356" height="204"/><path class="cls-4" d="M436.5,431.7a16.09,16.09,0,0,1-16.1,16.1h0a16.09,16.09,0,0,1-16.1-16.1h0a16.09,16.09,0,0,1,16.1-16.1h0a16.09,16.09,0,0,1,16.1,16.1Z"/><path class="cls-5" d="M379,225.7c0,2.9-2.4,5.3-5.8,5.3H306.8c-3.4,0-6.7-2.4-6.7-5.3V215.3c0-2.9,3.3-5.3,6.7-5.3h66.4c3.4,0,5.8,2.4,5.8,5.3Z"/><path class="cls-6" d="M537,292.7c0,2.9-2.6,5.3-6.1,5.3H306.7c-3.4,0-6.7-2.4-6.7-5.3V243.3c0-2.9,3.3-5.3,6.7-5.3H530.9c3.4,0,6.1,2.4,6.1,5.3Z"/><path class="cls-7" d="M373,334.7a5.37,5.37,0,0,1-5.7,5.3H306.7c-3.4,0-6.7-2.4-6.7-5.3V308.3c0-2.9,3.3-5.3,6.7-5.3h60.6a5.37,5.37,0,0,1,5.7,5.3Z"/><path class="cls-7" d="M453,334.7c0,2.9-2.2,5.3-5.7,5.3H386.7c-3.4,0-6.8-2.4-6.8-5.3V308.3c0-2.9,3.3-5.3,6.8-5.3h60.6a5.37,5.37,0,0,1,5.7,5.3Z"/><path class="cls-7" d="M537,334.7c0,2.9-2.6,5.3-6.1,5.3H470.3c-3.4,0-6.4-2.4-6.4-5.3V308.3c0-2.9,2.9-5.3,6.4-5.3h60.6c3.4,0,6.1,2.4,6.1,5.3Z"/><path class="cls-4" d="M453,350a1.87,1.87,0,0,1-2.1,2H383.4c-1.4,0-3.4-.8-3.4-2v-.9c0-1.2,2.1-2.1,3.4-2.1h67.5a1.94,1.94,0,0,1,2.1,2.1Z"/><path class="cls-4" d="M453,358.8a2,2,0,0,1-2.1,2.2H383.4c-1.4,0-3.4-1-3.4-2.2v-.9c0-1.2,2.1-1.9,3.4-1.9h67.5c1.4,0,2.1.7,2.1,1.9Z"/><path class="cls-4" d="M453,367.6a2.18,2.18,0,0,1-2.1,2.4H383.4c-1.4,0-3.4-1.2-3.4-2.4v-.9c0-1.2,2.1-1.7,3.4-1.7h67.5c1.4,0,2.1.5,2.1,1.7Z"/><path class="cls-4" d="M453,376.4c0,1.2-.7,2.6-2.1,2.6H383.4c-1.4,0-3.4-1.4-3.4-2.6v-.9c0-1.2,2.1-2.5,3.4-2.5h67.5a2.27,2.27,0,0,1,2.1,2.5Z"/><path class="cls-4" d="M420,385.2c0,1.2-.8,1.8-2.2,1.8H383.5c-1.4,0-3.4-.6-3.4-1.8v-.9c0-1.2,2.1-2.3,3.4-2.3h34.3a2.18,2.18,0,0,1,2.2,2.3Z"/><path class="cls-4" d="M535,350c0,1.2.2,2-1.2,2H466.3a2,2,0,0,1-2.3-2v-.9a2.11,2.11,0,0,1,2.3-2.1h67.5c1.4,0,1.2.9,1.2,2.1Z"/><path class="cls-4" d="M535,358.8c0,1.2.2,2.2-1.2,2.2H466.3a2.18,2.18,0,0,1-2.3-2.2v-.9c0-1.2.9-1.9,2.3-1.9h67.5c1.4,0,1.2.7,1.2,1.9Z"/><path class="cls-4" d="M535,367.6c0,1.2.2,2.4-1.2,2.4H466.3a2.35,2.35,0,0,1-2.3-2.4v-.9c0-1.2.9-1.7,2.3-1.7h67.5c1.4,0,1.2.5,1.2,1.7Z"/><path class="cls-4" d="M535,376.4c0,1.2.2,2.6-1.2,2.6H466.3a2.52,2.52,0,0,1-2.3-2.6v-.9a2.43,2.43,0,0,1,2.3-2.5h67.5c1.4,0,1.2,1.3,1.2,2.5Z"/><path class="cls-4" d="M502,385.2c0,1.2.1,1.8-1.3,1.8H466.4c-1.4,0-2.3-.6-2.3-1.8v-.9a2.26,2.26,0,0,1,2.3-2.3h34.3c1.4,0,1.3,1.1,1.3,2.3Z"/><path class="cls-4" d="M372,350c0,1.2-.5,2-1.9,2H302.6c-1.4,0-2.6-.8-2.6-2v-.9a2.39,2.39,0,0,1,2.6-2.1h67.5c1.4,0,1.9.9,1.9,2.1Z"/><path class="cls-4" d="M372,358.8c0,1.2-.5,2.2-1.9,2.2H302.6a2.46,2.46,0,0,1-2.6-2.2v-.9c0-1.2,1.2-1.9,2.6-1.9h67.5c1.4,0,1.9.7,1.9,1.9Z"/><path class="cls-4" d="M372,367.6c0,1.2-.5,2.4-1.9,2.4H302.6a2.62,2.62,0,0,1-2.6-2.4v-.9c0-1.2,1.2-1.7,2.6-1.7h67.5c1.4,0,1.9.5,1.9,1.7Z"/><path class="cls-4" d="M372,376.4c0,1.2-.5,2.6-1.9,2.6H302.6a2.79,2.79,0,0,1-2.6-2.6v-.9a2.7,2.7,0,0,1,2.6-2.5h67.5c1.4,0,1.9,1.3,1.9,2.5Z"/><path class="cls-4" d="M339,385.2c0,1.2-.6,1.8-2,1.8H302.7c-1.4,0-2.6-.6-2.6-1.8v-.9a2.54,2.54,0,0,1,2.6-2.3H337c1.4,0,2,1.1,2,2.3Z"/><path class="cls-2" d="M397,680H95V486.3c0-4,4-6.3,8-6.3H391c4,0,6,2.3,6,6.3Z"/><rect class="cls-3" x="107" y="494" width="280" height="171"/><path class="cls-2" d="M436,688v-8.4c0-2-1-2.6-3.1-2.6H62.9c-2,0-3.9.5-3.9,2.6V688h.3s9.1,7,14.6,7H422c5.5,0,14.6-7,14.6-7Z"/><path class="cls-4" d="M280.7,683H215.1c-5.5,0-5.5-6-5.5-6h76.6S286.2,683,280.7,683Z"/><path class="cls-5" d="M219,518.4c0,2.4-1.6,4.6-4.1,4.6H167.8a4.9,4.9,0,0,1-4.8-4.6v-8.8a5,5,0,0,1,4.8-4.6h47.1a4.37,4.37,0,0,1,4.1,4.6Z"/><path class="cls-6" d="M331,574.6a4.44,4.44,0,0,1-4.4,4.4H167.4a4.44,4.44,0,0,1-4.4-4.4V533.4a4.44,4.44,0,0,1,4.4-4.4H326.6a4.44,4.44,0,0,1,4.4,4.4v41.2Z"/><path class="cls-7" d="M215,609.7a4.44,4.44,0,0,1-4.5,4.3H167.8c-2.4,0-4.8-1.9-4.8-4.3V587.6a5,5,0,0,1,4.8-4.6h42.7a4.7,4.7,0,0,1,4.5,4.6Z"/><path class="cls-7" d="M272,609.6a4.44,4.44,0,0,1-4.4,4.4H225.4a4.44,4.44,0,0,1-4.4-4.4V587.4a4.44,4.44,0,0,1,4.4-4.4h42.2a4.44,4.44,0,0,1,4.4,4.4Z"/><path class="cls-7" d="M330,609.6a4.44,4.44,0,0,1-4.4,4.4H283.4a4.44,4.44,0,0,1-4.4-4.4V587.4a4.44,4.44,0,0,1,4.4-4.4h42.2a4.44,4.44,0,0,1,4.4,4.4Z"/><path class="cls-4" d="M272,622.5a1.33,1.33,0,0,1-1.5,1.5H222.6c-1,0-1.6-.4-1.6-1.5v-.7a1.63,1.63,0,0,1,1.6-1.8h47.9c1,0,1.5.8,1.5,1.8Z"/><path class="cls-4" d="M272,629.9c0,1-.5,2.1-1.5,2.1H222.6c-1,0-1.6-1.1-1.6-2.1v-.7c0-1,.6-2.2,1.6-2.2h47.9c1,0,1.5,1.1,1.5,2.2Z"/><path class="cls-4" d="M272,637.3c0,1-.5,2.7-1.5,2.7H222.6c-1,0-1.6-1.7-1.6-2.7v-.7c0-1,.6-2.5,1.6-2.5h47.9c1,0,1.5,1.5,1.5,2.5Z"/><path class="cls-4" d="M272,644.6c0,1-.5,2.4-1.5,2.4H222.6c-1,0-1.6-1.4-1.6-2.4v-.7a1.72,1.72,0,0,1,1.6-1.9h47.9c1,0,1.5.9,1.5,1.9Z"/><path class="cls-4" d="M248,652c0,1,0,2-1,2H222.6a1.82,1.82,0,0,1-1.6-2v-.7c0-1,.6-2.2,1.6-2.2H247c1,0,1,1.2,1,2.2Z"/><path class="cls-4" d="M331,622.5a1.4,1.4,0,0,1-1.6,1.5H281.5c-1,0-2.4-.4-2.4-1.5v-.7c0-1,1.5-1.8,2.4-1.8h47.9a1.63,1.63,0,0,1,1.6,1.8Z"/><path class="cls-4" d="M331,629.9c0,1-.6,2.1-1.6,2.1H281.5a2.67,2.67,0,0,1-2.4-2.1v-.7c0-1,1.5-2.2,2.4-2.2h47.9c1,0,1.6,1.1,1.6,2.2Z"/><path class="cls-4" d="M331,637.3c0,1-.6,2.7-1.6,2.7H281.5c-1,0-2.4-1.7-2.4-2.7v-.7a3.23,3.23,0,0,1,2.4-2.5h47.9c1,0,1.6,1.5,1.6,2.5Z"/><path class="cls-4" d="M331,644.6c0,1-.6,2.4-1.6,2.4H281.5a3,3,0,0,1-2.4-2.4v-.7c0-1,1.5-1.9,2.4-1.9h47.9a1.72,1.72,0,0,1,1.6,1.9Z"/><path class="cls-4" d="M308,652a2.35,2.35,0,0,1-2.2,2H281.4c-1,0-2.4-1-2.4-2v-.7c0-1,1.5-2.2,2.4-2.2h24.4a2.55,2.55,0,0,1,2.2,2.2Z"/><path class="cls-4" d="M215,622.5c0,1-.9,1.5-1.9,1.5H165.2c-1,0-2.2-.4-2.2-1.5v-.7c0-1,1.2-1.8,2.2-1.8h47.9a1.88,1.88,0,0,1,1.9,1.8Z"/><path class="cls-4" d="M215,629.9a2.16,2.16,0,0,1-1.9,2.1H165.2a2.45,2.45,0,0,1-2.2-2.1v-.7a2.55,2.55,0,0,1,2.2-2.2h47.9a2.18,2.18,0,0,1,1.9,2.2Z"/><path class="cls-4" d="M215,637.3c0,1-.9,2.7-1.9,2.7H165.2c-1,0-2.2-1.7-2.2-2.7v-.7c0-1,1.2-2.5,2.2-2.5h47.9c1,0,1.9,1.5,1.9,2.5Z"/><path class="cls-4" d="M215,644.6c0,1-.9,2.4-1.9,2.4H165.2a2.77,2.77,0,0,1-2.2-2.4v-.7a2.26,2.26,0,0,1,2.2-1.9h47.9a2,2,0,0,1,1.9,1.9Z"/><path class="cls-4" d="M191,652c0,1-.4,2-1.4,2H165.2a2.35,2.35,0,0,1-2.2-2v-.7a2.55,2.55,0,0,1,2.2-2.2h24.4c1,0,1.4,1.2,1.4,2.2Z"/><path class="cls-2" d="M740,579.5c0,7.7-6,14.5-13.7,14.5h-143c-7.7,0-14.3-6.9-14.3-14.5v-198c0-7.7,6.7-14.5,14.3-14.5h143c7.7,0,13.7,6.9,13.7,14.5Z"/><rect class="cls-3" x="583" y="384" width="143" height="174"/><path class="cls-4" d="M666.3,575.5A11.5,11.5,0,1,1,654.8,564,11.5,11.5,0,0,1,666.3,575.5Z"/><path class="cls-5" d="M656,411.1c0,2.4-1.8,3.9-4.2,3.9H605.4c-2.4,0-4.4-1.5-4.4-3.9v-8.7a4.37,4.37,0,0,1,4.4-4.4h46.4a4.21,4.21,0,0,1,4.2,4.4Z"/><path class="cls-6" d="M708,466.2c0,2.4-1.6,4.8-4,4.8H605.4c-2.4,0-4.4-2.4-4.4-4.8V425.6a4.55,4.55,0,0,1,4.4-4.6H704c2.4,0,4,2.2,4,4.6Z"/><path class="cls-7" d="M652,501c0,2.4-2.2,4-4.6,4H605.3a4.11,4.11,0,0,1-4.4-4V479.2a4.21,4.21,0,0,1,4.4-4.2h42.1a4.45,4.45,0,0,1,4.6,4.2Z"/><path class="cls-7" d="M708,501a3.78,3.78,0,0,1-4,4H661.9a3.7,3.7,0,0,1-3.9-4V479.2c0-2.4,1.5-4.2,3.9-4.2H704a3.94,3.94,0,0,1,4,4.2Z"/><path class="cls-4" d="M708,513.7c0,1-.5,1.3-1.4,1.3H659.4c-1,0-1.3-.3-1.3-1.3V513c0-1,.4-2,1.3-2h47.2c1,0,1.4,1,1.4,2Z"/><path class="cls-4" d="M708,520.9c0,1-.5,2.1-1.4,2.1H659.4c-1,0-1.3-1.1-1.3-2.1v-.7c0-1,.4-2.2,1.3-2.2h47.2c1,0,1.4,1.2,1.4,2.2Z"/><path class="cls-4" d="M708,528.2c0,1-.5,1.8-1.4,1.8H659.4c-1,0-1.3-.8-1.3-1.8v-.7c0-1,.4-1.5,1.3-1.5h47.2c1,0,1.4.5,1.4,1.5Z"/><path class="cls-4" d="M708,535.4c0,1-.5,1.6-1.4,1.6H659.4c-1,0-1.3-.6-1.3-1.6v-.7c0-1,.4-1.7,1.3-1.7h47.2c1,0,1.4.7,1.4,1.7Z"/><path class="cls-4" d="M685,542.7c0,1-.7,2.3-1.6,2.3h-24c-1,0-1.3-1.3-1.3-2.3V542c0-1,.4-2,1.3-2h24a1.82,1.82,0,0,1,1.6,2Z"/><path class="cls-4" d="M652,513.7c0,1-1,1.3-2,1.3H602.8c-1,0-1.8-.3-1.8-1.3V513a2,2,0,0,1,1.8-2H650a2.15,2.15,0,0,1,2,2Z"/><path class="cls-4" d="M652,520.9a2.25,2.25,0,0,1-2,2.1H602.8a2.07,2.07,0,0,1-1.8-2.1v-.7c0-1,.8-2.2,1.8-2.2H650a2.35,2.35,0,0,1,2,2.2Z"/><path class="cls-4" d="M652,528.2a2,2,0,0,1-2,1.8H602.8a1.79,1.79,0,0,1-1.8-1.8v-.7c0-1,.8-1.5,1.8-1.5H650c1,0,2,.5,2,1.5Z"/><path class="cls-4" d="M652,535.4a1.82,1.82,0,0,1-2,1.6H602.8a1.63,1.63,0,0,1-1.8-1.6v-.7a1.71,1.71,0,0,1,1.8-1.7H650a1.89,1.89,0,0,1,2,1.7Z"/><path class="cls-4" d="M629,542.7a2.65,2.65,0,0,1-2.2,2.3h-24c-1,0-1.8-1.3-1.8-2.3V542a2,2,0,0,1,1.8-2h24a2.35,2.35,0,0,1,2.2,2Z"/><path class="cls-2" d="M596,716.7c0,6.5-6.3,12.3-12.7,12.3H509c-6.5,0-11.9-5.8-11.9-12.3V556.3c0-6.5,5.4-12.3,11.9-12.3h74.3c6.5,0,12.7,5.8,12.7,12.3Z"/><path class="cls-2" d="M596,716.7c0,6.5-6.3,12.3-12.7,12.3H509c-6.5,0-11.9-5.8-11.9-12.3V556.3c0-6.5,5.4-12.3,11.9-12.3h74.3c6.5,0,12.7,5.8,12.7,12.3Z"/><rect class="cls-3" x="504" y="567" width="85" height="135"/><path class="cls-4" d="M553.2,715.2a7.1,7.1,0,1,1-7.1-7.1A7.13,7.13,0,0,1,553.2,715.2Z"/><path class="cls-4" d="M563,558.1a1.9,1.9,0,0,1-1.9,1.9H525.8a1.9,1.9,0,0,1-1.9-1.9v-.3a1.9,1.9,0,0,1,1.9-1.9h35.3a1.9,1.9,0,0,1,1.9,1.9Z"/><path class="cls-5" d="M580,587.5a3.54,3.54,0,0,1-3.5,3.5h-60a3.54,3.54,0,0,1-3.5-3.5v-7a3.54,3.54,0,0,1,3.5-3.5h60a3.54,3.54,0,0,1,3.5,3.5Z"/><path class="cls-6" d="M580,631.5a3.54,3.54,0,0,1-3.5,3.5h-60a3.54,3.54,0,0,1-3.5-3.5v-33a3.54,3.54,0,0,1,3.5-3.5h60a3.54,3.54,0,0,1,3.5,3.5Z"/><path class="cls-7" d="M580,659.6a3.15,3.15,0,0,1-3.2,3.4H516.2a3.15,3.15,0,0,1-3.2-3.4V642c0-1.9,1.2-3,3.2-3h60.6c2,0,3.2,1,3.2,3Z"/><path class="cls-7" d="M580,688.6a3.15,3.15,0,0,1-3.2,3.4H516.2a3.15,3.15,0,0,1-3.2-3.4V671c0-1.9,1.2-3,3.2-3h60.6c2,0,3.2,1,3.2,3Z"/></g></svg>