<svg id="Layer_1" data-name="Layer 1" xmlns="http://www.w3.org/2000/svg" viewBox="0 0 29 30"><defs><style>.cls-1{fill:#356969;}.cls-2{fill:none;stroke:#356969;stroke-linejoin:round;}.cls-3{fill:#fff;}</style></defs><title>7</title><g id="Group_160" data-name="Group 160"><g id="Ellipse_7" data-name="Ellipse 7"><circle class="cls-1" cx="23" cy="11" r="6"/><circle class="cls-2" cx="23" cy="11" r="5.5"/></g><path id="Path_657" data-name="Path 657" class="cls-3" d="M510.8,377.9a10.78,10.78,0,0,0-3.33-7.22,9.47,9.47,0,0,0-2.2-1.41,4,4,0,0,0-7.95,0,9.54,9.54,0,0,0-5.53,8.63v10a.5.5,0,0,1-.5.5h-1.62A1.63,1.63,0,0,0,488,390a1.6,1.6,0,0,0,.46,1.13l0,0a1.63,1.63,0,0,0,1.15.48h23.25a1.63,1.63,0,1,0,0-3.25H511.3a.5.5,0,0,1-.5-.5C511,383.86,510.87,380.86,510.8,377.9Zm-6.29,14.74h-6.43a3.25,3.25,0,0,0,6.43,0Zm-1.4-24.07a9.24,9.24,0,0,0-3.63,0,2,2,0,0,1,2.62-1,1.92,1.92,0,0,1,.6.42,1.94,1.94,0,0,1,.41.6Z" transform="translate(-488.04 -365.4)"/></g></svg>