<svg id="Layer_1" data-name="Layer 1" xmlns="http://www.w3.org/2000/svg" viewBox="0 0 29 30"><defs><style>.cls-1{fill:#fff;}.cls-2{fill:#fb4b09;}.cls-3{fill:none;stroke:#fb4b09;stroke-linejoin:round;}</style></defs><title>8</title><path id="Path_657" data-name="Path 657" class="cls-1" d="M491.18,381.84a6.86,6.86,0,0,1-2.71-13.16,9.47,9.47,0,0,0-2.2-1.41,4,4,0,0,0-7.95,0,9.54,9.54,0,0,0-5.53,8.63v10a.5.5,0,0,1-.5.5h-1.62A1.63,1.63,0,0,0,469,388a1.6,1.6,0,0,0,.46,1.13l0,0a1.63,1.63,0,0,0,1.15.48h23.25a1.63,1.63,0,1,0,0-3.25H492.3a.5.5,0,0,1-.5-.5v-4.09c-.2,0-.41,0-.62,0Zm-5.67,8.8h-6.43a3.25,3.25,0,0,0,6.43,0Zm-1.4-24.07a9.24,9.24,0,0,0-3.63,0,2,2,0,0,1,2.62-1,1.92,1.92,0,0,1,.6.42,1.94,1.94,0,0,1,.41.6Z" transform="translate(-469.04 -363.4)"/><g id="Ellipse_7" data-name="Ellipse 7"><circle class="cls-2" cx="23" cy="11" r="6"/><circle class="cls-3" cx="23" cy="11" r="5.5"/></g></svg>