<svg id="Capa_1" data-name="Capa 1" xmlns="http://www.w3.org/2000/svg" viewBox="0 0 538.04 223.59"><defs><style>.cls-1{fill:#fff;}</style></defs><title>car</title><path class="cls-1" d="M526.74,312.87h-15c-3.71-18.74-10.31-44.36-20.79-58-49-63.57-110.58-97.69-187.95-97.69-50.13,0-82.78,4.9-99.79,15-2.29,1.36-9.06,5.37-27.34,42.13-26.69.42-97.28,5.26-131.13,43.42a110.22,110.22,0,0,0-26.35,55.09H11.31a11.33,11.33,0,0,0,0,22.65H17c0,.61.09,1.08.1,1.22a11.31,11.31,0,0,0,11.24,10.11H42.56a56.54,56.54,0,0,0,103.69,0h216a56.53,56.53,0,0,0,103.67,0h38.38a11.33,11.33,0,0,0,11.33-11.32h11.13a11.32,11.32,0,0,0,0-22.64ZM94.4,358.17a34,34,0,1,1,34-34A34,34,0,0,1,94.4,358.17ZM295.18,226.43a5.65,5.65,0,0,1-5.66,5.67h-88a5.68,5.68,0,0,1-4.78-2.67,5.59,5.59,0,0,1-.29-5.47c4.15-8.54,11.67-23.33,15.27-26.4,12-7.62,36-11.23,72-11.23,2,0,3.93,0,5.91.06a5.67,5.67,0,0,1,5.51,5.67v34.37Zm11.35,0V193.66a5.69,5.69,0,0,1,1.9-4.23,5.53,5.53,0,0,1,4.43-1.4c39.86,4.68,70.51,17.87,82.05,35.27a5.67,5.67,0,0,1-4.73,8.8h-78A5.67,5.67,0,0,1,306.53,226.43ZM414.07,358.17a34,34,0,1,1,34-34A34,34,0,0,1,414.07,358.17Z" transform="translate(0 -157.23)"/></svg>