<svg id="Layer_1" data-name="Layer 1" xmlns="http://www.w3.org/2000/svg" viewBox="0 0 37.88 49"><defs><style>.cls-1{fill:#fff;}</style></defs><title>code</title><g id="Code"><path id="Path_198" data-name="Path 198" class="cls-1" d="M701.13,368.61h-31.7a3.82,3.82,0,0,1,0-7.63l29.47.08h0a.79.79,0,0,0,0-1.57l-29.47-.09a5.39,5.39,0,0,0-5.39,5.39v32.35h.05a5.41,5.41,0,0,0,5.34,4.68h1.93v5.8a.8.8,0,0,0,1.19.68l3.05-1.78,3,1.78a.78.78,0,0,0,1.07-.29.77.77,0,0,0,.11-.39v-5.8h21.3a.8.8,0,0,0,.79-.79h0V369.4A.8.8,0,0,0,701.13,368.61Zm-35.51,27.81V368.6a5.33,5.33,0,0,0,3.29,1.56v30A3.81,3.81,0,0,1,665.62,396.42Zm12.64,9.82L676,404.93a.81.81,0,0,0-.8,0l-2.26,1.31v-4.42h5.32v4.43Zm22.09-6H670V370.19h30.39Z" transform="translate(-664.04 -359.4)"/><path id="Path_199" data-name="Path 199" class="cls-1" d="M669.44,362.73h0a.53.53,0,0,0-.53.53.52.52,0,0,0,.53.52l30.2.06h0a.52.52,0,0,0,.53-.52.53.53,0,0,0-.53-.53Z" transform="translate(-664.04 -359.4)"/><path id="Path_200" data-name="Path 200" class="cls-1" d="M669.43,365.81a.52.52,0,0,0-.52.52.52.52,0,0,0,.52.53l31,0h0a.52.52,0,0,0,.52-.53.52.52,0,0,0-.52-.52l-31,0Z" transform="translate(-664.04 -359.4)"/></g></svg>