<svg id="Layer_1" data-name="Layer 1" xmlns="http://www.w3.org/2000/svg" viewBox="0 0 33.77 46.05"><defs><style>.cls-1{fill:#fff;}</style></defs><title>crenaux</title><g id="Cone"><path id="Path_202" data-name="Path 202" class="cls-1" d="M666,401.31v6.14h33.77v-6.14h-6.26l-6.29-36.24a4.39,4.39,0,0,0-8.66,0l-6.3,36.24Zm32.24,4.61h-30.7v-3.07h30.7ZM676,389h13.93l.79,4.61h-15.5Zm.26-1.53.92-5.38h11.57l.92,5.38Zm3.5-20h6.4l1.25,6.91h-8.9Zm7.93,8.44.79,4.61h-11l.79-4.61Zm-7.54-10.66a2.85,2.85,0,0,1,5.63,0l.12.69H680Zm-6,34.46h4.2v-1.54h-3.94l.53-3.07h16l1,6.14H673.86Z" transform="translate(-666.04 -361.4)"/><rect id="Rectangle_401" data-name="Rectangle 401" class="cls-1" x="20.69" y="32.2" width="3.8" height="3.8"/><rect id="Rectangle_402" data-name="Rectangle 402" class="cls-1" x="13.56" y="8.74" width="3.8" height="3.8"/></g></svg>